%TF.GenerationSoftware,KiCad,Pcbnew,7.0.8*%
%TF.CreationDate,2024-11-10T19:07:09+09:00*%
%TF.ProjectId,Ni-MH_3.3V-Module,4e692d4d-485f-4332-9e33-562d4d6f6475,rev?*%
%TF.SameCoordinates,Original*%
%TF.FileFunction,Legend,Top*%
%TF.FilePolarity,Positive*%
%FSLAX46Y46*%
G04 Gerber Fmt 4.6, Leading zero omitted, Abs format (unit mm)*
G04 Created by KiCad (PCBNEW 7.0.8) date 2024-11-10 19:07:09*
%MOMM*%
%LPD*%
G01*
G04 APERTURE LIST*
G04 Aperture macros list*
%AMRoundRect*
0 Rectangle with rounded corners*
0 $1 Rounding radius*
0 $2 $3 $4 $5 $6 $7 $8 $9 X,Y pos of 4 corners*
0 Add a 4 corners polygon primitive as box body*
4,1,4,$2,$3,$4,$5,$6,$7,$8,$9,$2,$3,0*
0 Add four circle primitives for the rounded corners*
1,1,$1+$1,$2,$3*
1,1,$1+$1,$4,$5*
1,1,$1+$1,$6,$7*
1,1,$1+$1,$8,$9*
0 Add four rect primitives between the rounded corners*
20,1,$1+$1,$2,$3,$4,$5,0*
20,1,$1+$1,$4,$5,$6,$7,0*
20,1,$1+$1,$6,$7,$8,$9,0*
20,1,$1+$1,$8,$9,$2,$3,0*%
G04 Aperture macros list end*
%ADD10C,0.125000*%
%ADD11C,0.150000*%
%ADD12C,0.098425*%
%ADD13C,0.120000*%
%ADD14C,0.127000*%
%ADD15C,0.200000*%
%ADD16RoundRect,0.200000X-0.200000X-0.275000X0.200000X-0.275000X0.200000X0.275000X-0.200000X0.275000X0*%
%ADD17C,2.700000*%
%ADD18C,1.700000*%
%ADD19RoundRect,0.112500X0.112500X-0.187500X0.112500X0.187500X-0.112500X0.187500X-0.112500X-0.187500X0*%
%ADD20RoundRect,0.250000X0.250000X0.475000X-0.250000X0.475000X-0.250000X-0.475000X0.250000X-0.475000X0*%
%ADD21RoundRect,0.250000X-0.250000X-0.475000X0.250000X-0.475000X0.250000X0.475000X-0.250000X0.475000X0*%
%ADD22RoundRect,0.137000X-0.105000X0.335000X-0.105000X-0.335000X0.105000X-0.335000X0.105000X0.335000X0*%
%ADD23RoundRect,0.102000X-0.800000X0.450000X-0.800000X-0.450000X0.800000X-0.450000X0.800000X0.450000X0*%
%ADD24RoundRect,0.225000X0.225000X0.250000X-0.225000X0.250000X-0.225000X-0.250000X0.225000X-0.250000X0*%
%ADD25RoundRect,0.200000X0.275000X-0.200000X0.275000X0.200000X-0.275000X0.200000X-0.275000X-0.200000X0*%
%ADD26RoundRect,0.102000X1.110000X-0.620000X1.110000X0.620000X-1.110000X0.620000X-1.110000X-0.620000X0*%
G04 APERTURE END LIST*
D10*
X4019188Y-17712309D02*
X3733474Y-17712309D01*
X3876331Y-17712309D02*
X3876331Y-17212309D01*
X3876331Y-17212309D02*
X3828712Y-17283738D01*
X3828712Y-17283738D02*
X3781093Y-17331357D01*
X3781093Y-17331357D02*
X3733474Y-17355166D01*
X4233473Y-17664690D02*
X4257283Y-17688500D01*
X4257283Y-17688500D02*
X4233473Y-17712309D01*
X4233473Y-17712309D02*
X4209664Y-17688500D01*
X4209664Y-17688500D02*
X4233473Y-17664690D01*
X4233473Y-17664690D02*
X4233473Y-17712309D01*
X4447759Y-17259928D02*
X4471568Y-17236119D01*
X4471568Y-17236119D02*
X4519187Y-17212309D01*
X4519187Y-17212309D02*
X4638235Y-17212309D01*
X4638235Y-17212309D02*
X4685854Y-17236119D01*
X4685854Y-17236119D02*
X4709663Y-17259928D01*
X4709663Y-17259928D02*
X4733473Y-17307547D01*
X4733473Y-17307547D02*
X4733473Y-17355166D01*
X4733473Y-17355166D02*
X4709663Y-17426595D01*
X4709663Y-17426595D02*
X4423949Y-17712309D01*
X4423949Y-17712309D02*
X4733473Y-17712309D01*
X4876330Y-17212309D02*
X5042996Y-17712309D01*
X5042996Y-17712309D02*
X5209663Y-17212309D01*
X1479188Y-472119D02*
X1431569Y-448309D01*
X1431569Y-448309D02*
X1360140Y-448309D01*
X1360140Y-448309D02*
X1288712Y-472119D01*
X1288712Y-472119D02*
X1241093Y-519738D01*
X1241093Y-519738D02*
X1217283Y-567357D01*
X1217283Y-567357D02*
X1193474Y-662595D01*
X1193474Y-662595D02*
X1193474Y-734023D01*
X1193474Y-734023D02*
X1217283Y-829261D01*
X1217283Y-829261D02*
X1241093Y-876880D01*
X1241093Y-876880D02*
X1288712Y-924500D01*
X1288712Y-924500D02*
X1360140Y-948309D01*
X1360140Y-948309D02*
X1407759Y-948309D01*
X1407759Y-948309D02*
X1479188Y-924500D01*
X1479188Y-924500D02*
X1502997Y-900690D01*
X1502997Y-900690D02*
X1502997Y-734023D01*
X1502997Y-734023D02*
X1407759Y-734023D01*
X1717283Y-948309D02*
X1717283Y-448309D01*
X1717283Y-448309D02*
X2002997Y-948309D01*
X2002997Y-948309D02*
X2002997Y-448309D01*
X2241093Y-948309D02*
X2241093Y-448309D01*
X2241093Y-448309D02*
X2360141Y-448309D01*
X2360141Y-448309D02*
X2431569Y-472119D01*
X2431569Y-472119D02*
X2479188Y-519738D01*
X2479188Y-519738D02*
X2502998Y-567357D01*
X2502998Y-567357D02*
X2526807Y-662595D01*
X2526807Y-662595D02*
X2526807Y-734023D01*
X2526807Y-734023D02*
X2502998Y-829261D01*
X2502998Y-829261D02*
X2479188Y-876880D01*
X2479188Y-876880D02*
X2431569Y-924500D01*
X2431569Y-924500D02*
X2360141Y-948309D01*
X2360141Y-948309D02*
X2241093Y-948309D01*
X1479188Y-17236119D02*
X1431569Y-17212309D01*
X1431569Y-17212309D02*
X1360140Y-17212309D01*
X1360140Y-17212309D02*
X1288712Y-17236119D01*
X1288712Y-17236119D02*
X1241093Y-17283738D01*
X1241093Y-17283738D02*
X1217283Y-17331357D01*
X1217283Y-17331357D02*
X1193474Y-17426595D01*
X1193474Y-17426595D02*
X1193474Y-17498023D01*
X1193474Y-17498023D02*
X1217283Y-17593261D01*
X1217283Y-17593261D02*
X1241093Y-17640880D01*
X1241093Y-17640880D02*
X1288712Y-17688500D01*
X1288712Y-17688500D02*
X1360140Y-17712309D01*
X1360140Y-17712309D02*
X1407759Y-17712309D01*
X1407759Y-17712309D02*
X1479188Y-17688500D01*
X1479188Y-17688500D02*
X1502997Y-17664690D01*
X1502997Y-17664690D02*
X1502997Y-17498023D01*
X1502997Y-17498023D02*
X1407759Y-17498023D01*
X1717283Y-17712309D02*
X1717283Y-17212309D01*
X1717283Y-17212309D02*
X2002997Y-17712309D01*
X2002997Y-17712309D02*
X2002997Y-17212309D01*
X2241093Y-17712309D02*
X2241093Y-17212309D01*
X2241093Y-17212309D02*
X2360141Y-17212309D01*
X2360141Y-17212309D02*
X2431569Y-17236119D01*
X2431569Y-17236119D02*
X2479188Y-17283738D01*
X2479188Y-17283738D02*
X2502998Y-17331357D01*
X2502998Y-17331357D02*
X2526807Y-17426595D01*
X2526807Y-17426595D02*
X2526807Y-17498023D01*
X2526807Y-17498023D02*
X2502998Y-17593261D01*
X2502998Y-17593261D02*
X2479188Y-17640880D01*
X2479188Y-17640880D02*
X2431569Y-17688500D01*
X2431569Y-17688500D02*
X2360141Y-17712309D01*
X2360141Y-17712309D02*
X2241093Y-17712309D01*
D11*
X10905628Y-16744744D02*
X11381819Y-16744744D01*
X10381819Y-17078077D02*
X10905628Y-16744744D01*
X10905628Y-16744744D02*
X10381819Y-16411411D01*
X11381819Y-15601887D02*
X11381819Y-16078077D01*
X11381819Y-16078077D02*
X10381819Y-16078077D01*
X11000866Y-15268553D02*
X11000866Y-14506649D01*
X10381819Y-13744744D02*
X11096104Y-13744744D01*
X11096104Y-13744744D02*
X11238961Y-13792363D01*
X11238961Y-13792363D02*
X11334200Y-13887601D01*
X11334200Y-13887601D02*
X11381819Y-14030458D01*
X11381819Y-14030458D02*
X11381819Y-14125696D01*
X10381819Y-13411410D02*
X10381819Y-12839982D01*
X11381819Y-13125696D02*
X10381819Y-13125696D01*
X11477057Y-12744744D02*
X11477057Y-11982839D01*
X11381819Y-11744743D02*
X10381819Y-11744743D01*
X10381819Y-11744743D02*
X11381819Y-11173315D01*
X11381819Y-11173315D02*
X10381819Y-11173315D01*
X11381819Y-10697124D02*
X10715152Y-10697124D01*
X10381819Y-10697124D02*
X10429438Y-10744743D01*
X10429438Y-10744743D02*
X10477057Y-10697124D01*
X10477057Y-10697124D02*
X10429438Y-10649505D01*
X10429438Y-10649505D02*
X10381819Y-10697124D01*
X10381819Y-10697124D02*
X10477057Y-10697124D01*
X11000866Y-10220934D02*
X11000866Y-9459030D01*
X11381819Y-8982839D02*
X10381819Y-8982839D01*
X10381819Y-8982839D02*
X11096104Y-8649506D01*
X11096104Y-8649506D02*
X10381819Y-8316173D01*
X10381819Y-8316173D02*
X11381819Y-8316173D01*
X11381819Y-7839982D02*
X10381819Y-7839982D01*
X10858009Y-7839982D02*
X10858009Y-7268554D01*
X11381819Y-7268554D02*
X10381819Y-7268554D01*
X11991819Y-17030458D02*
X11991819Y-16411411D01*
X11991819Y-16411411D02*
X12372771Y-16744744D01*
X12372771Y-16744744D02*
X12372771Y-16601887D01*
X12372771Y-16601887D02*
X12420390Y-16506649D01*
X12420390Y-16506649D02*
X12468009Y-16459030D01*
X12468009Y-16459030D02*
X12563247Y-16411411D01*
X12563247Y-16411411D02*
X12801342Y-16411411D01*
X12801342Y-16411411D02*
X12896580Y-16459030D01*
X12896580Y-16459030D02*
X12944200Y-16506649D01*
X12944200Y-16506649D02*
X12991819Y-16601887D01*
X12991819Y-16601887D02*
X12991819Y-16887601D01*
X12991819Y-16887601D02*
X12944200Y-16982839D01*
X12944200Y-16982839D02*
X12896580Y-17030458D01*
X12896580Y-15982839D02*
X12944200Y-15935220D01*
X12944200Y-15935220D02*
X12991819Y-15982839D01*
X12991819Y-15982839D02*
X12944200Y-16030458D01*
X12944200Y-16030458D02*
X12896580Y-15982839D01*
X12896580Y-15982839D02*
X12991819Y-15982839D01*
X11991819Y-15601887D02*
X11991819Y-14982840D01*
X11991819Y-14982840D02*
X12372771Y-15316173D01*
X12372771Y-15316173D02*
X12372771Y-15173316D01*
X12372771Y-15173316D02*
X12420390Y-15078078D01*
X12420390Y-15078078D02*
X12468009Y-15030459D01*
X12468009Y-15030459D02*
X12563247Y-14982840D01*
X12563247Y-14982840D02*
X12801342Y-14982840D01*
X12801342Y-14982840D02*
X12896580Y-15030459D01*
X12896580Y-15030459D02*
X12944200Y-15078078D01*
X12944200Y-15078078D02*
X12991819Y-15173316D01*
X12991819Y-15173316D02*
X12991819Y-15459030D01*
X12991819Y-15459030D02*
X12944200Y-15554268D01*
X12944200Y-15554268D02*
X12896580Y-15601887D01*
X11991819Y-14697125D02*
X12991819Y-14363792D01*
X12991819Y-14363792D02*
X11991819Y-14030459D01*
X12610866Y-13697125D02*
X12610866Y-12935221D01*
X12991819Y-12459030D02*
X11991819Y-12459030D01*
X11991819Y-12459030D02*
X12706104Y-12125697D01*
X12706104Y-12125697D02*
X11991819Y-11792364D01*
X11991819Y-11792364D02*
X12991819Y-11792364D01*
X12991819Y-11173316D02*
X12944200Y-11268554D01*
X12944200Y-11268554D02*
X12896580Y-11316173D01*
X12896580Y-11316173D02*
X12801342Y-11363792D01*
X12801342Y-11363792D02*
X12515628Y-11363792D01*
X12515628Y-11363792D02*
X12420390Y-11316173D01*
X12420390Y-11316173D02*
X12372771Y-11268554D01*
X12372771Y-11268554D02*
X12325152Y-11173316D01*
X12325152Y-11173316D02*
X12325152Y-11030459D01*
X12325152Y-11030459D02*
X12372771Y-10935221D01*
X12372771Y-10935221D02*
X12420390Y-10887602D01*
X12420390Y-10887602D02*
X12515628Y-10839983D01*
X12515628Y-10839983D02*
X12801342Y-10839983D01*
X12801342Y-10839983D02*
X12896580Y-10887602D01*
X12896580Y-10887602D02*
X12944200Y-10935221D01*
X12944200Y-10935221D02*
X12991819Y-11030459D01*
X12991819Y-11030459D02*
X12991819Y-11173316D01*
X12991819Y-9982840D02*
X11991819Y-9982840D01*
X12944200Y-9982840D02*
X12991819Y-10078078D01*
X12991819Y-10078078D02*
X12991819Y-10268554D01*
X12991819Y-10268554D02*
X12944200Y-10363792D01*
X12944200Y-10363792D02*
X12896580Y-10411411D01*
X12896580Y-10411411D02*
X12801342Y-10459030D01*
X12801342Y-10459030D02*
X12515628Y-10459030D01*
X12515628Y-10459030D02*
X12420390Y-10411411D01*
X12420390Y-10411411D02*
X12372771Y-10363792D01*
X12372771Y-10363792D02*
X12325152Y-10268554D01*
X12325152Y-10268554D02*
X12325152Y-10078078D01*
X12325152Y-10078078D02*
X12372771Y-9982840D01*
X12325152Y-9078078D02*
X12991819Y-9078078D01*
X12325152Y-9506649D02*
X12848961Y-9506649D01*
X12848961Y-9506649D02*
X12944200Y-9459030D01*
X12944200Y-9459030D02*
X12991819Y-9363792D01*
X12991819Y-9363792D02*
X12991819Y-9220935D01*
X12991819Y-9220935D02*
X12944200Y-9125697D01*
X12944200Y-9125697D02*
X12896580Y-9078078D01*
X12991819Y-8459030D02*
X12944200Y-8554268D01*
X12944200Y-8554268D02*
X12848961Y-8601887D01*
X12848961Y-8601887D02*
X11991819Y-8601887D01*
X12944200Y-7697125D02*
X12991819Y-7792363D01*
X12991819Y-7792363D02*
X12991819Y-7982839D01*
X12991819Y-7982839D02*
X12944200Y-8078077D01*
X12944200Y-8078077D02*
X12848961Y-8125696D01*
X12848961Y-8125696D02*
X12468009Y-8125696D01*
X12468009Y-8125696D02*
X12372771Y-8078077D01*
X12372771Y-8078077D02*
X12325152Y-7982839D01*
X12325152Y-7982839D02*
X12325152Y-7792363D01*
X12325152Y-7792363D02*
X12372771Y-7697125D01*
X12372771Y-7697125D02*
X12468009Y-7649506D01*
X12468009Y-7649506D02*
X12563247Y-7649506D01*
X12563247Y-7649506D02*
X12658485Y-8125696D01*
X13601819Y-17078077D02*
X14601819Y-16744744D01*
X14601819Y-16744744D02*
X13601819Y-16411411D01*
X13601819Y-15887601D02*
X13601819Y-15792363D01*
X13601819Y-15792363D02*
X13649438Y-15697125D01*
X13649438Y-15697125D02*
X13697057Y-15649506D01*
X13697057Y-15649506D02*
X13792295Y-15601887D01*
X13792295Y-15601887D02*
X13982771Y-15554268D01*
X13982771Y-15554268D02*
X14220866Y-15554268D01*
X14220866Y-15554268D02*
X14411342Y-15601887D01*
X14411342Y-15601887D02*
X14506580Y-15649506D01*
X14506580Y-15649506D02*
X14554200Y-15697125D01*
X14554200Y-15697125D02*
X14601819Y-15792363D01*
X14601819Y-15792363D02*
X14601819Y-15887601D01*
X14601819Y-15887601D02*
X14554200Y-15982839D01*
X14554200Y-15982839D02*
X14506580Y-16030458D01*
X14506580Y-16030458D02*
X14411342Y-16078077D01*
X14411342Y-16078077D02*
X14220866Y-16125696D01*
X14220866Y-16125696D02*
X13982771Y-16125696D01*
X13982771Y-16125696D02*
X13792295Y-16078077D01*
X13792295Y-16078077D02*
X13697057Y-16030458D01*
X13697057Y-16030458D02*
X13649438Y-15982839D01*
X13649438Y-15982839D02*
X13601819Y-15887601D01*
X14506580Y-15125696D02*
X14554200Y-15078077D01*
X14554200Y-15078077D02*
X14601819Y-15125696D01*
X14601819Y-15125696D02*
X14554200Y-15173315D01*
X14554200Y-15173315D02*
X14506580Y-15125696D01*
X14506580Y-15125696D02*
X14601819Y-15125696D01*
X14601819Y-14125697D02*
X14601819Y-14697125D01*
X14601819Y-14411411D02*
X13601819Y-14411411D01*
X13601819Y-14411411D02*
X13744676Y-14506649D01*
X13744676Y-14506649D02*
X13839914Y-14601887D01*
X13839914Y-14601887D02*
X13887533Y-14697125D01*
X14506580Y-13697125D02*
X14554200Y-13649506D01*
X14554200Y-13649506D02*
X14601819Y-13697125D01*
X14601819Y-13697125D02*
X14554200Y-13744744D01*
X14554200Y-13744744D02*
X14506580Y-13697125D01*
X14506580Y-13697125D02*
X14601819Y-13697125D01*
X13601819Y-13030459D02*
X13601819Y-12935221D01*
X13601819Y-12935221D02*
X13649438Y-12839983D01*
X13649438Y-12839983D02*
X13697057Y-12792364D01*
X13697057Y-12792364D02*
X13792295Y-12744745D01*
X13792295Y-12744745D02*
X13982771Y-12697126D01*
X13982771Y-12697126D02*
X14220866Y-12697126D01*
X14220866Y-12697126D02*
X14411342Y-12744745D01*
X14411342Y-12744745D02*
X14506580Y-12792364D01*
X14506580Y-12792364D02*
X14554200Y-12839983D01*
X14554200Y-12839983D02*
X14601819Y-12935221D01*
X14601819Y-12935221D02*
X14601819Y-13030459D01*
X14601819Y-13030459D02*
X14554200Y-13125697D01*
X14554200Y-13125697D02*
X14506580Y-13173316D01*
X14506580Y-13173316D02*
X14411342Y-13220935D01*
X14411342Y-13220935D02*
X14220866Y-13268554D01*
X14220866Y-13268554D02*
X13982771Y-13268554D01*
X13982771Y-13268554D02*
X13792295Y-13220935D01*
X13792295Y-13220935D02*
X13697057Y-13173316D01*
X13697057Y-13173316D02*
X13649438Y-13125697D01*
X13649438Y-13125697D02*
X13601819Y-13030459D01*
D10*
X3709664Y-448309D02*
X4019188Y-448309D01*
X4019188Y-448309D02*
X3852521Y-638785D01*
X3852521Y-638785D02*
X3923950Y-638785D01*
X3923950Y-638785D02*
X3971569Y-662595D01*
X3971569Y-662595D02*
X3995378Y-686404D01*
X3995378Y-686404D02*
X4019188Y-734023D01*
X4019188Y-734023D02*
X4019188Y-853071D01*
X4019188Y-853071D02*
X3995378Y-900690D01*
X3995378Y-900690D02*
X3971569Y-924500D01*
X3971569Y-924500D02*
X3923950Y-948309D01*
X3923950Y-948309D02*
X3781093Y-948309D01*
X3781093Y-948309D02*
X3733474Y-924500D01*
X3733474Y-924500D02*
X3709664Y-900690D01*
X4233473Y-900690D02*
X4257283Y-924500D01*
X4257283Y-924500D02*
X4233473Y-948309D01*
X4233473Y-948309D02*
X4209664Y-924500D01*
X4209664Y-924500D02*
X4233473Y-900690D01*
X4233473Y-900690D02*
X4233473Y-948309D01*
X4423949Y-448309D02*
X4733473Y-448309D01*
X4733473Y-448309D02*
X4566806Y-638785D01*
X4566806Y-638785D02*
X4638235Y-638785D01*
X4638235Y-638785D02*
X4685854Y-662595D01*
X4685854Y-662595D02*
X4709663Y-686404D01*
X4709663Y-686404D02*
X4733473Y-734023D01*
X4733473Y-734023D02*
X4733473Y-853071D01*
X4733473Y-853071D02*
X4709663Y-900690D01*
X4709663Y-900690D02*
X4685854Y-924500D01*
X4685854Y-924500D02*
X4638235Y-948309D01*
X4638235Y-948309D02*
X4495378Y-948309D01*
X4495378Y-948309D02*
X4447759Y-924500D01*
X4447759Y-924500D02*
X4423949Y-900690D01*
X4876330Y-448309D02*
X5042996Y-948309D01*
X5042996Y-948309D02*
X5209663Y-448309D01*
D11*
X7707333Y-5628819D02*
X7374000Y-5152628D01*
X7135905Y-5628819D02*
X7135905Y-4628819D01*
X7135905Y-4628819D02*
X7516857Y-4628819D01*
X7516857Y-4628819D02*
X7612095Y-4676438D01*
X7612095Y-4676438D02*
X7659714Y-4724057D01*
X7659714Y-4724057D02*
X7707333Y-4819295D01*
X7707333Y-4819295D02*
X7707333Y-4962152D01*
X7707333Y-4962152D02*
X7659714Y-5057390D01*
X7659714Y-5057390D02*
X7612095Y-5105009D01*
X7612095Y-5105009D02*
X7516857Y-5152628D01*
X7516857Y-5152628D02*
X7135905Y-5152628D01*
X8088286Y-4724057D02*
X8135905Y-4676438D01*
X8135905Y-4676438D02*
X8231143Y-4628819D01*
X8231143Y-4628819D02*
X8469238Y-4628819D01*
X8469238Y-4628819D02*
X8564476Y-4676438D01*
X8564476Y-4676438D02*
X8612095Y-4724057D01*
X8612095Y-4724057D02*
X8659714Y-4819295D01*
X8659714Y-4819295D02*
X8659714Y-4914533D01*
X8659714Y-4914533D02*
X8612095Y-5057390D01*
X8612095Y-5057390D02*
X8040667Y-5628819D01*
X8040667Y-5628819D02*
X8659714Y-5628819D01*
X12126191Y-6550819D02*
X12126191Y-5550819D01*
X12126191Y-5550819D02*
X12459524Y-6265104D01*
X12459524Y-6265104D02*
X12792857Y-5550819D01*
X12792857Y-5550819D02*
X12792857Y-6550819D01*
X13221429Y-5646057D02*
X13269048Y-5598438D01*
X13269048Y-5598438D02*
X13364286Y-5550819D01*
X13364286Y-5550819D02*
X13602381Y-5550819D01*
X13602381Y-5550819D02*
X13697619Y-5598438D01*
X13697619Y-5598438D02*
X13745238Y-5646057D01*
X13745238Y-5646057D02*
X13792857Y-5741295D01*
X13792857Y-5741295D02*
X13792857Y-5836533D01*
X13792857Y-5836533D02*
X13745238Y-5979390D01*
X13745238Y-5979390D02*
X13173810Y-6550819D01*
X13173810Y-6550819D02*
X13792857Y-6550819D01*
X14221429Y-6455580D02*
X14269048Y-6503200D01*
X14269048Y-6503200D02*
X14221429Y-6550819D01*
X14221429Y-6550819D02*
X14173810Y-6503200D01*
X14173810Y-6503200D02*
X14221429Y-6455580D01*
X14221429Y-6455580D02*
X14221429Y-6550819D01*
X15173809Y-5550819D02*
X14697619Y-5550819D01*
X14697619Y-5550819D02*
X14650000Y-6027009D01*
X14650000Y-6027009D02*
X14697619Y-5979390D01*
X14697619Y-5979390D02*
X14792857Y-5931771D01*
X14792857Y-5931771D02*
X15030952Y-5931771D01*
X15030952Y-5931771D02*
X15126190Y-5979390D01*
X15126190Y-5979390D02*
X15173809Y-6027009D01*
X15173809Y-6027009D02*
X15221428Y-6122247D01*
X15221428Y-6122247D02*
X15221428Y-6360342D01*
X15221428Y-6360342D02*
X15173809Y-6455580D01*
X15173809Y-6455580D02*
X15126190Y-6503200D01*
X15126190Y-6503200D02*
X15030952Y-6550819D01*
X15030952Y-6550819D02*
X14792857Y-6550819D01*
X14792857Y-6550819D02*
X14697619Y-6503200D01*
X14697619Y-6503200D02*
X14650000Y-6455580D01*
X1398819Y-10136094D02*
X398819Y-10136094D01*
X398819Y-10136094D02*
X398819Y-9897999D01*
X398819Y-9897999D02*
X446438Y-9755142D01*
X446438Y-9755142D02*
X541676Y-9659904D01*
X541676Y-9659904D02*
X636914Y-9612285D01*
X636914Y-9612285D02*
X827390Y-9564666D01*
X827390Y-9564666D02*
X970247Y-9564666D01*
X970247Y-9564666D02*
X1160723Y-9612285D01*
X1160723Y-9612285D02*
X1255961Y-9659904D01*
X1255961Y-9659904D02*
X1351200Y-9755142D01*
X1351200Y-9755142D02*
X1398819Y-9897999D01*
X1398819Y-9897999D02*
X1398819Y-10136094D01*
X1398819Y-8612285D02*
X1398819Y-9183713D01*
X1398819Y-8897999D02*
X398819Y-8897999D01*
X398819Y-8897999D02*
X541676Y-8993237D01*
X541676Y-8993237D02*
X636914Y-9088475D01*
X636914Y-9088475D02*
X684533Y-9183713D01*
X7199333Y-16615580D02*
X7151714Y-16663200D01*
X7151714Y-16663200D02*
X7008857Y-16710819D01*
X7008857Y-16710819D02*
X6913619Y-16710819D01*
X6913619Y-16710819D02*
X6770762Y-16663200D01*
X6770762Y-16663200D02*
X6675524Y-16567961D01*
X6675524Y-16567961D02*
X6627905Y-16472723D01*
X6627905Y-16472723D02*
X6580286Y-16282247D01*
X6580286Y-16282247D02*
X6580286Y-16139390D01*
X6580286Y-16139390D02*
X6627905Y-15948914D01*
X6627905Y-15948914D02*
X6675524Y-15853676D01*
X6675524Y-15853676D02*
X6770762Y-15758438D01*
X6770762Y-15758438D02*
X6913619Y-15710819D01*
X6913619Y-15710819D02*
X7008857Y-15710819D01*
X7008857Y-15710819D02*
X7151714Y-15758438D01*
X7151714Y-15758438D02*
X7199333Y-15806057D01*
X8151714Y-16710819D02*
X7580286Y-16710819D01*
X7866000Y-16710819D02*
X7866000Y-15710819D01*
X7866000Y-15710819D02*
X7770762Y-15853676D01*
X7770762Y-15853676D02*
X7675524Y-15948914D01*
X7675524Y-15948914D02*
X7580286Y-15996533D01*
X4405333Y-2997580D02*
X4357714Y-3045200D01*
X4357714Y-3045200D02*
X4214857Y-3092819D01*
X4214857Y-3092819D02*
X4119619Y-3092819D01*
X4119619Y-3092819D02*
X3976762Y-3045200D01*
X3976762Y-3045200D02*
X3881524Y-2949961D01*
X3881524Y-2949961D02*
X3833905Y-2854723D01*
X3833905Y-2854723D02*
X3786286Y-2664247D01*
X3786286Y-2664247D02*
X3786286Y-2521390D01*
X3786286Y-2521390D02*
X3833905Y-2330914D01*
X3833905Y-2330914D02*
X3881524Y-2235676D01*
X3881524Y-2235676D02*
X3976762Y-2140438D01*
X3976762Y-2140438D02*
X4119619Y-2092819D01*
X4119619Y-2092819D02*
X4214857Y-2092819D01*
X4214857Y-2092819D02*
X4357714Y-2140438D01*
X4357714Y-2140438D02*
X4405333Y-2188057D01*
X5262476Y-2426152D02*
X5262476Y-3092819D01*
X5024381Y-2045200D02*
X4786286Y-2759485D01*
X4786286Y-2759485D02*
X5405333Y-2759485D01*
X7779676Y-10208619D02*
X8297771Y-10208619D01*
X8297771Y-10208619D02*
X8358723Y-10178142D01*
X8358723Y-10178142D02*
X8389200Y-10147666D01*
X8389200Y-10147666D02*
X8419676Y-10086714D01*
X8419676Y-10086714D02*
X8419676Y-9964809D01*
X8419676Y-9964809D02*
X8389200Y-9903857D01*
X8389200Y-9903857D02*
X8358723Y-9873380D01*
X8358723Y-9873380D02*
X8297771Y-9842904D01*
X8297771Y-9842904D02*
X7779676Y-9842904D01*
X8419676Y-9202904D02*
X8419676Y-9568619D01*
X8419676Y-9385762D02*
X7779676Y-9385762D01*
X7779676Y-9385762D02*
X7871104Y-9446714D01*
X7871104Y-9446714D02*
X7932057Y-9507666D01*
X7932057Y-9507666D02*
X7962533Y-9568619D01*
X7707333Y-4837580D02*
X7659714Y-4885200D01*
X7659714Y-4885200D02*
X7516857Y-4932819D01*
X7516857Y-4932819D02*
X7421619Y-4932819D01*
X7421619Y-4932819D02*
X7278762Y-4885200D01*
X7278762Y-4885200D02*
X7183524Y-4789961D01*
X7183524Y-4789961D02*
X7135905Y-4694723D01*
X7135905Y-4694723D02*
X7088286Y-4504247D01*
X7088286Y-4504247D02*
X7088286Y-4361390D01*
X7088286Y-4361390D02*
X7135905Y-4170914D01*
X7135905Y-4170914D02*
X7183524Y-4075676D01*
X7183524Y-4075676D02*
X7278762Y-3980438D01*
X7278762Y-3980438D02*
X7421619Y-3932819D01*
X7421619Y-3932819D02*
X7516857Y-3932819D01*
X7516857Y-3932819D02*
X7659714Y-3980438D01*
X7659714Y-3980438D02*
X7707333Y-4028057D01*
X8088286Y-4028057D02*
X8135905Y-3980438D01*
X8135905Y-3980438D02*
X8231143Y-3932819D01*
X8231143Y-3932819D02*
X8469238Y-3932819D01*
X8469238Y-3932819D02*
X8564476Y-3980438D01*
X8564476Y-3980438D02*
X8612095Y-4028057D01*
X8612095Y-4028057D02*
X8659714Y-4123295D01*
X8659714Y-4123295D02*
X8659714Y-4218533D01*
X8659714Y-4218533D02*
X8612095Y-4361390D01*
X8612095Y-4361390D02*
X8040667Y-4932819D01*
X8040667Y-4932819D02*
X8659714Y-4932819D01*
X4405333Y-5283580D02*
X4357714Y-5331200D01*
X4357714Y-5331200D02*
X4214857Y-5378819D01*
X4214857Y-5378819D02*
X4119619Y-5378819D01*
X4119619Y-5378819D02*
X3976762Y-5331200D01*
X3976762Y-5331200D02*
X3881524Y-5235961D01*
X3881524Y-5235961D02*
X3833905Y-5140723D01*
X3833905Y-5140723D02*
X3786286Y-4950247D01*
X3786286Y-4950247D02*
X3786286Y-4807390D01*
X3786286Y-4807390D02*
X3833905Y-4616914D01*
X3833905Y-4616914D02*
X3881524Y-4521676D01*
X3881524Y-4521676D02*
X3976762Y-4426438D01*
X3976762Y-4426438D02*
X4119619Y-4378819D01*
X4119619Y-4378819D02*
X4214857Y-4378819D01*
X4214857Y-4378819D02*
X4357714Y-4426438D01*
X4357714Y-4426438D02*
X4405333Y-4474057D01*
X4738667Y-4378819D02*
X5357714Y-4378819D01*
X5357714Y-4378819D02*
X5024381Y-4759771D01*
X5024381Y-4759771D02*
X5167238Y-4759771D01*
X5167238Y-4759771D02*
X5262476Y-4807390D01*
X5262476Y-4807390D02*
X5310095Y-4855009D01*
X5310095Y-4855009D02*
X5357714Y-4950247D01*
X5357714Y-4950247D02*
X5357714Y-5188342D01*
X5357714Y-5188342D02*
X5310095Y-5283580D01*
X5310095Y-5283580D02*
X5262476Y-5331200D01*
X5262476Y-5331200D02*
X5167238Y-5378819D01*
X5167238Y-5378819D02*
X4881524Y-5378819D01*
X4881524Y-5378819D02*
X4786286Y-5331200D01*
X4786286Y-5331200D02*
X4738667Y-5283580D01*
X7707333Y-3850819D02*
X7374000Y-3374628D01*
X7135905Y-3850819D02*
X7135905Y-2850819D01*
X7135905Y-2850819D02*
X7516857Y-2850819D01*
X7516857Y-2850819D02*
X7612095Y-2898438D01*
X7612095Y-2898438D02*
X7659714Y-2946057D01*
X7659714Y-2946057D02*
X7707333Y-3041295D01*
X7707333Y-3041295D02*
X7707333Y-3184152D01*
X7707333Y-3184152D02*
X7659714Y-3279390D01*
X7659714Y-3279390D02*
X7612095Y-3327009D01*
X7612095Y-3327009D02*
X7516857Y-3374628D01*
X7516857Y-3374628D02*
X7135905Y-3374628D01*
X8659714Y-3850819D02*
X8088286Y-3850819D01*
X8374000Y-3850819D02*
X8374000Y-2850819D01*
X8374000Y-2850819D02*
X8278762Y-2993676D01*
X8278762Y-2993676D02*
X8183524Y-3088914D01*
X8183524Y-3088914D02*
X8088286Y-3136533D01*
X2326819Y-12866666D02*
X1850628Y-13199999D01*
X2326819Y-13438094D02*
X1326819Y-13438094D01*
X1326819Y-13438094D02*
X1326819Y-13057142D01*
X1326819Y-13057142D02*
X1374438Y-12961904D01*
X1374438Y-12961904D02*
X1422057Y-12914285D01*
X1422057Y-12914285D02*
X1517295Y-12866666D01*
X1517295Y-12866666D02*
X1660152Y-12866666D01*
X1660152Y-12866666D02*
X1755390Y-12914285D01*
X1755390Y-12914285D02*
X1803009Y-12961904D01*
X1803009Y-12961904D02*
X1850628Y-13057142D01*
X1850628Y-13057142D02*
X1850628Y-13438094D01*
X1326819Y-12533332D02*
X1326819Y-11914285D01*
X1326819Y-11914285D02*
X1707771Y-12247618D01*
X1707771Y-12247618D02*
X1707771Y-12104761D01*
X1707771Y-12104761D02*
X1755390Y-12009523D01*
X1755390Y-12009523D02*
X1803009Y-11961904D01*
X1803009Y-11961904D02*
X1898247Y-11914285D01*
X1898247Y-11914285D02*
X2136342Y-11914285D01*
X2136342Y-11914285D02*
X2231580Y-11961904D01*
X2231580Y-11961904D02*
X2279200Y-12009523D01*
X2279200Y-12009523D02*
X2326819Y-12104761D01*
X2326819Y-12104761D02*
X2326819Y-12390475D01*
X2326819Y-12390475D02*
X2279200Y-12485713D01*
X2279200Y-12485713D02*
X2231580Y-12533332D01*
D12*
X4065014Y-13983616D02*
X4065014Y-14171092D01*
X4065014Y-14171092D02*
X3671313Y-14171092D01*
X4065014Y-13646158D02*
X4065014Y-13871130D01*
X4065014Y-13758644D02*
X3671313Y-13758644D01*
X3671313Y-13758644D02*
X3727556Y-13796139D01*
X3727556Y-13796139D02*
X3765052Y-13833635D01*
X3765052Y-13833635D02*
X3783799Y-13871130D01*
D13*
%TO.C,R2*%
X7636742Y-6081500D02*
X8111258Y-6081500D01*
X7636742Y-7126500D02*
X8111258Y-7126500D01*
%TO.C,D1*%
X1944000Y-11008000D02*
X3644000Y-11008000D01*
X1944000Y-11008000D02*
X1944000Y-8348000D01*
X3644000Y-11008000D02*
X3644000Y-8348000D01*
%TO.C,G\u002A\u002A\u002A*%
G36*
X16288141Y-11354667D02*
G01*
X16288141Y-11628000D01*
X15748000Y-11628000D01*
X15207858Y-11628000D01*
X15207858Y-11511334D01*
X15207858Y-11394667D01*
X15631302Y-11394667D01*
X16054747Y-11394667D01*
X16054747Y-11238000D01*
X16054747Y-11081334D01*
X16171444Y-11081334D01*
X16288141Y-11081334D01*
X16288141Y-11354667D01*
G37*
G36*
X16288141Y-12958112D02*
G01*
X16288141Y-13154891D01*
X16213122Y-13100312D01*
X16183660Y-13078838D01*
X16156189Y-13058742D01*
X16133466Y-13042047D01*
X16118251Y-13030775D01*
X16116430Y-13029409D01*
X16094757Y-13013085D01*
X16094757Y-12887209D01*
X16094757Y-12761334D01*
X16191449Y-12761334D01*
X16288141Y-12761334D01*
X16288141Y-12958112D01*
G37*
G36*
X16558774Y-15760242D02*
G01*
X16570741Y-15768948D01*
X16584917Y-15788273D01*
X16592491Y-15813125D01*
X16592326Y-15837926D01*
X16587555Y-15851334D01*
X16572173Y-15870306D01*
X16551638Y-15879551D01*
X16531163Y-15881334D01*
X16501048Y-15876936D01*
X16480776Y-15863586D01*
X16470100Y-15841048D01*
X16468189Y-15821589D01*
X16471730Y-15791612D01*
X16483206Y-15771654D01*
X16503894Y-15760178D01*
X16522246Y-15756610D01*
X16543690Y-15755737D01*
X16558774Y-15760242D01*
G37*
G36*
X15590714Y-12979336D02*
G01*
X15599120Y-12984933D01*
X15616232Y-12996937D01*
X15639990Y-13013883D01*
X15668334Y-13034306D01*
X15687211Y-13048000D01*
X15774284Y-13111334D01*
X15774479Y-13239667D01*
X15774673Y-13368000D01*
X15677981Y-13368000D01*
X15581289Y-13368000D01*
X15581289Y-13171003D01*
X15581367Y-13113896D01*
X15581641Y-13068837D01*
X15582175Y-13034539D01*
X15583032Y-13009718D01*
X15584276Y-12993087D01*
X15585969Y-12983361D01*
X15588175Y-12979255D01*
X15590714Y-12979336D01*
G37*
G36*
X15239533Y-14312503D02*
G01*
X15251806Y-14319738D01*
X15274184Y-14333040D01*
X15305335Y-14351614D01*
X15343929Y-14374665D01*
X15388636Y-14401397D01*
X15438124Y-14431016D01*
X15491064Y-14462726D01*
X15530088Y-14486117D01*
X15788969Y-14641334D01*
X16038555Y-14641334D01*
X16288141Y-14641334D01*
X16288141Y-14754667D01*
X16288141Y-14868000D01*
X16035713Y-14868000D01*
X15783285Y-14868000D01*
X15495571Y-14693098D01*
X15207858Y-14518196D01*
X15207858Y-14406151D01*
X15207858Y-14294105D01*
X15239533Y-14312503D01*
G37*
G36*
X15592642Y-12711823D02*
G01*
X15608650Y-12722851D01*
X15633595Y-12740429D01*
X15666559Y-12763899D01*
X15706627Y-12792603D01*
X15752881Y-12825885D01*
X15804405Y-12863086D01*
X15860282Y-12903550D01*
X15919595Y-12946620D01*
X15938247Y-12960187D01*
X16284807Y-13212374D01*
X16286647Y-13317467D01*
X16286930Y-13352976D01*
X16286523Y-13383068D01*
X16285507Y-13405561D01*
X16283965Y-13418272D01*
X16282770Y-13420280D01*
X16276523Y-13416059D01*
X16260419Y-13404643D01*
X16235373Y-13386697D01*
X16202305Y-13362882D01*
X16162131Y-13333863D01*
X16115768Y-13300301D01*
X16064135Y-13262860D01*
X16008148Y-13222203D01*
X15948726Y-13178993D01*
X15929172Y-13164762D01*
X15581289Y-12911523D01*
X15581289Y-12809762D01*
X15581610Y-12774637D01*
X15582496Y-12744759D01*
X15583829Y-12722413D01*
X15585494Y-12709882D01*
X15586488Y-12708000D01*
X15592642Y-12711823D01*
G37*
G36*
X15616719Y-14825621D02*
G01*
X15649235Y-14845433D01*
X15678403Y-14863315D01*
X15702023Y-14877909D01*
X15717898Y-14887860D01*
X15723087Y-14891241D01*
X15724765Y-14893905D01*
X15722997Y-14898001D01*
X15716877Y-14904129D01*
X15705500Y-14912886D01*
X15687963Y-14924871D01*
X15663360Y-14940684D01*
X15630787Y-14960921D01*
X15589339Y-14986183D01*
X15538112Y-15017067D01*
X15483024Y-15050090D01*
X15430087Y-15081710D01*
X15380408Y-15111271D01*
X15335210Y-15138053D01*
X15295719Y-15161334D01*
X15263160Y-15180395D01*
X15238758Y-15194513D01*
X15223738Y-15202969D01*
X15219528Y-15205110D01*
X15215467Y-15205783D01*
X15212472Y-15203239D01*
X15210382Y-15195796D01*
X15209037Y-15181767D01*
X15208275Y-15159471D01*
X15207936Y-15127221D01*
X15207858Y-15083334D01*
X15207858Y-15082984D01*
X15207858Y-14956542D01*
X15364987Y-14862344D01*
X15522115Y-14768147D01*
X15616719Y-14825621D01*
G37*
G36*
X15653531Y-13705308D02*
G01*
X15668295Y-13713701D01*
X15688504Y-13730650D01*
X15716161Y-13756318D01*
X15723765Y-13763453D01*
X15796172Y-13831334D01*
X15778754Y-13863993D01*
X15764298Y-13903152D01*
X15761778Y-13941486D01*
X15769799Y-13977788D01*
X15786966Y-14010849D01*
X15811884Y-14039463D01*
X15843157Y-14062423D01*
X15879391Y-14078520D01*
X15919190Y-14086548D01*
X15961159Y-14085299D01*
X16003902Y-14073565D01*
X16015137Y-14068567D01*
X16041042Y-14056055D01*
X16102909Y-14112635D01*
X16128140Y-14135778D01*
X16151119Y-14156977D01*
X16169311Y-14173887D01*
X16180183Y-14184163D01*
X16180190Y-14184170D01*
X16195605Y-14199125D01*
X16173522Y-14215477D01*
X16121418Y-14249508D01*
X16070085Y-14272771D01*
X16015227Y-14286810D01*
X15957977Y-14292904D01*
X15884138Y-14291259D01*
X15816909Y-14278110D01*
X15755961Y-14253340D01*
X15700965Y-14216832D01*
X15672801Y-14191372D01*
X15632028Y-14141490D01*
X15600993Y-14084341D01*
X15580015Y-14022095D01*
X15569410Y-13956920D01*
X15569496Y-13890987D01*
X15580589Y-13826466D01*
X15603008Y-13765527D01*
X15608860Y-13753993D01*
X15621876Y-13729813D01*
X15632324Y-13713529D01*
X15642208Y-13705306D01*
X15653531Y-13705308D01*
G37*
G36*
X15646230Y-11985396D02*
G01*
X15656482Y-11991833D01*
X15671641Y-12004241D01*
X15693247Y-12023614D01*
X15722837Y-12050950D01*
X15727858Y-12055612D01*
X15789899Y-12113223D01*
X15775618Y-12142716D01*
X15762728Y-12182554D01*
X15761799Y-12221372D01*
X15771457Y-12257876D01*
X15790328Y-12290773D01*
X15817039Y-12318768D01*
X15850217Y-12340567D01*
X15888488Y-12354876D01*
X15930478Y-12360401D01*
X15974815Y-12355848D01*
X15995626Y-12350010D01*
X16033196Y-12337258D01*
X16107322Y-12406584D01*
X16133022Y-12430900D01*
X16154856Y-12452091D01*
X16171135Y-12468475D01*
X16180171Y-12478373D01*
X16181447Y-12480395D01*
X16176310Y-12486137D01*
X16162976Y-12496491D01*
X16147973Y-12506789D01*
X16123370Y-12521116D01*
X16093407Y-12536117D01*
X16069619Y-12546466D01*
X16049385Y-12553971D01*
X16031228Y-12559035D01*
X16011639Y-12562138D01*
X15987114Y-12563759D01*
X15954146Y-12564378D01*
X15938050Y-12564451D01*
X15882145Y-12562801D01*
X15835767Y-12556996D01*
X15795528Y-12546220D01*
X15758042Y-12529653D01*
X15732673Y-12514839D01*
X15681886Y-12475027D01*
X15639771Y-12426480D01*
X15606834Y-12371005D01*
X15583581Y-12310407D01*
X15570516Y-12246493D01*
X15568146Y-12181068D01*
X15576975Y-12115938D01*
X15597508Y-12052909D01*
X15601154Y-12044768D01*
X15612340Y-12021881D01*
X15622867Y-12002430D01*
X15629540Y-11991937D01*
X15634298Y-11986444D01*
X15639348Y-11983931D01*
X15646230Y-11985396D01*
G37*
G36*
X15975800Y-11843104D02*
G01*
X16017164Y-11847773D01*
X16036580Y-11851810D01*
X16098030Y-11874067D01*
X16154247Y-11906869D01*
X16203650Y-11948642D01*
X16244654Y-11997810D01*
X16275679Y-12052798D01*
X16294280Y-12108186D01*
X16298791Y-12138997D01*
X16300818Y-12178097D01*
X16300477Y-12220883D01*
X16297889Y-12262753D01*
X16293170Y-12299103D01*
X16288898Y-12318000D01*
X16271850Y-12366369D01*
X16250423Y-12406938D01*
X16236790Y-12426612D01*
X16220355Y-12448556D01*
X16192565Y-12423747D01*
X16175006Y-12407892D01*
X16151659Y-12386570D01*
X16126491Y-12363409D01*
X16115951Y-12353653D01*
X16067125Y-12308367D01*
X16083450Y-12286517D01*
X16103720Y-12249497D01*
X16111819Y-12210821D01*
X16108455Y-12172291D01*
X16094339Y-12135705D01*
X16070180Y-12102864D01*
X16036686Y-12075568D01*
X15994569Y-12055617D01*
X15992121Y-12054803D01*
X15960657Y-12049170D01*
X15923550Y-12049360D01*
X15886479Y-12054845D01*
X15855122Y-12065099D01*
X15849383Y-12068039D01*
X15822175Y-12083327D01*
X15748411Y-12014750D01*
X15722779Y-11990764D01*
X15701017Y-11970098D01*
X15684818Y-11954385D01*
X15675872Y-11945254D01*
X15674647Y-11943660D01*
X15679079Y-11938049D01*
X15690257Y-11926833D01*
X15696319Y-11921135D01*
X15719725Y-11903694D01*
X15751612Y-11885433D01*
X15787468Y-11868528D01*
X15822780Y-11855154D01*
X15846687Y-11848647D01*
X15885126Y-11843450D01*
X15929976Y-11841633D01*
X15975800Y-11843104D01*
G37*
G36*
X15995493Y-13571207D02*
G01*
X16030965Y-13576546D01*
X16036721Y-13577928D01*
X16100689Y-13601233D01*
X16158498Y-13636305D01*
X16201461Y-13673897D01*
X16239868Y-13717705D01*
X16267963Y-13761962D01*
X16286810Y-13809450D01*
X16297472Y-13862950D01*
X16301012Y-13925246D01*
X16301003Y-13934401D01*
X16298588Y-13987835D01*
X16292269Y-14031196D01*
X16288875Y-14044667D01*
X16278611Y-14074747D01*
X16266040Y-14103982D01*
X16252614Y-14129717D01*
X16239781Y-14149297D01*
X16228992Y-14160068D01*
X16225159Y-14161334D01*
X16218832Y-14157019D01*
X16204643Y-14145141D01*
X16184420Y-14127293D01*
X16159990Y-14105074D01*
X16147749Y-14093737D01*
X16075170Y-14026139D01*
X16087372Y-14008737D01*
X16105907Y-13971644D01*
X16112252Y-13932431D01*
X16106892Y-13893132D01*
X16090311Y-13855779D01*
X16062993Y-13822405D01*
X16038336Y-13802891D01*
X16001986Y-13785629D01*
X15959777Y-13776350D01*
X15916105Y-13775337D01*
X15875369Y-13782872D01*
X15855072Y-13791138D01*
X15847360Y-13795148D01*
X15840810Y-13797408D01*
X15833896Y-13796917D01*
X15825093Y-13792674D01*
X15812872Y-13783677D01*
X15795710Y-13768925D01*
X15772078Y-13747416D01*
X15740452Y-13718150D01*
X15732241Y-13710544D01*
X15679806Y-13661992D01*
X15698899Y-13645002D01*
X15722457Y-13627945D01*
X15754390Y-13610035D01*
X15790110Y-13593537D01*
X15825024Y-13580716D01*
X15834992Y-13577836D01*
X15867976Y-13571977D01*
X15909031Y-13568921D01*
X15953193Y-13568665D01*
X15995493Y-13571207D01*
G37*
G36*
X15984784Y-9210696D02*
G01*
X16028842Y-9217580D01*
X16084814Y-9234880D01*
X16139120Y-9261784D01*
X16189122Y-9296352D01*
X16232182Y-9336642D01*
X16265661Y-9380715D01*
X16275957Y-9399329D01*
X16292716Y-9445727D01*
X16300475Y-9496047D01*
X16298909Y-9545841D01*
X16289528Y-9585784D01*
X16277327Y-9613844D01*
X16260126Y-9641931D01*
X16235960Y-9672908D01*
X16209077Y-9703000D01*
X16179622Y-9734667D01*
X16233882Y-9734667D01*
X16288141Y-9734667D01*
X16288141Y-9838000D01*
X16288141Y-9941334D01*
X15953219Y-9941334D01*
X15741331Y-9941334D01*
X15194521Y-9941334D01*
X15194521Y-9838000D01*
X15194521Y-9734667D01*
X15435202Y-9734667D01*
X15675883Y-9734667D01*
X15644677Y-9699968D01*
X15607346Y-9649666D01*
X15582764Y-9596731D01*
X15579779Y-9583052D01*
X15782254Y-9583052D01*
X15782611Y-9592314D01*
X15786090Y-9621241D01*
X15793500Y-9643365D01*
X15805050Y-9662499D01*
X15833007Y-9691287D01*
X15868962Y-9711944D01*
X15910002Y-9724010D01*
X15953219Y-9727029D01*
X15995702Y-9720543D01*
X16034543Y-9704094D01*
X16041451Y-9699681D01*
X16072051Y-9672976D01*
X16094898Y-9641070D01*
X16107307Y-9607719D01*
X16107327Y-9607615D01*
X16110498Y-9586674D01*
X16110647Y-9568196D01*
X16107554Y-9546108D01*
X16104591Y-9531166D01*
X16096003Y-9512354D01*
X16079231Y-9490572D01*
X16057697Y-9469420D01*
X16034821Y-9452499D01*
X16024739Y-9447105D01*
X15992975Y-9437928D01*
X15954796Y-9434699D01*
X15915696Y-9437365D01*
X15881170Y-9445874D01*
X15874700Y-9448540D01*
X15834005Y-9472817D01*
X15804950Y-9503456D01*
X15787659Y-9540265D01*
X15782254Y-9583052D01*
X15579779Y-9583052D01*
X15570876Y-9542255D01*
X15571627Y-9487335D01*
X15584962Y-9433065D01*
X15610824Y-9380541D01*
X15649160Y-9330857D01*
X15664050Y-9315741D01*
X15717407Y-9273534D01*
X15778119Y-9241400D01*
X15844224Y-9219863D01*
X15913766Y-9209453D01*
X15984784Y-9210696D01*
G37*
G36*
X16288141Y-10291334D02*
G01*
X16288141Y-10394667D01*
X16231460Y-10394667D01*
X16205884Y-10395210D01*
X16186371Y-10396658D01*
X16175964Y-10398742D01*
X16175031Y-10399667D01*
X16180037Y-10406147D01*
X16192713Y-10417692D01*
X16205463Y-10428000D01*
X16241763Y-10462223D01*
X16271329Y-10502318D01*
X16290719Y-10543233D01*
X16298525Y-10579501D01*
X16300970Y-10622124D01*
X16298115Y-10665276D01*
X16290019Y-10703130D01*
X16289061Y-10706002D01*
X16264352Y-10757875D01*
X16229167Y-10803534D01*
X16185087Y-10842456D01*
X16133696Y-10874122D01*
X16076577Y-10898007D01*
X16015313Y-10913592D01*
X15951487Y-10920355D01*
X15950274Y-10920307D01*
X15886682Y-10917774D01*
X15822480Y-10905327D01*
X15760465Y-10882494D01*
X15757553Y-10881119D01*
X15719270Y-10858489D01*
X15680401Y-10827970D01*
X15644608Y-10792989D01*
X15615553Y-10756973D01*
X15602972Y-10736472D01*
X15579757Y-10680112D01*
X15569809Y-10624424D01*
X15572986Y-10571160D01*
X15781829Y-10571160D01*
X15787692Y-10597036D01*
X15799666Y-10618675D01*
X15820113Y-10642087D01*
X15845235Y-10663822D01*
X15871233Y-10680430D01*
X15886464Y-10686742D01*
X15915597Y-10692305D01*
X15950274Y-10694368D01*
X15984602Y-10692915D01*
X16012688Y-10687932D01*
X16015408Y-10687080D01*
X16053089Y-10668088D01*
X16081990Y-10640487D01*
X16101291Y-10606365D01*
X16110170Y-10567811D01*
X16107809Y-10526914D01*
X16094000Y-10486979D01*
X16070432Y-10454133D01*
X16037433Y-10428280D01*
X15997641Y-10410740D01*
X15953693Y-10402831D01*
X15926504Y-10403249D01*
X15883667Y-10412904D01*
X15846517Y-10432408D01*
X15816405Y-10459875D01*
X15794685Y-10493415D01*
X15782709Y-10531139D01*
X15781829Y-10571160D01*
X15572986Y-10571160D01*
X15573059Y-10569934D01*
X15589439Y-10517170D01*
X15618881Y-10466659D01*
X15641795Y-10438734D01*
X15657785Y-10420725D01*
X15669473Y-10406575D01*
X15674584Y-10399054D01*
X15674647Y-10398732D01*
X15668564Y-10396662D01*
X15652647Y-10395198D01*
X15631302Y-10394667D01*
X15587958Y-10394667D01*
X15587958Y-10291334D01*
X15587958Y-10188000D01*
X15938050Y-10188000D01*
X16288141Y-10188000D01*
X16288141Y-10291334D01*
G37*
G36*
X15717443Y-15698303D02*
G01*
X15802578Y-15710716D01*
X15885276Y-15731570D01*
X15953778Y-15756796D01*
X16020808Y-15791015D01*
X16087647Y-15834732D01*
X16151349Y-15885498D01*
X16208962Y-15940866D01*
X16257538Y-15998389D01*
X16275077Y-16023428D01*
X16304813Y-16068856D01*
X16308147Y-15941158D01*
X16309361Y-15896878D01*
X16310537Y-15863989D01*
X16311939Y-15840550D01*
X16313828Y-15824623D01*
X16316469Y-15814268D01*
X16320126Y-15807546D01*
X16325061Y-15802517D01*
X16327224Y-15800730D01*
X16349999Y-15789367D01*
X16373331Y-15791276D01*
X16386684Y-15798379D01*
X16392829Y-15803472D01*
X16396993Y-15810210D01*
X16399559Y-15821040D01*
X16400910Y-15838409D01*
X16401429Y-15864765D01*
X16401505Y-15892969D01*
X16401563Y-15927636D01*
X16401962Y-15950773D01*
X16403039Y-15964183D01*
X16405131Y-15969669D01*
X16408575Y-15969035D01*
X16413709Y-15964084D01*
X16414616Y-15963112D01*
X16429345Y-15950949D01*
X16441616Y-15944635D01*
X16459234Y-15945286D01*
X16477491Y-15955324D01*
X16491842Y-15971848D01*
X16495160Y-15978783D01*
X16496876Y-15989806D01*
X16498416Y-16012195D01*
X16499717Y-16043984D01*
X16500713Y-16083206D01*
X16501338Y-16127896D01*
X16501531Y-16171238D01*
X16501531Y-16346941D01*
X16521528Y-16351332D01*
X16532312Y-16354052D01*
X16540962Y-16357889D01*
X16547712Y-16364220D01*
X16552798Y-16374423D01*
X16556455Y-16389872D01*
X16558919Y-16411947D01*
X16560424Y-16442022D01*
X16561207Y-16481474D01*
X16561503Y-16531681D01*
X16561547Y-16585412D01*
X16561487Y-16643034D01*
X16561254Y-16688808D01*
X16560767Y-16724223D01*
X16559946Y-16750763D01*
X16558709Y-16769916D01*
X16556976Y-16783167D01*
X16554667Y-16792003D01*
X16551700Y-16797911D01*
X16549877Y-16800311D01*
X16529976Y-16815456D01*
X16507922Y-16817998D01*
X16486238Y-16807893D01*
X16477993Y-16800761D01*
X16472738Y-16793041D01*
X16469802Y-16781737D01*
X16468512Y-16763854D01*
X16468195Y-16736396D01*
X16468189Y-16727517D01*
X16468189Y-16661334D01*
X16450280Y-16661334D01*
X16432482Y-16656804D01*
X16416938Y-16646838D01*
X16401505Y-16632343D01*
X16401505Y-16853505D01*
X16401474Y-16913728D01*
X16401327Y-16962037D01*
X16400983Y-16999850D01*
X16400362Y-17028587D01*
X16399383Y-17049664D01*
X16397966Y-17064502D01*
X16396029Y-17074520D01*
X16393491Y-17081135D01*
X16390274Y-17085767D01*
X16388168Y-17088000D01*
X16368304Y-17099573D01*
X16345981Y-17098838D01*
X16327224Y-17088604D01*
X16321770Y-17083724D01*
X16317685Y-17077860D01*
X16314707Y-17069080D01*
X16312575Y-17055449D01*
X16311026Y-17035035D01*
X16309800Y-17005903D01*
X16308635Y-16966121D01*
X16308147Y-16947526D01*
X16304813Y-16819178D01*
X16273515Y-16866276D01*
X16217553Y-16938859D01*
X16151126Y-17004830D01*
X16076020Y-17062847D01*
X15994021Y-17111565D01*
X15906914Y-17149641D01*
X15888036Y-17156193D01*
X15859881Y-17164758D01*
X15829517Y-17172752D01*
X15799875Y-17179561D01*
X15773888Y-17184568D01*
X15754488Y-17187156D01*
X15744606Y-17186710D01*
X15744196Y-17186420D01*
X15747440Y-17181125D01*
X15758986Y-17170194D01*
X15776405Y-17155908D01*
X15777967Y-17154699D01*
X15836549Y-17101341D01*
X15888111Y-17037478D01*
X15931741Y-16964461D01*
X15966527Y-16883637D01*
X15971898Y-16868000D01*
X15978962Y-16845725D01*
X15984005Y-16826424D01*
X15987376Y-16807059D01*
X15989423Y-16784596D01*
X15990495Y-16755996D01*
X15990939Y-16718222D01*
X15991014Y-16701334D01*
X15990776Y-16653589D01*
X15989547Y-16616294D01*
X15987113Y-16586589D01*
X15983262Y-16561613D01*
X15979374Y-16544489D01*
X15972744Y-16520209D01*
X15966652Y-16500560D01*
X15962358Y-16489583D01*
X15962182Y-16489282D01*
X15957475Y-16486069D01*
X15947049Y-16484425D01*
X15929023Y-16484342D01*
X15923320Y-16484647D01*
X15901515Y-16485812D01*
X15862646Y-16488825D01*
X15862509Y-16488837D01*
X15828776Y-16492024D01*
X15800362Y-16495396D01*
X15779630Y-16498621D01*
X15768941Y-16501362D01*
X15768005Y-16502207D01*
X15771773Y-16509169D01*
X15782182Y-16524877D01*
X15797891Y-16547395D01*
X15817558Y-16574786D01*
X15831355Y-16593642D01*
X15852801Y-16622989D01*
X15871142Y-16648540D01*
X15885040Y-16668399D01*
X15893159Y-16680665D01*
X15894705Y-16683647D01*
X15889631Y-16681265D01*
X15875568Y-16672149D01*
X15854252Y-16657488D01*
X15827420Y-16638472D01*
X15803014Y-16620824D01*
X15711323Y-16553978D01*
X15710074Y-16560928D01*
X15706768Y-16579323D01*
X15705250Y-16591449D01*
X15702855Y-16615280D01*
X15699721Y-16649229D01*
X15695987Y-16691707D01*
X15691792Y-16741124D01*
X15687275Y-16795893D01*
X15682575Y-16854424D01*
X15681240Y-16871334D01*
X15676538Y-16929991D01*
X15671977Y-16984779D01*
X15667694Y-17034208D01*
X15663824Y-17076786D01*
X15660505Y-17111022D01*
X15657873Y-17135424D01*
X15656066Y-17148503D01*
X15655682Y-17150058D01*
X15654218Y-17146151D01*
X15651834Y-17130203D01*
X15648659Y-17103466D01*
X15644821Y-17067191D01*
X15640447Y-17022629D01*
X15635665Y-16971031D01*
X15630603Y-16913650D01*
X15626115Y-16860533D01*
X15620929Y-16798545D01*
X15619670Y-16783794D01*
X15615995Y-16740738D01*
X15611434Y-16688446D01*
X15607367Y-16643006D01*
X15603915Y-16605754D01*
X15601199Y-16578024D01*
X15599341Y-16561153D01*
X15598541Y-16556359D01*
X15592562Y-16559162D01*
X15577907Y-16568634D01*
X15556556Y-16583423D01*
X15530489Y-16602182D01*
X15520268Y-16609693D01*
X15481350Y-16638413D01*
X15452639Y-16659182D01*
X15433578Y-16671920D01*
X15423608Y-16676547D01*
X15422170Y-16672980D01*
X15428708Y-16661141D01*
X15442661Y-16640947D01*
X15463473Y-16612319D01*
X15470644Y-16602520D01*
X15492570Y-16572304D01*
X15511724Y-16545443D01*
X15526698Y-16523952D01*
X15536082Y-16509841D01*
X15538529Y-16505550D01*
X15536996Y-16501984D01*
X15528475Y-16498826D01*
X15511510Y-16495843D01*
X15484648Y-16492801D01*
X15446433Y-16489469D01*
X15429895Y-16488174D01*
X15390246Y-16485021D01*
X15353100Y-16481857D01*
X15321431Y-16478951D01*
X15298215Y-16476571D01*
X15289259Y-16475462D01*
X15260631Y-16471334D01*
X15292593Y-16440010D01*
X15324555Y-16408686D01*
X15427916Y-16400716D01*
X15463842Y-16397670D01*
X15495074Y-16394499D01*
X15519187Y-16391492D01*
X15533758Y-16388936D01*
X15536619Y-16387898D01*
X15768005Y-16387898D01*
X15773836Y-16392516D01*
X15788038Y-16394685D01*
X15789677Y-16394707D01*
X15806601Y-16395246D01*
X15831949Y-16396639D01*
X15860856Y-16398610D01*
X15867335Y-16399103D01*
X15923320Y-16403460D01*
X15896101Y-16364063D01*
X15879819Y-16341030D01*
X15864045Y-16319591D01*
X15853001Y-16305399D01*
X15837120Y-16286130D01*
X15802563Y-16333630D01*
X15787050Y-16355676D01*
X15775143Y-16373979D01*
X15768667Y-16385671D01*
X15768005Y-16387898D01*
X15536619Y-16387898D01*
X15536829Y-16387822D01*
X15535435Y-16380785D01*
X15527279Y-16365679D01*
X15513800Y-16344951D01*
X15501661Y-16327990D01*
X15482790Y-16301747D01*
X15471523Y-16283772D01*
X15466868Y-16272139D01*
X15467832Y-16264923D01*
X15468584Y-16263875D01*
X15478183Y-16255938D01*
X15482313Y-16254667D01*
X15489941Y-16258395D01*
X15505657Y-16268449D01*
X15526896Y-16283132D01*
X15543179Y-16294893D01*
X15597960Y-16335118D01*
X15602239Y-16306079D01*
X15604534Y-16286854D01*
X15607220Y-16258796D01*
X15609889Y-16226385D01*
X15611308Y-16206782D01*
X15612436Y-16190236D01*
X15696950Y-16190236D01*
X15697526Y-16207514D01*
X15699006Y-16231366D01*
X15701112Y-16258454D01*
X15703563Y-16285439D01*
X15706080Y-16308982D01*
X15708383Y-16325744D01*
X15710074Y-16332307D01*
X15716043Y-16329756D01*
X15729541Y-16321084D01*
X15747638Y-16308442D01*
X15767406Y-16293983D01*
X15785915Y-16279861D01*
X15800237Y-16268228D01*
X15807442Y-16261237D01*
X15807788Y-16260478D01*
X15803001Y-16254622D01*
X15790252Y-16243366D01*
X15773006Y-16229693D01*
X15739862Y-16205261D01*
X15716319Y-16189640D01*
X15702114Y-16182669D01*
X15697559Y-16182872D01*
X15696950Y-16190236D01*
X15612436Y-16190236D01*
X15616098Y-16136523D01*
X15560350Y-16120771D01*
X15535330Y-16114271D01*
X15519968Y-16111334D01*
X15619670Y-16111334D01*
X15651088Y-16081334D01*
X15682507Y-16051334D01*
X15678771Y-16011334D01*
X15676918Y-15990212D01*
X15674367Y-15959377D01*
X15671407Y-15922413D01*
X15668328Y-15882905D01*
X15667189Y-15868000D01*
X15664212Y-15831800D01*
X15661170Y-15800018D01*
X15658335Y-15775165D01*
X15655981Y-15759752D01*
X15655010Y-15756244D01*
X15653277Y-15760087D01*
X15650797Y-15775486D01*
X15647771Y-15800695D01*
X15644397Y-15833971D01*
X15640874Y-15873569D01*
X15639036Y-15896244D01*
X15635422Y-15941608D01*
X15631901Y-15984514D01*
X15628683Y-16022472D01*
X15625983Y-16052993D01*
X15624012Y-16073584D01*
X15623533Y-16078000D01*
X15619670Y-16111334D01*
X15519968Y-16111334D01*
X15511950Y-16109801D01*
X15486693Y-16107003D01*
X15456040Y-16105522D01*
X15416472Y-16104999D01*
X15404576Y-16104977D01*
X15361924Y-16105290D01*
X15329190Y-16106492D01*
X15302968Y-16108917D01*
X15279851Y-16112897D01*
X15256432Y-16118767D01*
X15252613Y-16119851D01*
X15169432Y-16149910D01*
X15092357Y-16190163D01*
X15022959Y-16239571D01*
X14962812Y-16297093D01*
X14936456Y-16328890D01*
X14923272Y-16345434D01*
X14913561Y-16356244D01*
X14909795Y-16358905D01*
X14909410Y-16350907D01*
X14911962Y-16333042D01*
X14916782Y-16308283D01*
X14923204Y-16279600D01*
X14930563Y-16249964D01*
X14938190Y-16222348D01*
X14945419Y-16199722D01*
X14945676Y-16199003D01*
X14986079Y-16105459D01*
X15036871Y-16019875D01*
X15097321Y-15942847D01*
X15166698Y-15874974D01*
X15244272Y-15816853D01*
X15329311Y-15769082D01*
X15421085Y-15732257D01*
X15518863Y-15706978D01*
X15554853Y-15700897D01*
X15633620Y-15694855D01*
X15717443Y-15698303D01*
G37*
%TO.C,C1*%
X7627252Y-16991000D02*
X7104748Y-16991000D01*
X7627252Y-15521000D02*
X7104748Y-15521000D01*
%TO.C,C4*%
X4310748Y-3583000D02*
X4833252Y-3583000D01*
X4310748Y-5053000D02*
X4833252Y-5053000D01*
D14*
%TO.C,U1*%
X7548000Y-8429000D02*
X7548000Y-10429000D01*
X5128000Y-8429000D02*
X5128000Y-10429000D01*
D15*
X7188000Y-7504000D02*
G75*
G03*
X7188000Y-7504000I-100000J0D01*
G01*
D13*
%TO.C,C2*%
X8014580Y-3558000D02*
X7733420Y-3558000D01*
X8014580Y-2538000D02*
X7733420Y-2538000D01*
%TO.C,C3*%
X4310748Y-5869000D02*
X4833252Y-5869000D01*
X4310748Y-7339000D02*
X4833252Y-7339000D01*
%TO.C,R1*%
X7636742Y-4303500D02*
X8111258Y-4303500D01*
X7636742Y-5348500D02*
X8111258Y-5348500D01*
%TO.C,R3*%
X2779500Y-12937258D02*
X2779500Y-12462742D01*
X3824500Y-12937258D02*
X3824500Y-12462742D01*
D14*
%TO.C,L1*%
X4488000Y-13358000D02*
X4488000Y-13058000D01*
X6688000Y-13358000D02*
X6688000Y-13058000D01*
%TD*%
%LPC*%
D16*
%TO.C,R2*%
X7049000Y-6604000D03*
X8699000Y-6604000D03*
%TD*%
D17*
%TO.C,M2.5*%
X13716000Y-4064000D03*
%TD*%
D18*
%TO.C,J1*%
X4353000Y-16283000D03*
X1813000Y-16283000D03*
%TD*%
D19*
%TO.C,D1*%
X2794000Y-10448000D03*
X2794000Y-8348000D03*
%TD*%
D20*
%TO.C,C1*%
X8316000Y-16256000D03*
X6416000Y-16256000D03*
%TD*%
D21*
%TO.C,C4*%
X3622000Y-4318000D03*
X5522000Y-4318000D03*
%TD*%
D22*
%TO.C,U1*%
X7088000Y-8444000D03*
X6588000Y-8444000D03*
X6088000Y-8444000D03*
X5588000Y-8444000D03*
X5588000Y-10414000D03*
X6088000Y-10414000D03*
X6588000Y-10414000D03*
X7088000Y-10414000D03*
D23*
X6338000Y-9429000D03*
%TD*%
D18*
%TO.C,J2*%
X1813000Y-2059000D03*
X4353000Y-2059000D03*
%TD*%
D24*
%TO.C,C2*%
X8649000Y-3048000D03*
X7099000Y-3048000D03*
%TD*%
D21*
%TO.C,C3*%
X3622000Y-6604000D03*
X5522000Y-6604000D03*
%TD*%
D16*
%TO.C,R1*%
X7049000Y-4826000D03*
X8699000Y-4826000D03*
%TD*%
D25*
%TO.C,R3*%
X3302000Y-13525000D03*
X3302000Y-11875000D03*
%TD*%
D26*
%TO.C,L1*%
X5588000Y-14298000D03*
X5588000Y-12118000D03*
%TD*%
%LPD*%
M02*
