%TF.GenerationSoftware,KiCad,Pcbnew,7.0.8*%
%TF.CreationDate,2024-11-10T19:07:09+09:00*%
%TF.ProjectId,Ni-MH_3.3V-Module,4e692d4d-485f-4332-9e33-562d4d6f6475,rev?*%
%TF.SameCoordinates,Original*%
%TF.FileFunction,Copper,L2,Bot*%
%TF.FilePolarity,Positive*%
%FSLAX46Y46*%
G04 Gerber Fmt 4.6, Leading zero omitted, Abs format (unit mm)*
G04 Created by KiCad (PCBNEW 7.0.8) date 2024-11-10 19:07:09*
%MOMM*%
%LPD*%
G01*
G04 APERTURE LIST*
%TA.AperFunction,ComponentPad*%
%ADD10C,1.700000*%
%TD*%
%TA.AperFunction,ComponentPad*%
%ADD11C,0.400000*%
%TD*%
G04 APERTURE END LIST*
D10*
%TO.P,J1,1,Pin_1*%
%TO.N,1.2V*%
X4353000Y-16283000D03*
%TO.P,J1,2,Pin_2*%
%TO.N,Net-(D1-K)*%
X1813000Y-16283000D03*
%TD*%
D11*
%TO.P,U1,9_1*%
%TO.N,N/C*%
X6888000Y-9429000D03*
%TO.P,U1,9_2*%
X5788000Y-9429000D03*
%TD*%
D10*
%TO.P,J2,1,Pin_1*%
%TO.N,AGND*%
X1813000Y-2059000D03*
%TO.P,J2,2,Pin_2*%
%TO.N,3.3V*%
X4353000Y-2059000D03*
%TD*%
%TA.AperFunction,Conductor*%
%TO.N,AGND*%
G36*
X16271677Y-527685D02*
G01*
X16292319Y-544319D01*
X17235681Y-1487681D01*
X17269166Y-1549004D01*
X17272000Y-1575362D01*
X17272000Y-16712638D01*
X17252315Y-16779677D01*
X17235681Y-16800319D01*
X16292319Y-17743681D01*
X16230996Y-17777166D01*
X16204638Y-17780000D01*
X4897557Y-17780000D01*
X4830518Y-17760315D01*
X4784763Y-17707511D01*
X4774819Y-17638353D01*
X4803844Y-17574797D01*
X4845150Y-17543618D01*
X5030830Y-17457035D01*
X5224401Y-17321495D01*
X5391495Y-17154401D01*
X5527035Y-16960830D01*
X5626903Y-16746663D01*
X5688063Y-16518408D01*
X5708659Y-16283000D01*
X5688063Y-16047592D01*
X5626903Y-15819337D01*
X5527035Y-15605171D01*
X5521425Y-15597158D01*
X5391494Y-15411597D01*
X5224402Y-15244506D01*
X5224395Y-15244501D01*
X5030834Y-15108967D01*
X5030830Y-15108965D01*
X5030828Y-15108964D01*
X4816663Y-15009097D01*
X4816659Y-15009096D01*
X4816655Y-15009094D01*
X4588413Y-14947938D01*
X4588403Y-14947936D01*
X4353001Y-14927341D01*
X4352999Y-14927341D01*
X4117596Y-14947936D01*
X4117586Y-14947938D01*
X3889344Y-15009094D01*
X3889335Y-15009098D01*
X3675171Y-15108964D01*
X3675169Y-15108965D01*
X3481597Y-15244505D01*
X3314505Y-15411597D01*
X3184575Y-15597158D01*
X3129998Y-15640783D01*
X3060500Y-15647977D01*
X2998145Y-15616454D01*
X2981425Y-15597158D01*
X2851494Y-15411597D01*
X2684402Y-15244506D01*
X2684395Y-15244501D01*
X2490834Y-15108967D01*
X2490830Y-15108965D01*
X2490828Y-15108964D01*
X2276663Y-15009097D01*
X2276659Y-15009096D01*
X2276655Y-15009094D01*
X2048413Y-14947938D01*
X2048403Y-14947936D01*
X1813001Y-14927341D01*
X1812999Y-14927341D01*
X1577596Y-14947936D01*
X1577586Y-14947938D01*
X1349344Y-15009094D01*
X1349335Y-15009098D01*
X1135171Y-15108964D01*
X1135169Y-15108965D01*
X941597Y-15244505D01*
X774508Y-15411594D01*
X733575Y-15470053D01*
X678998Y-15513678D01*
X609499Y-15520870D01*
X547145Y-15489348D01*
X511731Y-15429118D01*
X508000Y-15398929D01*
X508000Y-9429000D01*
X5082355Y-9429000D01*
X5102859Y-9597869D01*
X5102860Y-9597874D01*
X5163182Y-9756931D01*
X5225475Y-9847177D01*
X5259817Y-9896929D01*
X5320227Y-9950447D01*
X5387150Y-10009736D01*
X5537773Y-10088789D01*
X5537775Y-10088790D01*
X5702944Y-10129500D01*
X5873056Y-10129500D01*
X6038225Y-10088790D01*
X6188852Y-10009734D01*
X6255775Y-9950445D01*
X6319005Y-9920725D01*
X6388269Y-9929908D01*
X6420222Y-9950443D01*
X6487148Y-10009734D01*
X6637775Y-10088790D01*
X6802944Y-10129500D01*
X6973056Y-10129500D01*
X7138225Y-10088790D01*
X7217692Y-10047081D01*
X7288849Y-10009736D01*
X7288850Y-10009734D01*
X7288852Y-10009734D01*
X7416183Y-9896929D01*
X7512818Y-9756930D01*
X7573140Y-9597872D01*
X7593645Y-9429000D01*
X7573140Y-9260128D01*
X7512818Y-9101070D01*
X7416183Y-8961071D01*
X7288852Y-8848266D01*
X7288849Y-8848263D01*
X7138226Y-8769210D01*
X6973056Y-8728500D01*
X6802944Y-8728500D01*
X6637773Y-8769210D01*
X6487150Y-8848263D01*
X6420227Y-8907553D01*
X6356994Y-8937274D01*
X6287730Y-8928090D01*
X6255773Y-8907553D01*
X6188849Y-8848263D01*
X6038226Y-8769210D01*
X5873056Y-8728500D01*
X5702944Y-8728500D01*
X5537773Y-8769210D01*
X5387150Y-8848263D01*
X5259816Y-8961072D01*
X5163182Y-9101068D01*
X5102860Y-9260125D01*
X5102859Y-9260130D01*
X5082355Y-9429000D01*
X508000Y-9429000D01*
X508000Y-4064000D01*
X12110551Y-4064000D01*
X12130317Y-4315151D01*
X12189126Y-4560110D01*
X12285533Y-4792859D01*
X12417160Y-5007653D01*
X12417161Y-5007656D01*
X12417164Y-5007659D01*
X12580776Y-5199224D01*
X12729066Y-5325875D01*
X12772343Y-5362838D01*
X12772346Y-5362839D01*
X12987140Y-5494466D01*
X13219889Y-5590873D01*
X13464852Y-5649683D01*
X13620950Y-5661968D01*
X13653116Y-5664500D01*
X13653118Y-5664500D01*
X13778884Y-5664500D01*
X13808518Y-5662167D01*
X13967148Y-5649683D01*
X14212111Y-5590873D01*
X14444859Y-5494466D01*
X14659659Y-5362836D01*
X14851224Y-5199224D01*
X15014836Y-5007659D01*
X15146466Y-4792859D01*
X15242873Y-4560111D01*
X15301683Y-4315148D01*
X15321449Y-4064000D01*
X15301683Y-3812852D01*
X15242873Y-3567889D01*
X15146466Y-3335140D01*
X15014839Y-3120346D01*
X15014838Y-3120343D01*
X14860012Y-2939066D01*
X14851224Y-2928776D01*
X14718639Y-2815538D01*
X14659656Y-2765161D01*
X14659653Y-2765160D01*
X14444859Y-2633533D01*
X14212110Y-2537126D01*
X13967150Y-2478317D01*
X13778884Y-2463500D01*
X13778882Y-2463500D01*
X13653118Y-2463500D01*
X13653116Y-2463500D01*
X13464849Y-2478317D01*
X13219889Y-2537126D01*
X12987140Y-2633533D01*
X12772346Y-2765160D01*
X12772343Y-2765161D01*
X12580776Y-2928776D01*
X12417161Y-3120343D01*
X12417160Y-3120346D01*
X12285533Y-3335140D01*
X12189126Y-3567889D01*
X12130317Y-3812848D01*
X12110551Y-4064000D01*
X508000Y-4064000D01*
X508000Y-2939066D01*
X527685Y-2872027D01*
X580489Y-2826272D01*
X642808Y-2815538D01*
X698073Y-2820373D01*
X1329922Y-2188523D01*
X1353507Y-2268844D01*
X1431239Y-2389798D01*
X1539900Y-2483952D01*
X1670685Y-2543680D01*
X1680466Y-2545086D01*
X1051625Y-3173925D01*
X1135421Y-3232599D01*
X1349507Y-3332429D01*
X1349516Y-3332433D01*
X1577673Y-3393567D01*
X1577684Y-3393569D01*
X1812998Y-3414157D01*
X1813002Y-3414157D01*
X2048315Y-3393569D01*
X2048326Y-3393567D01*
X2276483Y-3332433D01*
X2276492Y-3332429D01*
X2490578Y-3232600D01*
X2490582Y-3232598D01*
X2574373Y-3173926D01*
X2574373Y-3173925D01*
X1945533Y-2545086D01*
X1955315Y-2543680D01*
X2086100Y-2483952D01*
X2194761Y-2389798D01*
X2272493Y-2268844D01*
X2296076Y-2188524D01*
X2927925Y-2820373D01*
X2981119Y-2744405D01*
X3035696Y-2700781D01*
X3105195Y-2693588D01*
X3167549Y-2725110D01*
X3184269Y-2744405D01*
X3314505Y-2930401D01*
X3481599Y-3097495D01*
X3514234Y-3120346D01*
X3675165Y-3233032D01*
X3675167Y-3233033D01*
X3675170Y-3233035D01*
X3889337Y-3332903D01*
X3889343Y-3332904D01*
X3889344Y-3332905D01*
X3897689Y-3335141D01*
X4117592Y-3394063D01*
X4305918Y-3410539D01*
X4352999Y-3414659D01*
X4353000Y-3414659D01*
X4353001Y-3414659D01*
X4392234Y-3411226D01*
X4588408Y-3394063D01*
X4816663Y-3332903D01*
X5030830Y-3233035D01*
X5224401Y-3097495D01*
X5391495Y-2930401D01*
X5527035Y-2736830D01*
X5626903Y-2522663D01*
X5688063Y-2294408D01*
X5708659Y-2059000D01*
X5688063Y-1823592D01*
X5626903Y-1595337D01*
X5527035Y-1381171D01*
X5521731Y-1373595D01*
X5391494Y-1187597D01*
X5224402Y-1020506D01*
X5224395Y-1020501D01*
X5030834Y-884967D01*
X5030830Y-884965D01*
X5030828Y-884964D01*
X4816663Y-785097D01*
X4816659Y-785096D01*
X4816655Y-785094D01*
X4692303Y-751775D01*
X4632642Y-715410D01*
X4602113Y-652563D01*
X4610408Y-583188D01*
X4654893Y-529310D01*
X4721445Y-508035D01*
X4724396Y-508000D01*
X16204638Y-508000D01*
X16271677Y-527685D01*
G37*
%TD.AperFunction*%
%TA.AperFunction,Conductor*%
G36*
X4048643Y-527685D02*
G01*
X4094398Y-580489D01*
X4104342Y-649647D01*
X4075317Y-713203D01*
X4016539Y-750977D01*
X4013697Y-751775D01*
X3889344Y-785094D01*
X3889335Y-785098D01*
X3675171Y-884964D01*
X3675169Y-884965D01*
X3481597Y-1020505D01*
X3314505Y-1187597D01*
X3184269Y-1373595D01*
X3129692Y-1417220D01*
X3060194Y-1424414D01*
X2997839Y-1392891D01*
X2981119Y-1373595D01*
X2927925Y-1297626D01*
X2927925Y-1297625D01*
X2296076Y-1929475D01*
X2272493Y-1849156D01*
X2194761Y-1728202D01*
X2086100Y-1634048D01*
X1955315Y-1574320D01*
X1945532Y-1572913D01*
X2574373Y-944073D01*
X2574373Y-944072D01*
X2490583Y-885402D01*
X2490579Y-885400D01*
X2276492Y-785570D01*
X2276483Y-785566D01*
X2150371Y-751775D01*
X2090710Y-715410D01*
X2060181Y-652563D01*
X2068476Y-583187D01*
X2112961Y-529310D01*
X2179513Y-508035D01*
X2182464Y-508000D01*
X3981604Y-508000D01*
X4048643Y-527685D01*
G37*
%TD.AperFunction*%
%TD*%
M02*
