M48
; DRILL file {KiCad 7.0.8} date Sun Nov 10 19:24:17 2024
; FORMAT={-:-/ absolute / inch / decimal}
; #@! TF.CreationDate,2024-11-10T19:24:17+09:00
; #@! TF.GenerationSoftware,Kicad,Pcbnew,7.0.8
; #@! TF.FileFunction,Plated,1,2,PTH
FMAT,2
INCH
; #@! TA.AperFunction,Plated,PTH,ViaDrill
T1C0.0157
; #@! TA.AperFunction,Plated,PTH,ComponentDrill
T2C0.0300
; #@! TA.AperFunction,Plated,PTH,ComponentDrill
T3C0.0394
%
G90
G05
T1
X0.1Y-0.8
X0.2Y-0.05
X0.2Y-0.15
X0.3Y-1.1
X0.3Y-1.2
X0.35Y-0.05
X0.35Y-0.15
X0.4Y-1.0
X0.4Y-1.1
X0.4Y-1.2
X0.4143Y-0.43
X0.5Y-0.7
X0.5Y-0.8
X0.5Y-1.0
X0.5Y-1.1
X0.5Y-1.2
X0.52Y-0.43
X0.6Y-0.7
X0.6Y-0.8
X0.7Y-0.7
X0.7Y-0.8
X0.8Y-0.5
X0.8Y-0.6
X0.8Y-0.7
X0.8Y-0.8
X0.8Y-0.9
T2
X0.1Y-0.92
X0.2Y-0.52
X0.2Y-0.92
X0.3Y-0.52
X0.3Y-0.92
X0.4Y-0.52
X0.4Y-0.92
X0.5Y-0.52
X0.5Y-0.92
X0.6Y-0.52
X0.6Y-0.92
X0.7Y-0.92
T3
G00X0.64Y-0.38
M15
G01X0.64Y-0.38
M16
G05
G00X0.8Y-0.38
M15
G01X0.8Y-0.38
M16
G05
T0
M30
