%TF.GenerationSoftware,KiCad,Pcbnew,7.0.8*%
%TF.CreationDate,2024-11-10T19:24:17+09:00*%
%TF.ProjectId,LSM_Module_V0.1.0,4c534d5f-4d6f-4647-956c-655f56302e31,rev?*%
%TF.SameCoordinates,Original*%
%TF.FileFunction,Copper,L1,Top*%
%TF.FilePolarity,Positive*%
%FSLAX46Y46*%
G04 Gerber Fmt 4.6, Leading zero omitted, Abs format (unit mm)*
G04 Created by KiCad (PCBNEW 7.0.8) date 2024-11-10 19:24:17*
%MOMM*%
%LPD*%
G01*
G04 APERTURE LIST*
G04 Aperture macros list*
%AMRoundRect*
0 Rectangle with rounded corners*
0 $1 Rounding radius*
0 $2 $3 $4 $5 $6 $7 $8 $9 X,Y pos of 4 corners*
0 Add a 4 corners polygon primitive as box body*
4,1,4,$2,$3,$4,$5,$6,$7,$8,$9,$2,$3,0*
0 Add four circle primitives for the rounded corners*
1,1,$1+$1,$2,$3*
1,1,$1+$1,$4,$5*
1,1,$1+$1,$6,$7*
1,1,$1+$1,$8,$9*
0 Add four rect primitives between the rounded corners*
20,1,$1+$1,$2,$3,$4,$5,0*
20,1,$1+$1,$4,$5,$6,$7,0*
20,1,$1+$1,$6,$7,$8,$9,0*
20,1,$1+$1,$8,$9,$2,$3,0*%
G04 Aperture macros list end*
%TA.AperFunction,ComponentPad*%
%ADD10C,1.700000*%
%TD*%
%TA.AperFunction,SMDPad,CuDef*%
%ADD11RoundRect,0.250000X0.250000X1.500000X-0.250000X1.500000X-0.250000X-1.500000X0.250000X-1.500000X0*%
%TD*%
%TA.AperFunction,SMDPad,CuDef*%
%ADD12RoundRect,0.250001X0.499999X1.449999X-0.499999X1.449999X-0.499999X-1.449999X0.499999X-1.449999X0*%
%TD*%
%TA.AperFunction,ComponentPad*%
%ADD13C,1.524000*%
%TD*%
%TA.AperFunction,ViaPad*%
%ADD14C,0.800000*%
%TD*%
%TA.AperFunction,Conductor*%
%ADD15C,0.500000*%
%TD*%
G04 APERTURE END LIST*
D10*
%TO.P,J1,1,Pin_1*%
%TO.N,3.3V*%
X16256000Y-9652000D03*
%TD*%
D11*
%TO.P,J7,1,Pin_1*%
%TO.N,SCL*%
X10636000Y-8036000D03*
%TO.P,J7,2,Pin_2*%
%TO.N,GND*%
X8636000Y-8036000D03*
%TO.P,J7,3,Pin_3*%
%TO.N,3.3V*%
X6636000Y-8036000D03*
%TO.P,J7,4,Pin_4*%
%TO.N,SDA*%
X4636000Y-8036000D03*
D12*
%TO.P,J7,MP*%
%TO.N,N/C*%
X12986000Y-2286000D03*
X2286000Y-2286000D03*
%TD*%
D10*
%TO.P,J2,1,Pin_1*%
%TO.N,GND*%
X20320000Y-9652000D03*
%TD*%
D13*
%TO.P,U2,1,VIN*%
%TO.N,unconnected-(U2-VIN-Pad1)*%
X2540000Y-23368000D03*
%TO.P,U2,2,3V3*%
%TO.N,3.3V*%
X5080000Y-23368000D03*
%TO.P,U2,3,GND*%
%TO.N,GND*%
X7620000Y-23368000D03*
%TO.P,U2,4,SCL*%
%TO.N,SCL*%
X10160000Y-23368000D03*
%TO.P,U2,5,SDA*%
%TO.N,SDA*%
X12700000Y-23368000D03*
%TO.P,U2,6,CS*%
%TO.N,unconnected-(U2-CS-Pad6)*%
X15240000Y-23368000D03*
%TO.P,U2,7,SDO*%
%TO.N,unconnected-(U2-SDO-Pad7)*%
X17780000Y-23368000D03*
%TO.P,U2,8,OCS*%
%TO.N,unconnected-(U2-OCS-Pad8)*%
X5080000Y-13208000D03*
%TO.P,U2,9,INT2*%
%TO.N,unconnected-(U2-INT2-Pad9)*%
X7620000Y-13208000D03*
%TO.P,U2,10,INT1*%
%TO.N,unconnected-(U2-INT1-Pad10)*%
X10160000Y-13208000D03*
%TO.P,U2,11,SCX*%
%TO.N,unconnected-(U2-SCX-Pad11)*%
X12700000Y-13208000D03*
%TO.P,U2,12,SDX*%
%TO.N,unconnected-(U2-SDX-Pad12)*%
X15240000Y-13208000D03*
%TD*%
D14*
%TO.N,GND*%
X13208000Y-10922000D03*
X2540000Y-20320000D03*
X15240000Y-17780000D03*
X7620000Y-30480000D03*
X8890000Y-1270000D03*
X20320000Y-17780000D03*
X7620000Y-27940000D03*
X12700000Y-25400000D03*
X10160000Y-30480000D03*
X17780000Y-17780000D03*
X20320000Y-12700000D03*
X12700000Y-30480000D03*
X15240000Y-20320000D03*
X17780000Y-20320000D03*
X20320000Y-20320000D03*
X5080000Y-1270000D03*
X10160000Y-27940000D03*
X12700000Y-27940000D03*
X20320000Y-15240000D03*
X8890000Y-3810000D03*
X5080000Y-3810000D03*
X10522500Y-10922000D03*
X12700000Y-20320000D03*
X10160000Y-25400000D03*
X12700000Y-17780000D03*
X20320000Y-22860000D03*
%TD*%
D15*
%TO.N,SDA*%
X5168000Y-26250000D02*
X10647918Y-26250000D01*
X3868000Y-8804000D02*
X3868000Y-24950000D01*
X4636000Y-8036000D02*
X3868000Y-8804000D01*
X10647918Y-26250000D02*
X12700000Y-24197918D01*
X3868000Y-24950000D02*
X5168000Y-26250000D01*
X12700000Y-24197918D02*
X12700000Y-23368000D01*
%TO.N,SCL*%
X11372000Y-22156000D02*
X10160000Y-23368000D01*
X10636000Y-8036000D02*
X11372000Y-8772000D01*
X11372000Y-8772000D02*
X11372000Y-22156000D01*
%TO.N,3.3V*%
X6636000Y-6286000D02*
X6636000Y-8036000D01*
X16256000Y-9652000D02*
X12440000Y-5836000D01*
X7086000Y-5836000D02*
X6636000Y-6286000D01*
X12440000Y-5836000D02*
X7086000Y-5836000D01*
X6636000Y-8036000D02*
X6408000Y-8264000D01*
X6408000Y-22040000D02*
X5080000Y-23368000D01*
X6408000Y-8264000D02*
X6408000Y-22040000D01*
%TO.N,GND*%
X13462000Y-11176000D02*
X13208000Y-10922000D01*
X20320000Y-9652000D02*
X18796000Y-11176000D01*
X8832000Y-8232000D02*
X8832000Y-22156000D01*
X10522500Y-10922000D02*
X8636000Y-9035500D01*
X8832000Y-22156000D02*
X7620000Y-23368000D01*
X8636000Y-8036000D02*
X8832000Y-8232000D01*
X8636000Y-9035500D02*
X8636000Y-8036000D01*
X18796000Y-11176000D02*
X13462000Y-11176000D01*
%TD*%
%TA.AperFunction,Conductor*%
%TO.N,GND*%
G36*
X8671740Y-24066187D02*
G01*
X8671742Y-24066186D01*
X8717093Y-24001420D01*
X8717100Y-24001408D01*
X8777342Y-23872219D01*
X8823514Y-23819779D01*
X8890707Y-23800627D01*
X8957588Y-23820842D01*
X9002106Y-23872219D01*
X9062464Y-24001658D01*
X9062468Y-24001666D01*
X9189170Y-24182615D01*
X9189175Y-24182621D01*
X9345378Y-24338824D01*
X9345384Y-24338829D01*
X9526333Y-24465531D01*
X9526335Y-24465532D01*
X9526338Y-24465534D01*
X9726550Y-24558894D01*
X9939932Y-24616070D01*
X10097123Y-24629822D01*
X10159998Y-24635323D01*
X10160000Y-24635323D01*
X10160002Y-24635323D01*
X10215017Y-24630509D01*
X10380068Y-24616070D01*
X10593450Y-24558894D01*
X10793662Y-24465534D01*
X10974620Y-24338826D01*
X11130826Y-24182620D01*
X11257534Y-24001662D01*
X11317618Y-23872811D01*
X11363790Y-23820371D01*
X11430983Y-23801219D01*
X11497865Y-23821435D01*
X11542382Y-23872811D01*
X11602347Y-24001408D01*
X11602466Y-24001662D01*
X11638506Y-24053133D01*
X11660833Y-24119338D01*
X11643823Y-24187105D01*
X11624612Y-24211936D01*
X10373369Y-25463181D01*
X10312046Y-25496666D01*
X10285688Y-25499500D01*
X5530229Y-25499500D01*
X5463190Y-25479815D01*
X5442548Y-25463181D01*
X4810980Y-24831612D01*
X4777495Y-24770289D01*
X4782479Y-24700597D01*
X4824351Y-24644664D01*
X4889815Y-24620247D01*
X4909458Y-24620402D01*
X5063621Y-24633890D01*
X5079999Y-24635323D01*
X5080000Y-24635323D01*
X5080002Y-24635323D01*
X5135017Y-24630509D01*
X5300068Y-24616070D01*
X5513450Y-24558894D01*
X5713662Y-24465534D01*
X5894620Y-24338826D01*
X6050826Y-24182620D01*
X6177534Y-24001662D01*
X6237894Y-23872218D01*
X6284066Y-23819779D01*
X6351259Y-23800627D01*
X6418141Y-23820843D01*
X6462658Y-23872219D01*
X6522899Y-24001407D01*
X6522900Y-24001409D01*
X6568258Y-24066187D01*
X7235096Y-23399349D01*
X7235051Y-23399898D01*
X7266266Y-23523162D01*
X7335813Y-23629612D01*
X7436157Y-23707713D01*
X7556422Y-23749000D01*
X7592553Y-23749000D01*
X6921811Y-24419741D01*
X6986582Y-24465094D01*
X6986592Y-24465100D01*
X7186715Y-24558419D01*
X7186729Y-24558424D01*
X7400013Y-24615573D01*
X7400023Y-24615575D01*
X7619999Y-24634821D01*
X7620001Y-24634821D01*
X7839976Y-24615575D01*
X7839986Y-24615573D01*
X8053270Y-24558424D01*
X8053284Y-24558419D01*
X8253408Y-24465100D01*
X8253420Y-24465093D01*
X8318186Y-24419742D01*
X8318187Y-24419740D01*
X7647448Y-23749000D01*
X7651569Y-23749000D01*
X7745421Y-23733339D01*
X7857251Y-23672820D01*
X7943371Y-23579269D01*
X7994448Y-23462823D01*
X8000105Y-23394552D01*
X8671740Y-24066187D01*
G37*
%TD.AperFunction*%
%TA.AperFunction,Conductor*%
G36*
X8957865Y-13661435D02*
G01*
X9002382Y-13712811D01*
X9062464Y-13841658D01*
X9062468Y-13841666D01*
X9189170Y-14022615D01*
X9189175Y-14022621D01*
X9345378Y-14178824D01*
X9345384Y-14178829D01*
X9526333Y-14305531D01*
X9526335Y-14305532D01*
X9526338Y-14305534D01*
X9726550Y-14398894D01*
X9939932Y-14456070D01*
X10097123Y-14469822D01*
X10159998Y-14475323D01*
X10160000Y-14475323D01*
X10160002Y-14475323D01*
X10215017Y-14470509D01*
X10380068Y-14456070D01*
X10465407Y-14433203D01*
X10535255Y-14434864D01*
X10593118Y-14474026D01*
X10620623Y-14538254D01*
X10621500Y-14552977D01*
X10621500Y-21793769D01*
X10601815Y-21860808D01*
X10585181Y-21881450D01*
X10390272Y-22076358D01*
X10328949Y-22109843D01*
X10291785Y-22112205D01*
X10160003Y-22100677D01*
X10159998Y-22100677D01*
X9939937Y-22119929D01*
X9939929Y-22119930D01*
X9726554Y-22177104D01*
X9726548Y-22177107D01*
X9526340Y-22270465D01*
X9526338Y-22270466D01*
X9345377Y-22397175D01*
X9189175Y-22553377D01*
X9062467Y-22734337D01*
X9062466Y-22734339D01*
X9062348Y-22734593D01*
X9002105Y-22863782D01*
X8955932Y-22916221D01*
X8888738Y-22935372D01*
X8821857Y-22915156D01*
X8777341Y-22863780D01*
X8717100Y-22734593D01*
X8717099Y-22734591D01*
X8671740Y-22669811D01*
X8004903Y-23336648D01*
X8004949Y-23336102D01*
X7973734Y-23212838D01*
X7904187Y-23106388D01*
X7803843Y-23028287D01*
X7683578Y-22987000D01*
X7647447Y-22987000D01*
X8318187Y-22316258D01*
X8253409Y-22270900D01*
X8253407Y-22270899D01*
X8053284Y-22177580D01*
X8053270Y-22177575D01*
X7839986Y-22120426D01*
X7839976Y-22120424D01*
X7620001Y-22101179D01*
X7619999Y-22101179D01*
X7400023Y-22120424D01*
X7400010Y-22120427D01*
X7314592Y-22143314D01*
X7244743Y-22141651D01*
X7186880Y-22102488D01*
X7159377Y-22038259D01*
X7158500Y-22023539D01*
X7158500Y-14552977D01*
X7178185Y-14485938D01*
X7230989Y-14440183D01*
X7300147Y-14430239D01*
X7314581Y-14433200D01*
X7399932Y-14456070D01*
X7557123Y-14469822D01*
X7619998Y-14475323D01*
X7620000Y-14475323D01*
X7620002Y-14475323D01*
X7675017Y-14470509D01*
X7840068Y-14456070D01*
X8053450Y-14398894D01*
X8253662Y-14305534D01*
X8434620Y-14178826D01*
X8590826Y-14022620D01*
X8717534Y-13841662D01*
X8777618Y-13712811D01*
X8823790Y-13660371D01*
X8890983Y-13641219D01*
X8957865Y-13661435D01*
G37*
%TD.AperFunction*%
%TA.AperFunction,Conductor*%
G36*
X8829039Y-7805685D02*
G01*
X8874794Y-7858489D01*
X8886000Y-7910000D01*
X8886000Y-10285999D01*
X8935972Y-10285999D01*
X8935986Y-10285998D01*
X9038697Y-10275505D01*
X9205119Y-10220358D01*
X9205124Y-10220356D01*
X9354345Y-10128315D01*
X9478317Y-10004343D01*
X9530167Y-9920281D01*
X9582115Y-9873556D01*
X9651077Y-9862333D01*
X9715159Y-9890176D01*
X9741244Y-9920279D01*
X9793288Y-10004656D01*
X9917344Y-10128712D01*
X10066666Y-10220814D01*
X10233203Y-10275999D01*
X10335991Y-10286500D01*
X10497500Y-10286499D01*
X10564539Y-10306183D01*
X10610294Y-10358987D01*
X10621500Y-10410499D01*
X10621500Y-11863021D01*
X10601815Y-11930060D01*
X10549011Y-11975815D01*
X10479853Y-11985759D01*
X10465407Y-11982796D01*
X10380073Y-11959931D01*
X10380069Y-11959930D01*
X10380068Y-11959930D01*
X10380067Y-11959929D01*
X10380062Y-11959929D01*
X10160002Y-11940677D01*
X10159998Y-11940677D01*
X9939937Y-11959929D01*
X9939929Y-11959930D01*
X9726554Y-12017104D01*
X9726548Y-12017107D01*
X9526340Y-12110465D01*
X9526338Y-12110466D01*
X9345377Y-12237175D01*
X9189175Y-12393377D01*
X9062466Y-12574338D01*
X9062465Y-12574340D01*
X9002382Y-12703189D01*
X8956209Y-12755628D01*
X8889016Y-12774780D01*
X8822135Y-12754564D01*
X8777618Y-12703189D01*
X8717534Y-12574340D01*
X8717533Y-12574338D01*
X8590827Y-12393381D01*
X8590823Y-12393377D01*
X8434620Y-12237174D01*
X8434616Y-12237171D01*
X8434615Y-12237170D01*
X8253666Y-12110468D01*
X8253662Y-12110466D01*
X8197499Y-12084277D01*
X8053450Y-12017106D01*
X8053447Y-12017105D01*
X8053445Y-12017104D01*
X7840070Y-11959930D01*
X7840062Y-11959929D01*
X7620002Y-11940677D01*
X7619998Y-11940677D01*
X7399937Y-11959929D01*
X7399926Y-11959931D01*
X7314593Y-11982796D01*
X7244743Y-11981133D01*
X7186881Y-11941970D01*
X7159377Y-11877741D01*
X7158500Y-11863021D01*
X7158500Y-10318908D01*
X7178185Y-10251869D01*
X7217404Y-10213369D01*
X7354656Y-10128712D01*
X7478712Y-10004656D01*
X7530755Y-9920279D01*
X7582701Y-9873556D01*
X7651664Y-9862333D01*
X7715746Y-9890176D01*
X7741831Y-9920280D01*
X7793680Y-10004340D01*
X7793683Y-10004344D01*
X7917654Y-10128315D01*
X8066875Y-10220356D01*
X8066880Y-10220358D01*
X8233302Y-10275505D01*
X8233309Y-10275506D01*
X8336019Y-10285999D01*
X8385999Y-10285998D01*
X8386000Y-10285998D01*
X8386000Y-7910000D01*
X8405685Y-7842961D01*
X8458489Y-7797206D01*
X8510000Y-7786000D01*
X8762000Y-7786000D01*
X8829039Y-7805685D01*
G37*
%TD.AperFunction*%
%TA.AperFunction,Conductor*%
G36*
X11699377Y-527685D02*
G01*
X11745132Y-580489D01*
X11755076Y-649647D01*
X11750043Y-671006D01*
X11746001Y-683201D01*
X11746000Y-683204D01*
X11735500Y-785984D01*
X11735500Y-3786015D01*
X11746000Y-3888795D01*
X11746001Y-3888796D01*
X11801186Y-4055335D01*
X11801187Y-4055337D01*
X11893286Y-4204651D01*
X11893289Y-4204655D01*
X12017344Y-4328710D01*
X12017348Y-4328713D01*
X12166662Y-4420812D01*
X12166664Y-4420813D01*
X12166666Y-4420814D01*
X12333203Y-4475999D01*
X12435992Y-4486500D01*
X12435997Y-4486500D01*
X13536003Y-4486500D01*
X13536008Y-4486500D01*
X13638797Y-4475999D01*
X13805334Y-4420814D01*
X13954655Y-4328711D01*
X14078711Y-4204655D01*
X14165469Y-4064000D01*
X16682551Y-4064000D01*
X16702317Y-4315151D01*
X16761126Y-4560110D01*
X16857533Y-4792859D01*
X16989160Y-5007653D01*
X16989161Y-5007656D01*
X16989164Y-5007659D01*
X17152776Y-5199224D01*
X17291224Y-5317470D01*
X17344343Y-5362838D01*
X17344346Y-5362839D01*
X17559140Y-5494466D01*
X17791889Y-5590873D01*
X18036852Y-5649683D01*
X18192950Y-5661968D01*
X18225116Y-5664500D01*
X18225118Y-5664500D01*
X18350884Y-5664500D01*
X18380518Y-5662167D01*
X18539148Y-5649683D01*
X18784111Y-5590873D01*
X19016859Y-5494466D01*
X19231659Y-5362836D01*
X19423224Y-5199224D01*
X19586836Y-5007659D01*
X19718466Y-4792859D01*
X19814873Y-4560111D01*
X19873683Y-4315148D01*
X19893449Y-4064000D01*
X19873683Y-3812852D01*
X19814873Y-3567889D01*
X19718466Y-3335141D01*
X19718466Y-3335140D01*
X19586839Y-3120346D01*
X19586838Y-3120343D01*
X19549875Y-3077066D01*
X19423224Y-2928776D01*
X19296571Y-2820604D01*
X19231656Y-2765161D01*
X19231653Y-2765160D01*
X19016859Y-2633533D01*
X18784110Y-2537126D01*
X18539150Y-2478317D01*
X18350884Y-2463500D01*
X18350882Y-2463500D01*
X18225118Y-2463500D01*
X18225116Y-2463500D01*
X18036849Y-2478317D01*
X17791889Y-2537126D01*
X17559140Y-2633533D01*
X17344346Y-2765160D01*
X17344343Y-2765161D01*
X17152776Y-2928776D01*
X16989161Y-3120343D01*
X16989160Y-3120346D01*
X16857533Y-3335140D01*
X16761126Y-3567889D01*
X16702317Y-3812848D01*
X16682551Y-4064000D01*
X14165469Y-4064000D01*
X14170814Y-4055334D01*
X14225999Y-3888797D01*
X14236500Y-3786008D01*
X14236500Y-785992D01*
X14225999Y-683203D01*
X14221956Y-671004D01*
X14219554Y-601177D01*
X14255285Y-541135D01*
X14317805Y-509942D01*
X14339662Y-508000D01*
X20776638Y-508000D01*
X20843677Y-527685D01*
X20864319Y-544319D01*
X21807681Y-1487681D01*
X21841166Y-1549004D01*
X21844000Y-1575362D01*
X21844000Y-9181770D01*
X21824315Y-9248809D01*
X21771511Y-9294564D01*
X21702353Y-9304508D01*
X21638797Y-9275483D01*
X21601023Y-9216705D01*
X21600225Y-9213864D01*
X21593432Y-9188513D01*
X21593429Y-9188507D01*
X21493600Y-8974423D01*
X21493599Y-8974421D01*
X21434925Y-8890626D01*
X21434925Y-8890625D01*
X20803076Y-9522475D01*
X20779493Y-9442156D01*
X20701761Y-9321202D01*
X20593100Y-9227048D01*
X20462315Y-9167320D01*
X20452533Y-9165913D01*
X21081373Y-8537073D01*
X21081373Y-8537072D01*
X20997583Y-8478402D01*
X20997579Y-8478400D01*
X20783492Y-8378570D01*
X20783483Y-8378566D01*
X20555326Y-8317432D01*
X20555315Y-8317430D01*
X20320002Y-8296843D01*
X20319998Y-8296843D01*
X20084684Y-8317430D01*
X20084673Y-8317432D01*
X19856516Y-8378566D01*
X19856507Y-8378570D01*
X19642419Y-8478401D01*
X19558625Y-8537072D01*
X20187466Y-9165913D01*
X20177685Y-9167320D01*
X20046900Y-9227048D01*
X19938239Y-9321202D01*
X19860507Y-9442156D01*
X19836923Y-9522475D01*
X19205073Y-8890625D01*
X19205072Y-8890625D01*
X19146401Y-8974419D01*
X19046570Y-9188507D01*
X19046566Y-9188516D01*
X18985432Y-9416673D01*
X18985430Y-9416684D01*
X18964843Y-9651998D01*
X18964843Y-9652001D01*
X18985430Y-9887315D01*
X18985432Y-9887326D01*
X19046566Y-10115483D01*
X19046570Y-10115492D01*
X19146400Y-10329579D01*
X19146402Y-10329583D01*
X19205072Y-10413373D01*
X19205073Y-10413373D01*
X19836923Y-9781523D01*
X19860507Y-9861844D01*
X19938239Y-9982798D01*
X20046900Y-10076952D01*
X20177685Y-10136680D01*
X20187466Y-10138086D01*
X19558625Y-10766925D01*
X19642421Y-10825599D01*
X19856507Y-10925429D01*
X19856516Y-10925433D01*
X20084673Y-10986567D01*
X20084684Y-10986569D01*
X20319998Y-11007157D01*
X20320002Y-11007157D01*
X20555315Y-10986569D01*
X20555326Y-10986567D01*
X20783483Y-10925433D01*
X20783492Y-10925429D01*
X20997578Y-10825600D01*
X20997582Y-10825598D01*
X21081373Y-10766926D01*
X21081373Y-10766925D01*
X20452533Y-10138086D01*
X20462315Y-10136680D01*
X20593100Y-10076952D01*
X20701761Y-9982798D01*
X20779493Y-9861844D01*
X20803076Y-9781524D01*
X21434925Y-10413373D01*
X21434926Y-10413373D01*
X21493598Y-10329582D01*
X21493600Y-10329578D01*
X21593429Y-10115492D01*
X21593433Y-10115483D01*
X21600225Y-10090136D01*
X21636589Y-10030476D01*
X21699436Y-9999946D01*
X21768812Y-10008240D01*
X21822690Y-10052725D01*
X21843965Y-10119277D01*
X21844000Y-10122229D01*
X21844000Y-30936638D01*
X21824315Y-31003677D01*
X21807681Y-31024319D01*
X20864319Y-31967681D01*
X20802996Y-32001166D01*
X20776638Y-32004000D01*
X1575362Y-32004000D01*
X1508323Y-31984315D01*
X1487681Y-31967681D01*
X544319Y-31024319D01*
X510834Y-30962996D01*
X508000Y-30936638D01*
X508000Y-23368002D01*
X1272677Y-23368002D01*
X1291929Y-23588062D01*
X1291930Y-23588070D01*
X1349104Y-23801445D01*
X1349105Y-23801447D01*
X1349106Y-23801450D01*
X1382106Y-23872219D01*
X1442466Y-24001662D01*
X1442468Y-24001666D01*
X1569170Y-24182615D01*
X1569175Y-24182621D01*
X1725378Y-24338824D01*
X1725384Y-24338829D01*
X1906333Y-24465531D01*
X1906335Y-24465532D01*
X1906338Y-24465534D01*
X2106550Y-24558894D01*
X2319932Y-24616070D01*
X2477123Y-24629822D01*
X2539998Y-24635323D01*
X2540000Y-24635323D01*
X2540002Y-24635323D01*
X2595017Y-24630509D01*
X2760068Y-24616070D01*
X2961410Y-24562120D01*
X3031256Y-24563783D01*
X3089118Y-24602945D01*
X3116623Y-24667173D01*
X3117500Y-24681895D01*
X3117500Y-24886294D01*
X3116191Y-24904263D01*
X3112710Y-24928025D01*
X3117264Y-24980064D01*
X3117500Y-24985470D01*
X3117500Y-24993709D01*
X3121306Y-25026274D01*
X3128000Y-25102791D01*
X3129461Y-25109867D01*
X3129403Y-25109878D01*
X3131034Y-25117237D01*
X3131092Y-25117224D01*
X3132757Y-25124250D01*
X3159025Y-25196424D01*
X3183185Y-25269331D01*
X3186236Y-25275874D01*
X3186182Y-25275898D01*
X3189470Y-25282688D01*
X3189521Y-25282663D01*
X3192761Y-25289113D01*
X3192762Y-25289114D01*
X3192763Y-25289117D01*
X3234965Y-25353283D01*
X3275287Y-25418655D01*
X3279766Y-25424319D01*
X3279719Y-25424356D01*
X3284482Y-25430202D01*
X3284528Y-25430164D01*
X3289173Y-25435700D01*
X3345018Y-25488386D01*
X4535627Y-26678994D01*
X4569112Y-26740317D01*
X4564128Y-26810008D01*
X4522257Y-26865942D01*
X4456792Y-26890359D01*
X4418999Y-26887249D01*
X4315151Y-26862317D01*
X4126884Y-26847500D01*
X4126882Y-26847500D01*
X4001118Y-26847500D01*
X4001116Y-26847500D01*
X3812849Y-26862317D01*
X3567889Y-26921126D01*
X3335140Y-27017533D01*
X3120346Y-27149160D01*
X3120343Y-27149161D01*
X2928776Y-27312776D01*
X2765161Y-27504343D01*
X2765160Y-27504346D01*
X2633533Y-27719140D01*
X2537126Y-27951889D01*
X2478317Y-28196848D01*
X2458551Y-28448000D01*
X2478317Y-28699151D01*
X2537126Y-28944110D01*
X2633533Y-29176859D01*
X2765160Y-29391653D01*
X2765161Y-29391656D01*
X2765164Y-29391659D01*
X2928776Y-29583224D01*
X3077066Y-29709875D01*
X3120343Y-29746838D01*
X3120346Y-29746839D01*
X3335140Y-29878466D01*
X3567889Y-29974873D01*
X3812852Y-30033683D01*
X3968950Y-30045968D01*
X4001116Y-30048500D01*
X4001118Y-30048500D01*
X4126884Y-30048500D01*
X4156518Y-30046167D01*
X4315148Y-30033683D01*
X4560111Y-29974873D01*
X4792859Y-29878466D01*
X5007659Y-29746836D01*
X5199224Y-29583224D01*
X5362836Y-29391659D01*
X5494466Y-29176859D01*
X5590873Y-28944111D01*
X5649683Y-28699148D01*
X5669449Y-28448000D01*
X5649683Y-28196852D01*
X5590873Y-27951889D01*
X5494466Y-27719141D01*
X5494466Y-27719140D01*
X5362839Y-27504346D01*
X5362838Y-27504343D01*
X5325875Y-27461066D01*
X5199224Y-27312776D01*
X5089541Y-27219098D01*
X5051349Y-27160592D01*
X5050851Y-27090724D01*
X5088204Y-27031678D01*
X5151551Y-27002200D01*
X5166460Y-27000862D01*
X5177366Y-27000545D01*
X5178923Y-27000500D01*
X10584213Y-27000500D01*
X10602183Y-27001809D01*
X10625941Y-27005289D01*
X10677986Y-27000735D01*
X10683388Y-27000500D01*
X10691622Y-27000500D01*
X10691627Y-27000500D01*
X10703245Y-26999141D01*
X10724194Y-26996693D01*
X10736946Y-26995577D01*
X10800715Y-26989999D01*
X10800723Y-26989996D01*
X10807784Y-26988539D01*
X10807796Y-26988598D01*
X10815161Y-26986965D01*
X10815147Y-26986906D01*
X10822164Y-26985241D01*
X10822173Y-26985241D01*
X10894341Y-26958974D01*
X10967252Y-26934814D01*
X10967261Y-26934807D01*
X10973800Y-26931760D01*
X10973826Y-26931816D01*
X10980608Y-26928532D01*
X10980581Y-26928478D01*
X10987024Y-26925240D01*
X10987035Y-26925237D01*
X11051201Y-26883034D01*
X11116574Y-26842712D01*
X11116580Y-26842705D01*
X11122243Y-26838229D01*
X11122280Y-26838277D01*
X11128122Y-26833518D01*
X11128082Y-26833471D01*
X11133604Y-26828836D01*
X11133614Y-26828830D01*
X11157179Y-26803852D01*
X11186304Y-26772982D01*
X12849417Y-25109867D01*
X13185638Y-24773645D01*
X13199267Y-24761868D01*
X13218530Y-24747528D01*
X13218532Y-24747524D01*
X13218534Y-24747524D01*
X13236663Y-24725917D01*
X13252113Y-24707503D01*
X13255767Y-24703517D01*
X13261589Y-24697696D01*
X13281928Y-24671972D01*
X13287162Y-24665733D01*
X13331302Y-24613132D01*
X13331304Y-24613127D01*
X13335272Y-24607097D01*
X13335323Y-24607130D01*
X13339369Y-24600778D01*
X13339317Y-24600746D01*
X13343109Y-24594597D01*
X13343111Y-24594595D01*
X13375569Y-24524987D01*
X13410040Y-24456351D01*
X13410043Y-24456335D01*
X13412510Y-24449562D01*
X13412568Y-24449583D01*
X13415035Y-24442485D01*
X13414977Y-24442466D01*
X13416662Y-24437379D01*
X13416960Y-24436947D01*
X13417951Y-24434098D01*
X13420317Y-24429027D01*
X13421924Y-24429776D01*
X13456428Y-24379929D01*
X13463218Y-24374817D01*
X13514620Y-24338826D01*
X13670826Y-24182620D01*
X13797534Y-24001662D01*
X13857618Y-23872811D01*
X13903790Y-23820371D01*
X13970983Y-23801219D01*
X14037865Y-23821435D01*
X14082382Y-23872811D01*
X14142464Y-24001658D01*
X14142468Y-24001666D01*
X14269170Y-24182615D01*
X14269175Y-24182621D01*
X14425378Y-24338824D01*
X14425384Y-24338829D01*
X14606333Y-24465531D01*
X14606335Y-24465532D01*
X14606338Y-24465534D01*
X14806550Y-24558894D01*
X15019932Y-24616070D01*
X15177123Y-24629822D01*
X15239998Y-24635323D01*
X15240000Y-24635323D01*
X15240002Y-24635323D01*
X15295017Y-24630509D01*
X15460068Y-24616070D01*
X15673450Y-24558894D01*
X15873662Y-24465534D01*
X16054620Y-24338826D01*
X16210826Y-24182620D01*
X16337534Y-24001662D01*
X16397618Y-23872811D01*
X16443790Y-23820371D01*
X16510983Y-23801219D01*
X16577865Y-23821435D01*
X16622382Y-23872811D01*
X16682464Y-24001658D01*
X16682468Y-24001666D01*
X16809170Y-24182615D01*
X16809175Y-24182621D01*
X16965378Y-24338824D01*
X16965384Y-24338829D01*
X17146333Y-24465531D01*
X17146335Y-24465532D01*
X17146338Y-24465534D01*
X17346550Y-24558894D01*
X17559932Y-24616070D01*
X17717123Y-24629822D01*
X17779998Y-24635323D01*
X17780000Y-24635323D01*
X17780002Y-24635323D01*
X17835017Y-24630509D01*
X18000068Y-24616070D01*
X18213450Y-24558894D01*
X18413662Y-24465534D01*
X18594620Y-24338826D01*
X18750826Y-24182620D01*
X18877534Y-24001662D01*
X18970894Y-23801450D01*
X19028070Y-23588068D01*
X19047323Y-23368000D01*
X19044532Y-23336102D01*
X19030754Y-23178613D01*
X19028070Y-23147932D01*
X18970894Y-22934550D01*
X18877534Y-22734339D01*
X18814180Y-22643859D01*
X18750827Y-22553381D01*
X18711498Y-22514052D01*
X18594620Y-22397174D01*
X18594616Y-22397171D01*
X18594615Y-22397170D01*
X18413666Y-22270468D01*
X18413662Y-22270466D01*
X18356307Y-22243721D01*
X18213450Y-22177106D01*
X18213447Y-22177105D01*
X18213445Y-22177104D01*
X18000070Y-22119930D01*
X18000062Y-22119929D01*
X17780002Y-22100677D01*
X17779998Y-22100677D01*
X17559937Y-22119929D01*
X17559929Y-22119930D01*
X17346554Y-22177104D01*
X17346548Y-22177107D01*
X17146340Y-22270465D01*
X17146338Y-22270466D01*
X16965377Y-22397175D01*
X16809175Y-22553377D01*
X16682466Y-22734338D01*
X16682465Y-22734340D01*
X16622382Y-22863189D01*
X16576209Y-22915628D01*
X16509016Y-22934780D01*
X16442135Y-22914564D01*
X16397618Y-22863189D01*
X16337652Y-22734593D01*
X16337534Y-22734339D01*
X16274180Y-22643859D01*
X16210827Y-22553381D01*
X16171498Y-22514052D01*
X16054620Y-22397174D01*
X16054616Y-22397171D01*
X16054615Y-22397170D01*
X15873666Y-22270468D01*
X15873662Y-22270466D01*
X15816307Y-22243721D01*
X15673450Y-22177106D01*
X15673447Y-22177105D01*
X15673445Y-22177104D01*
X15460070Y-22119930D01*
X15460062Y-22119929D01*
X15240002Y-22100677D01*
X15239998Y-22100677D01*
X15019937Y-22119929D01*
X15019929Y-22119930D01*
X14806554Y-22177104D01*
X14806548Y-22177107D01*
X14606340Y-22270465D01*
X14606338Y-22270466D01*
X14425377Y-22397175D01*
X14269175Y-22553377D01*
X14142466Y-22734338D01*
X14142465Y-22734340D01*
X14082382Y-22863189D01*
X14036209Y-22915628D01*
X13969016Y-22934780D01*
X13902135Y-22914564D01*
X13857618Y-22863189D01*
X13797652Y-22734593D01*
X13797534Y-22734339D01*
X13734180Y-22643859D01*
X13670827Y-22553381D01*
X13631498Y-22514052D01*
X13514620Y-22397174D01*
X13514616Y-22397171D01*
X13514615Y-22397170D01*
X13333666Y-22270468D01*
X13333662Y-22270466D01*
X13276307Y-22243721D01*
X13133450Y-22177106D01*
X13133447Y-22177105D01*
X13133445Y-22177104D01*
X12920070Y-22119930D01*
X12920062Y-22119929D01*
X12700002Y-22100677D01*
X12699998Y-22100677D01*
X12479937Y-22119929D01*
X12479926Y-22119931D01*
X12278593Y-22173878D01*
X12208743Y-22172215D01*
X12150881Y-22133052D01*
X12123377Y-22068824D01*
X12122500Y-22054103D01*
X12122500Y-14521895D01*
X12142185Y-14454856D01*
X12194989Y-14409101D01*
X12264147Y-14399157D01*
X12278574Y-14402116D01*
X12479932Y-14456070D01*
X12637123Y-14469822D01*
X12699998Y-14475323D01*
X12700000Y-14475323D01*
X12700002Y-14475323D01*
X12755017Y-14470509D01*
X12920068Y-14456070D01*
X13133450Y-14398894D01*
X13333662Y-14305534D01*
X13514620Y-14178826D01*
X13670826Y-14022620D01*
X13797534Y-13841662D01*
X13857618Y-13712811D01*
X13903790Y-13660371D01*
X13970983Y-13641219D01*
X14037865Y-13661435D01*
X14082382Y-13712811D01*
X14142464Y-13841658D01*
X14142468Y-13841666D01*
X14269170Y-14022615D01*
X14269175Y-14022621D01*
X14425378Y-14178824D01*
X14425384Y-14178829D01*
X14606333Y-14305531D01*
X14606335Y-14305532D01*
X14606338Y-14305534D01*
X14806550Y-14398894D01*
X15019932Y-14456070D01*
X15177123Y-14469822D01*
X15239998Y-14475323D01*
X15240000Y-14475323D01*
X15240002Y-14475323D01*
X15295017Y-14470509D01*
X15460068Y-14456070D01*
X15673450Y-14398894D01*
X15873662Y-14305534D01*
X16054620Y-14178826D01*
X16210826Y-14022620D01*
X16337534Y-13841662D01*
X16430894Y-13641450D01*
X16488070Y-13428068D01*
X16507323Y-13208000D01*
X16488070Y-12987932D01*
X16430894Y-12774550D01*
X16337534Y-12574339D01*
X16210826Y-12393380D01*
X16054620Y-12237174D01*
X16054616Y-12237171D01*
X16054615Y-12237170D01*
X15873666Y-12110468D01*
X15873662Y-12110466D01*
X15817499Y-12084277D01*
X15673450Y-12017106D01*
X15673447Y-12017105D01*
X15673445Y-12017104D01*
X15460070Y-11959930D01*
X15460062Y-11959929D01*
X15240002Y-11940677D01*
X15239998Y-11940677D01*
X15019937Y-11959929D01*
X15019929Y-11959930D01*
X14806554Y-12017104D01*
X14806548Y-12017107D01*
X14606340Y-12110465D01*
X14606338Y-12110466D01*
X14425377Y-12237175D01*
X14269175Y-12393377D01*
X14142466Y-12574338D01*
X14142465Y-12574340D01*
X14082382Y-12703189D01*
X14036209Y-12755628D01*
X13969016Y-12774780D01*
X13902135Y-12754564D01*
X13857618Y-12703189D01*
X13797534Y-12574340D01*
X13797533Y-12574338D01*
X13670827Y-12393381D01*
X13670823Y-12393377D01*
X13514620Y-12237174D01*
X13514616Y-12237171D01*
X13514615Y-12237170D01*
X13333666Y-12110468D01*
X13333662Y-12110466D01*
X13277499Y-12084277D01*
X13133450Y-12017106D01*
X13133447Y-12017105D01*
X13133445Y-12017104D01*
X12920070Y-11959930D01*
X12920062Y-11959929D01*
X12700002Y-11940677D01*
X12699998Y-11940677D01*
X12479937Y-11959929D01*
X12479926Y-11959931D01*
X12278593Y-12013878D01*
X12208743Y-12012215D01*
X12150881Y-11973052D01*
X12123377Y-11908824D01*
X12122500Y-11894103D01*
X12122500Y-8835705D01*
X12123809Y-8817735D01*
X12127289Y-8793974D01*
X12122736Y-8741939D01*
X12122500Y-8736532D01*
X12122500Y-8728296D01*
X12122500Y-8728291D01*
X12118691Y-8695705D01*
X12111998Y-8619203D01*
X12111995Y-8619194D01*
X12110538Y-8612135D01*
X12110598Y-8612122D01*
X12108965Y-8604757D01*
X12108906Y-8604772D01*
X12107241Y-8597749D01*
X12107241Y-8597745D01*
X12080971Y-8525568D01*
X12065198Y-8477967D01*
X12056816Y-8452670D01*
X12053761Y-8446118D01*
X12053815Y-8446092D01*
X12050533Y-8439312D01*
X12050480Y-8439340D01*
X12047238Y-8432886D01*
X12047237Y-8432883D01*
X12005038Y-8368723D01*
X11964712Y-8303344D01*
X11964711Y-8303343D01*
X11964710Y-8303341D01*
X11960234Y-8297681D01*
X11960280Y-8297643D01*
X11955519Y-8291799D01*
X11955474Y-8291838D01*
X11950834Y-8286308D01*
X11894982Y-8233613D01*
X11672818Y-8011449D01*
X11639333Y-7950126D01*
X11636499Y-7923768D01*
X11636499Y-6710500D01*
X11656184Y-6643461D01*
X11708988Y-6597706D01*
X11760499Y-6586500D01*
X12077770Y-6586500D01*
X12144809Y-6606185D01*
X12165451Y-6622819D01*
X14883130Y-9340498D01*
X14916615Y-9401821D01*
X14918977Y-9438986D01*
X14900341Y-9651997D01*
X14900341Y-9652000D01*
X14920936Y-9887403D01*
X14920938Y-9887413D01*
X14982094Y-10115655D01*
X14982096Y-10115659D01*
X14982097Y-10115663D01*
X15030917Y-10220358D01*
X15081965Y-10329830D01*
X15081967Y-10329834D01*
X15138450Y-10410499D01*
X15217505Y-10523401D01*
X15384599Y-10690495D01*
X15481384Y-10758265D01*
X15578165Y-10826032D01*
X15578167Y-10826033D01*
X15578170Y-10826035D01*
X15792337Y-10925903D01*
X16020592Y-10987063D01*
X16208918Y-11003539D01*
X16255999Y-11007659D01*
X16256000Y-11007659D01*
X16256001Y-11007659D01*
X16295234Y-11004226D01*
X16491408Y-10987063D01*
X16719663Y-10925903D01*
X16933830Y-10826035D01*
X17127401Y-10690495D01*
X17294495Y-10523401D01*
X17430035Y-10329830D01*
X17529903Y-10115663D01*
X17591063Y-9887408D01*
X17611659Y-9652000D01*
X17591063Y-9416592D01*
X17529903Y-9188337D01*
X17430035Y-8974171D01*
X17371537Y-8890626D01*
X17294494Y-8780597D01*
X17127402Y-8613506D01*
X17127395Y-8613501D01*
X17114907Y-8604757D01*
X17030376Y-8545567D01*
X16933834Y-8477967D01*
X16933830Y-8477965D01*
X16865478Y-8446092D01*
X16719663Y-8378097D01*
X16719659Y-8378096D01*
X16719655Y-8378094D01*
X16491413Y-8316938D01*
X16491403Y-8316936D01*
X16256001Y-8296341D01*
X16255998Y-8296341D01*
X16042985Y-8314977D01*
X15974485Y-8301210D01*
X15944497Y-8279130D01*
X13015729Y-5350361D01*
X13003949Y-5336730D01*
X12996482Y-5326701D01*
X12989612Y-5317472D01*
X12984303Y-5313017D01*
X12949587Y-5283886D01*
X12945612Y-5280244D01*
X12942690Y-5277322D01*
X12939780Y-5274411D01*
X12914040Y-5254059D01*
X12855209Y-5204694D01*
X12849180Y-5200729D01*
X12849212Y-5200680D01*
X12842853Y-5196628D01*
X12842822Y-5196679D01*
X12836680Y-5192891D01*
X12836678Y-5192890D01*
X12836677Y-5192889D01*
X12797474Y-5174608D01*
X12767058Y-5160424D01*
X12732894Y-5143267D01*
X12698433Y-5125960D01*
X12698431Y-5125959D01*
X12698430Y-5125959D01*
X12691645Y-5123489D01*
X12691665Y-5123433D01*
X12684549Y-5120959D01*
X12684531Y-5121015D01*
X12677671Y-5118742D01*
X12649841Y-5112996D01*
X12602434Y-5103207D01*
X12553472Y-5091603D01*
X12527719Y-5085499D01*
X12520547Y-5084661D01*
X12520553Y-5084601D01*
X12513055Y-5083835D01*
X12513050Y-5083895D01*
X12505860Y-5083265D01*
X12429083Y-5085500D01*
X7149705Y-5085500D01*
X7131735Y-5084191D01*
X7107972Y-5080710D01*
X7062890Y-5084655D01*
X7055933Y-5085264D01*
X7050532Y-5085500D01*
X7042287Y-5085500D01*
X7016222Y-5088546D01*
X7009705Y-5089308D01*
X7004403Y-5089771D01*
X6933201Y-5096001D01*
X6926134Y-5097461D01*
X6926122Y-5097404D01*
X6918753Y-5099038D01*
X6918767Y-5099095D01*
X6911739Y-5100760D01*
X6862335Y-5118742D01*
X6839563Y-5127030D01*
X6766666Y-5151186D01*
X6766664Y-5151186D01*
X6766661Y-5151188D01*
X6760122Y-5154237D01*
X6760097Y-5154185D01*
X6753308Y-5157471D01*
X6753334Y-5157522D01*
X6746884Y-5160761D01*
X6682716Y-5202964D01*
X6617347Y-5243285D01*
X6611677Y-5247769D01*
X6611641Y-5247723D01*
X6605798Y-5252484D01*
X6605835Y-5252528D01*
X6600310Y-5257164D01*
X6547614Y-5313017D01*
X6150358Y-5710272D01*
X6136729Y-5722051D01*
X6117468Y-5736390D01*
X6083898Y-5776397D01*
X6080253Y-5780376D01*
X6074409Y-5786222D01*
X6054059Y-5811959D01*
X6004695Y-5870789D01*
X6000729Y-5876819D01*
X5998612Y-5875426D01*
X5961220Y-5916224D01*
X5917345Y-5943286D01*
X5793287Y-6067345D01*
X5741539Y-6151243D01*
X5689591Y-6197967D01*
X5620628Y-6209190D01*
X5556546Y-6181346D01*
X5530461Y-6151243D01*
X5478712Y-6067344D01*
X5354656Y-5943288D01*
X5205334Y-5851186D01*
X5038797Y-5796001D01*
X5038795Y-5796000D01*
X4936010Y-5785500D01*
X4335998Y-5785500D01*
X4335980Y-5785501D01*
X4233203Y-5796000D01*
X4233200Y-5796001D01*
X4066668Y-5851185D01*
X4066663Y-5851187D01*
X3917342Y-5943289D01*
X3793289Y-6067342D01*
X3701187Y-6216663D01*
X3701186Y-6216666D01*
X3646001Y-6383203D01*
X3646001Y-6383204D01*
X3646000Y-6383204D01*
X3635500Y-6485983D01*
X3635500Y-7923769D01*
X3615815Y-7990808D01*
X3599181Y-8011450D01*
X3382358Y-8228272D01*
X3368729Y-8240051D01*
X3349468Y-8254390D01*
X3315898Y-8294397D01*
X3312253Y-8298376D01*
X3306409Y-8304222D01*
X3286059Y-8329959D01*
X3236695Y-8388789D01*
X3232729Y-8394819D01*
X3232682Y-8394788D01*
X3228630Y-8401147D01*
X3228679Y-8401177D01*
X3224889Y-8407321D01*
X3192424Y-8476941D01*
X3157960Y-8545566D01*
X3155488Y-8552357D01*
X3155432Y-8552336D01*
X3152960Y-8559450D01*
X3153015Y-8559469D01*
X3150742Y-8566327D01*
X3144256Y-8597743D01*
X3135207Y-8641565D01*
X3122376Y-8695705D01*
X3117498Y-8716286D01*
X3116661Y-8723454D01*
X3116601Y-8723447D01*
X3115835Y-8730945D01*
X3115895Y-8730951D01*
X3115265Y-8738140D01*
X3117500Y-8814916D01*
X3117500Y-22054103D01*
X3097815Y-22121142D01*
X3045011Y-22166897D01*
X2975853Y-22176841D01*
X2961407Y-22173878D01*
X2760073Y-22119931D01*
X2760069Y-22119930D01*
X2760068Y-22119930D01*
X2760067Y-22119929D01*
X2760062Y-22119929D01*
X2540002Y-22100677D01*
X2539998Y-22100677D01*
X2319937Y-22119929D01*
X2319929Y-22119930D01*
X2106554Y-22177104D01*
X2106548Y-22177107D01*
X1906340Y-22270465D01*
X1906338Y-22270466D01*
X1725377Y-22397175D01*
X1569175Y-22553377D01*
X1442466Y-22734338D01*
X1442465Y-22734340D01*
X1349107Y-22934548D01*
X1349104Y-22934554D01*
X1291930Y-23147929D01*
X1291929Y-23147937D01*
X1272677Y-23367997D01*
X1272677Y-23368002D01*
X508000Y-23368002D01*
X508000Y-1575362D01*
X527685Y-1508323D01*
X544319Y-1487681D01*
X823819Y-1208181D01*
X885142Y-1174696D01*
X954834Y-1179680D01*
X1010767Y-1221552D01*
X1035184Y-1287016D01*
X1035500Y-1295862D01*
X1035500Y-3786015D01*
X1046000Y-3888795D01*
X1046001Y-3888796D01*
X1101186Y-4055335D01*
X1101187Y-4055337D01*
X1193286Y-4204651D01*
X1193289Y-4204655D01*
X1317344Y-4328710D01*
X1317348Y-4328713D01*
X1466662Y-4420812D01*
X1466664Y-4420813D01*
X1466666Y-4420814D01*
X1633203Y-4475999D01*
X1735992Y-4486500D01*
X1735997Y-4486500D01*
X2836003Y-4486500D01*
X2836008Y-4486500D01*
X2938797Y-4475999D01*
X3105334Y-4420814D01*
X3254655Y-4328711D01*
X3378711Y-4204655D01*
X3470814Y-4055334D01*
X3525999Y-3888797D01*
X3536500Y-3786008D01*
X3536500Y-785992D01*
X3525999Y-683203D01*
X3521956Y-671004D01*
X3519554Y-601177D01*
X3555285Y-541135D01*
X3617805Y-509942D01*
X3639662Y-508000D01*
X11632338Y-508000D01*
X11699377Y-527685D01*
G37*
%TD.AperFunction*%
%TD*%
M02*
