%TF.GenerationSoftware,KiCad,Pcbnew,7.0.8*%
%TF.CreationDate,2024-11-10T19:19:34+09:00*%
%TF.ProjectId,JellyTracker_V0.5.0,4a656c6c-7954-4726-9163-6b65725f5630,rev?*%
%TF.SameCoordinates,Original*%
%TF.FileFunction,Copper,L2,Bot*%
%TF.FilePolarity,Positive*%
%FSLAX46Y46*%
G04 Gerber Fmt 4.6, Leading zero omitted, Abs format (unit mm)*
G04 Created by KiCad (PCBNEW 7.0.8) date 2024-11-10 19:19:34*
%MOMM*%
%LPD*%
G01*
G04 APERTURE LIST*
%TA.AperFunction,ComponentPad*%
%ADD10O,1.000000X2.100000*%
%TD*%
%TA.AperFunction,ComponentPad*%
%ADD11O,1.000000X1.600000*%
%TD*%
%TA.AperFunction,ComponentPad*%
%ADD12C,1.524000*%
%TD*%
%TA.AperFunction,ViaPad*%
%ADD13C,0.800000*%
%TD*%
%TA.AperFunction,Conductor*%
%ADD14C,0.250000*%
%TD*%
G04 APERTURE END LIST*
D10*
%TO.P,J1,S1,SHIELD*%
%TO.N,GND*%
X10416000Y-6126000D03*
D11*
X10416000Y-1946000D03*
D10*
X1776000Y-6126000D03*
D11*
X1776000Y-1946000D03*
%TD*%
D12*
%TO.P,U2,1,VIN*%
%TO.N,unconnected-(U2-VIN-Pad1)*%
X22960000Y-12292000D03*
%TO.P,U2,2,3V3*%
%TO.N,3.3V*%
X22960000Y-14832000D03*
%TO.P,U2,3,GND*%
%TO.N,GND*%
X22960000Y-17372000D03*
%TO.P,U2,4,SCL*%
%TO.N,SCL*%
X22960000Y-19912000D03*
%TO.P,U2,5,SDA*%
%TO.N,SDA*%
X22960000Y-22452000D03*
%TO.P,U2,6,CS*%
%TO.N,unconnected-(U2-CS-Pad6)*%
X22960000Y-24992000D03*
%TO.P,U2,7,SDO*%
%TO.N,unconnected-(U2-SDO-Pad7)*%
X22960000Y-27532000D03*
%TO.P,U2,8,OCS*%
%TO.N,unconnected-(U2-OCS-Pad8)*%
X33120000Y-14832000D03*
%TO.P,U2,9,INT2*%
%TO.N,unconnected-(U2-INT2-Pad9)*%
X33120000Y-17372000D03*
%TO.P,U2,10,INT1*%
%TO.N,unconnected-(U2-INT1-Pad10)*%
X33120000Y-19912000D03*
%TO.P,U2,11,SCX*%
%TO.N,unconnected-(U2-SCX-Pad11)*%
X33120000Y-22452000D03*
%TO.P,U2,12,SDX*%
%TO.N,unconnected-(U2-SDX-Pad12)*%
X33120000Y-24992000D03*
%TD*%
D13*
%TO.N,Net-(J1-CC1)*%
X7346000Y-4338000D03*
X17838500Y-2231719D03*
%TO.N,D+*%
X5334000Y-4064000D03*
X18034000Y-22352000D03*
%TO.N,D-*%
X18034000Y-23622000D03*
X6096000Y-3048000D03*
%TO.N,Net-(J1-CC2)*%
X15748000Y-2286000D03*
X4318000Y-2032000D03*
%TO.N,NotLow*%
X5334000Y-30480000D03*
X3556000Y-25256000D03*
%TO.N,EN{slash}ESP*%
X3556000Y-19558000D03*
X21082000Y-9652000D03*
%TO.N,GND*%
X1270000Y-35560000D03*
X15240000Y-19050000D03*
X29210000Y-27940000D03*
X33020000Y-31750000D03*
X24892000Y-17272000D03*
X24384000Y-5080000D03*
X34290000Y-1270000D03*
X10160000Y-16510000D03*
X12700000Y-16510000D03*
X29210000Y-16510000D03*
X24130000Y-31750000D03*
X29210000Y-20320000D03*
X1270000Y-31750000D03*
X7620000Y-35560000D03*
X10668000Y-28194000D03*
X15240000Y-16510000D03*
X29210000Y-31750000D03*
X33020000Y-8890000D03*
X10160000Y-19050000D03*
X29210000Y-24130000D03*
X33020000Y-12700000D03*
X17780000Y-39370000D03*
X12700000Y-19050000D03*
X12700000Y-39370000D03*
X24130000Y-35560000D03*
X17780000Y-16510000D03*
X17780000Y-35560000D03*
X24130000Y-39370000D03*
X7620000Y-16510000D03*
X29210000Y-12700000D03*
X29210000Y-8890000D03*
X12700000Y-35560000D03*
X16256000Y-28194000D03*
X33020000Y-27940000D03*
X7620000Y-39370000D03*
X1270000Y-39370000D03*
X29210000Y-1270000D03*
%TD*%
D14*
%TO.N,Net-(J1-CC1)*%
X17838500Y-2231719D02*
X15732219Y-4338000D01*
X17580281Y-2231719D02*
X17838500Y-2231719D01*
X15732219Y-4338000D02*
X7346000Y-4338000D01*
%TO.N,D+*%
X951000Y-4891000D02*
X1778000Y-4064000D01*
X8801222Y-22352000D02*
X951000Y-14501778D01*
X951000Y-14501778D02*
X951000Y-4891000D01*
X18034000Y-22352000D02*
X8801222Y-22352000D01*
X1778000Y-4064000D02*
X5334000Y-4064000D01*
%TO.N,D-*%
X9434826Y-23622000D02*
X501000Y-14688174D01*
X501000Y-14688174D02*
X501000Y-4579000D01*
X18034000Y-23622000D02*
X9434826Y-23622000D01*
X2032000Y-3048000D02*
X6096000Y-3048000D01*
X501000Y-4579000D02*
X2032000Y-3048000D01*
%TO.N,Net-(J1-CC2)*%
X15748000Y-1270000D02*
X15240000Y-762000D01*
X15748000Y-2286000D02*
X15748000Y-1270000D01*
X4318000Y-1270000D02*
X4318000Y-2032000D01*
X4826000Y-762000D02*
X4318000Y-1270000D01*
X15240000Y-762000D02*
X4826000Y-762000D01*
%TO.N,NotLow*%
X5334000Y-25654000D02*
X5334000Y-30480000D01*
X3556000Y-25256000D02*
X4936000Y-25256000D01*
X4936000Y-25256000D02*
X5334000Y-25654000D01*
%TO.N,EN{slash}ESP*%
X18759000Y-22051695D02*
X18759000Y-23922305D01*
X18759000Y-23922305D02*
X18334305Y-24347000D01*
X18334305Y-24347000D02*
X8345000Y-24347000D01*
X8345000Y-24347000D02*
X3556000Y-19558000D01*
X21082000Y-9652000D02*
X21082000Y-19728695D01*
X21082000Y-19728695D02*
X18759000Y-22051695D01*
%TO.N,GND*%
X24892000Y-5588000D02*
X24384000Y-5080000D01*
X10668000Y-28194000D02*
X16256000Y-28194000D01*
X24892000Y-17272000D02*
X24892000Y-5588000D01*
%TD*%
%TA.AperFunction,Conductor*%
%TO.N,GND*%
G36*
X34813677Y-273685D02*
G01*
X34834319Y-290319D01*
X35269681Y-725681D01*
X35303166Y-787004D01*
X35306000Y-813362D01*
X35306000Y-39318638D01*
X35286315Y-39385677D01*
X35269681Y-39406319D01*
X34834319Y-39841681D01*
X34772996Y-39875166D01*
X34746638Y-39878000D01*
X813362Y-39878000D01*
X746323Y-39858315D01*
X725681Y-39841681D01*
X290319Y-39406319D01*
X256834Y-39344996D01*
X254000Y-39318638D01*
X254000Y-36068000D01*
X2966551Y-36068000D01*
X2986317Y-36319151D01*
X3045126Y-36564110D01*
X3141533Y-36796859D01*
X3273160Y-37011653D01*
X3273161Y-37011656D01*
X3273164Y-37011659D01*
X3436776Y-37203224D01*
X3585066Y-37329875D01*
X3628343Y-37366838D01*
X3628346Y-37366839D01*
X3843140Y-37498466D01*
X4075889Y-37594873D01*
X4320852Y-37653683D01*
X4476950Y-37665968D01*
X4509116Y-37668500D01*
X4509118Y-37668500D01*
X4634884Y-37668500D01*
X4664518Y-37666167D01*
X4823148Y-37653683D01*
X5068111Y-37594873D01*
X5300859Y-37498466D01*
X5515659Y-37366836D01*
X5707224Y-37203224D01*
X5870836Y-37011659D01*
X6002466Y-36796859D01*
X6098873Y-36564111D01*
X6157683Y-36319148D01*
X6177449Y-36068000D01*
X6157683Y-35816852D01*
X6098873Y-35571889D01*
X6002466Y-35339141D01*
X6002466Y-35339140D01*
X5870839Y-35124346D01*
X5870838Y-35124343D01*
X5833875Y-35081066D01*
X5707224Y-34932776D01*
X5580571Y-34824604D01*
X5515656Y-34769161D01*
X5515653Y-34769160D01*
X5300859Y-34637533D01*
X5068110Y-34541126D01*
X4823150Y-34482317D01*
X4634884Y-34467500D01*
X4634882Y-34467500D01*
X4509118Y-34467500D01*
X4509116Y-34467500D01*
X4320849Y-34482317D01*
X4075889Y-34541126D01*
X3843140Y-34637533D01*
X3628346Y-34769160D01*
X3628343Y-34769161D01*
X3436776Y-34932776D01*
X3273161Y-35124343D01*
X3273160Y-35124346D01*
X3141533Y-35339140D01*
X3045126Y-35571889D01*
X2986317Y-35816848D01*
X2966551Y-36068000D01*
X254000Y-36068000D01*
X254000Y-25256000D01*
X2650540Y-25256000D01*
X2670326Y-25444256D01*
X2670327Y-25444259D01*
X2728818Y-25624277D01*
X2728821Y-25624284D01*
X2823467Y-25788216D01*
X2925185Y-25901185D01*
X2950129Y-25928888D01*
X3103265Y-26040148D01*
X3103270Y-26040151D01*
X3276192Y-26117142D01*
X3276197Y-26117144D01*
X3461354Y-26156500D01*
X3461355Y-26156500D01*
X3650644Y-26156500D01*
X3650646Y-26156500D01*
X3835803Y-26117144D01*
X4008730Y-26040151D01*
X4161871Y-25928888D01*
X4164788Y-25925647D01*
X4167600Y-25922526D01*
X4227087Y-25885879D01*
X4259748Y-25881500D01*
X4584500Y-25881500D01*
X4651539Y-25901185D01*
X4697294Y-25953989D01*
X4708500Y-26005500D01*
X4708500Y-29781312D01*
X4688815Y-29848351D01*
X4676650Y-29864284D01*
X4601466Y-29947784D01*
X4506821Y-30111715D01*
X4506818Y-30111722D01*
X4448327Y-30291740D01*
X4448326Y-30291744D01*
X4428540Y-30480000D01*
X4448326Y-30668256D01*
X4448327Y-30668259D01*
X4506818Y-30848277D01*
X4506821Y-30848284D01*
X4601467Y-31012216D01*
X4728129Y-31152888D01*
X4881265Y-31264148D01*
X4881270Y-31264151D01*
X5054192Y-31341142D01*
X5054197Y-31341144D01*
X5239354Y-31380500D01*
X5239355Y-31380500D01*
X5428644Y-31380500D01*
X5428646Y-31380500D01*
X5613803Y-31341144D01*
X5786730Y-31264151D01*
X5939871Y-31152888D01*
X6066533Y-31012216D01*
X6161179Y-30848284D01*
X6219674Y-30668256D01*
X6239460Y-30480000D01*
X6219674Y-30291744D01*
X6161179Y-30111716D01*
X6066533Y-29947784D01*
X5991350Y-29864284D01*
X5961120Y-29801292D01*
X5959500Y-29781312D01*
X5959500Y-25736742D01*
X5961224Y-25721122D01*
X5960939Y-25721096D01*
X5961671Y-25713340D01*
X5961673Y-25713333D01*
X5959500Y-25644185D01*
X5959500Y-25614650D01*
X5958631Y-25607772D01*
X5958172Y-25601943D01*
X5956709Y-25555372D01*
X5951122Y-25536144D01*
X5947174Y-25517084D01*
X5944663Y-25497204D01*
X5927512Y-25453887D01*
X5925619Y-25448358D01*
X5912618Y-25403609D01*
X5912616Y-25403606D01*
X5902423Y-25386371D01*
X5893861Y-25368894D01*
X5886487Y-25350270D01*
X5886486Y-25350268D01*
X5859079Y-25312545D01*
X5855888Y-25307686D01*
X5832172Y-25267583D01*
X5832166Y-25267575D01*
X5818007Y-25253417D01*
X5805370Y-25238622D01*
X5793594Y-25222413D01*
X5757690Y-25192710D01*
X5753368Y-25188777D01*
X5436806Y-24872216D01*
X5426981Y-24859952D01*
X5426760Y-24860136D01*
X5421785Y-24854121D01*
X5388813Y-24823159D01*
X5371364Y-24806773D01*
X5360831Y-24796240D01*
X5350475Y-24785883D01*
X5344986Y-24781625D01*
X5340561Y-24777847D01*
X5306582Y-24745938D01*
X5306580Y-24745936D01*
X5306577Y-24745935D01*
X5289029Y-24736288D01*
X5272763Y-24725604D01*
X5256933Y-24713325D01*
X5214168Y-24694818D01*
X5208922Y-24692248D01*
X5168093Y-24669803D01*
X5168092Y-24669802D01*
X5148693Y-24664822D01*
X5130281Y-24658518D01*
X5111898Y-24650562D01*
X5111892Y-24650560D01*
X5065874Y-24643272D01*
X5060152Y-24642087D01*
X5015021Y-24630500D01*
X5015019Y-24630500D01*
X4994984Y-24630500D01*
X4975586Y-24628973D01*
X4968162Y-24627797D01*
X4955805Y-24625840D01*
X4955804Y-24625840D01*
X4909416Y-24630225D01*
X4903578Y-24630500D01*
X4259748Y-24630500D01*
X4192709Y-24610815D01*
X4167600Y-24589474D01*
X4161873Y-24583114D01*
X4161869Y-24583110D01*
X4008734Y-24471851D01*
X4008729Y-24471848D01*
X3835807Y-24394857D01*
X3835802Y-24394855D01*
X3664007Y-24358340D01*
X3650646Y-24355500D01*
X3461354Y-24355500D01*
X3447993Y-24358340D01*
X3276197Y-24394855D01*
X3276192Y-24394857D01*
X3103270Y-24471848D01*
X3103265Y-24471851D01*
X2950129Y-24583111D01*
X2823466Y-24723785D01*
X2728821Y-24887715D01*
X2728818Y-24887722D01*
X2694936Y-24992002D01*
X2670326Y-25067744D01*
X2650540Y-25256000D01*
X254000Y-25256000D01*
X254000Y-15625126D01*
X273685Y-15558087D01*
X326489Y-15512332D01*
X395647Y-15502388D01*
X459203Y-15531413D01*
X465681Y-15537445D01*
X3402443Y-18474207D01*
X3435928Y-18535530D01*
X3430944Y-18605222D01*
X3389072Y-18661155D01*
X3340544Y-18683178D01*
X3276196Y-18696856D01*
X3276192Y-18696857D01*
X3103270Y-18773848D01*
X3103265Y-18773851D01*
X2950129Y-18885111D01*
X2823466Y-19025785D01*
X2728821Y-19189715D01*
X2728818Y-19189722D01*
X2670327Y-19369740D01*
X2670326Y-19369744D01*
X2650540Y-19558000D01*
X2670326Y-19746256D01*
X2670327Y-19746259D01*
X2728818Y-19926277D01*
X2728821Y-19926284D01*
X2823467Y-20090216D01*
X2935356Y-20214481D01*
X2950129Y-20230888D01*
X3103265Y-20342148D01*
X3103270Y-20342151D01*
X3276192Y-20419142D01*
X3276197Y-20419144D01*
X3461354Y-20458500D01*
X3520548Y-20458500D01*
X3587587Y-20478185D01*
X3608229Y-20494819D01*
X7844194Y-24730784D01*
X7854019Y-24743048D01*
X7854240Y-24742866D01*
X7859210Y-24748873D01*
X7859213Y-24748876D01*
X7859214Y-24748877D01*
X7909651Y-24796241D01*
X7930530Y-24817120D01*
X7936004Y-24821366D01*
X7940442Y-24825156D01*
X7974418Y-24857062D01*
X7974422Y-24857064D01*
X7991973Y-24866713D01*
X8008231Y-24877392D01*
X8024064Y-24889674D01*
X8046015Y-24899172D01*
X8066837Y-24908183D01*
X8072081Y-24910752D01*
X8112908Y-24933197D01*
X8132312Y-24938179D01*
X8150710Y-24944478D01*
X8169105Y-24952438D01*
X8215129Y-24959726D01*
X8220832Y-24960907D01*
X8265981Y-24972500D01*
X8286016Y-24972500D01*
X8305413Y-24974026D01*
X8325196Y-24977160D01*
X8371584Y-24972775D01*
X8377422Y-24972500D01*
X18251562Y-24972500D01*
X18267182Y-24974224D01*
X18267209Y-24973939D01*
X18274965Y-24974671D01*
X18274972Y-24974673D01*
X18344119Y-24972500D01*
X18373655Y-24972500D01*
X18380533Y-24971630D01*
X18386346Y-24971172D01*
X18432932Y-24969709D01*
X18452174Y-24964117D01*
X18471217Y-24960174D01*
X18491097Y-24957664D01*
X18534427Y-24940507D01*
X18539951Y-24938617D01*
X18543701Y-24937527D01*
X18584695Y-24925618D01*
X18601934Y-24915422D01*
X18619408Y-24906862D01*
X18638032Y-24899488D01*
X18638032Y-24899487D01*
X18638037Y-24899486D01*
X18675754Y-24872082D01*
X18680610Y-24868892D01*
X18720725Y-24845170D01*
X18734894Y-24830999D01*
X18749684Y-24818368D01*
X18765892Y-24806594D01*
X18795604Y-24770676D01*
X18799517Y-24766376D01*
X19142785Y-24423108D01*
X19155041Y-24413292D01*
X19154858Y-24413070D01*
X19160875Y-24408092D01*
X19160874Y-24408092D01*
X19160877Y-24408091D01*
X19185251Y-24382134D01*
X19208227Y-24357669D01*
X19218671Y-24347223D01*
X19229120Y-24336776D01*
X19233379Y-24331283D01*
X19237152Y-24326866D01*
X19269062Y-24292887D01*
X19278713Y-24275329D01*
X19289396Y-24259066D01*
X19301673Y-24243241D01*
X19320185Y-24200458D01*
X19322738Y-24195246D01*
X19345197Y-24154397D01*
X19350180Y-24134985D01*
X19356481Y-24116585D01*
X19364437Y-24098201D01*
X19371729Y-24052157D01*
X19372906Y-24046476D01*
X19384500Y-24001324D01*
X19384500Y-23981288D01*
X19386027Y-23961887D01*
X19389160Y-23942109D01*
X19384775Y-23895720D01*
X19384500Y-23889882D01*
X19384500Y-22362147D01*
X19404185Y-22295108D01*
X19420819Y-22274466D01*
X20434179Y-21261106D01*
X21465788Y-20229496D01*
X21478042Y-20219681D01*
X21477859Y-20219459D01*
X21483869Y-20214485D01*
X21483877Y-20214481D01*
X21525977Y-20169649D01*
X21586218Y-20134254D01*
X21656031Y-20137046D01*
X21713253Y-20177140D01*
X21736144Y-20222438D01*
X21769104Y-20345444D01*
X21769105Y-20345446D01*
X21769106Y-20345450D01*
X21803469Y-20419142D01*
X21862466Y-20545662D01*
X21862468Y-20545666D01*
X21989170Y-20726615D01*
X21989175Y-20726621D01*
X22145378Y-20882824D01*
X22145384Y-20882829D01*
X22326333Y-21009531D01*
X22326335Y-21009532D01*
X22326338Y-21009534D01*
X22445748Y-21065215D01*
X22455189Y-21069618D01*
X22507628Y-21115790D01*
X22526780Y-21182984D01*
X22506564Y-21249865D01*
X22455189Y-21294382D01*
X22326340Y-21354465D01*
X22326338Y-21354466D01*
X22145377Y-21481175D01*
X21989175Y-21637377D01*
X21862466Y-21818338D01*
X21862465Y-21818340D01*
X21769107Y-22018548D01*
X21769104Y-22018554D01*
X21711930Y-22231929D01*
X21711929Y-22231937D01*
X21692677Y-22451997D01*
X21692677Y-22452002D01*
X21711929Y-22672062D01*
X21711930Y-22672070D01*
X21769104Y-22885445D01*
X21769105Y-22885447D01*
X21769106Y-22885450D01*
X21820889Y-22996500D01*
X21862466Y-23085662D01*
X21862468Y-23085666D01*
X21989170Y-23266615D01*
X21989175Y-23266621D01*
X22145378Y-23422824D01*
X22145384Y-23422829D01*
X22326333Y-23549531D01*
X22326335Y-23549532D01*
X22326338Y-23549534D01*
X22445748Y-23605215D01*
X22455189Y-23609618D01*
X22507628Y-23655790D01*
X22526780Y-23722984D01*
X22506564Y-23789865D01*
X22455189Y-23834382D01*
X22326340Y-23894465D01*
X22326338Y-23894466D01*
X22145377Y-24021175D01*
X21989175Y-24177377D01*
X21862466Y-24358338D01*
X21862465Y-24358340D01*
X21769107Y-24558548D01*
X21769104Y-24558554D01*
X21711930Y-24771929D01*
X21711929Y-24771937D01*
X21692677Y-24991997D01*
X21692677Y-24992002D01*
X21711929Y-25212062D01*
X21711930Y-25212070D01*
X21769104Y-25425445D01*
X21769105Y-25425447D01*
X21769106Y-25425450D01*
X21829690Y-25555373D01*
X21862466Y-25625662D01*
X21862468Y-25625666D01*
X21989170Y-25806615D01*
X21989175Y-25806621D01*
X22145378Y-25962824D01*
X22145384Y-25962829D01*
X22326333Y-26089531D01*
X22326335Y-26089532D01*
X22326338Y-26089534D01*
X22445748Y-26145215D01*
X22455189Y-26149618D01*
X22507628Y-26195790D01*
X22526780Y-26262984D01*
X22506564Y-26329865D01*
X22455189Y-26374382D01*
X22326340Y-26434465D01*
X22326338Y-26434466D01*
X22145377Y-26561175D01*
X21989175Y-26717377D01*
X21862466Y-26898338D01*
X21862465Y-26898340D01*
X21769107Y-27098548D01*
X21769104Y-27098554D01*
X21711930Y-27311929D01*
X21711929Y-27311937D01*
X21692677Y-27531997D01*
X21692677Y-27532002D01*
X21711929Y-27752062D01*
X21711930Y-27752070D01*
X21769104Y-27965445D01*
X21769105Y-27965447D01*
X21769106Y-27965450D01*
X21862466Y-28165662D01*
X21862468Y-28165666D01*
X21989170Y-28346615D01*
X21989175Y-28346621D01*
X22145378Y-28502824D01*
X22145384Y-28502829D01*
X22326333Y-28629531D01*
X22326335Y-28629532D01*
X22326338Y-28629534D01*
X22526550Y-28722894D01*
X22739932Y-28780070D01*
X22897123Y-28793822D01*
X22959998Y-28799323D01*
X22960000Y-28799323D01*
X22960002Y-28799323D01*
X23015017Y-28794509D01*
X23180068Y-28780070D01*
X23393450Y-28722894D01*
X23593662Y-28629534D01*
X23774620Y-28502826D01*
X23930826Y-28346620D01*
X24057534Y-28165662D01*
X24150894Y-27965450D01*
X24208070Y-27752068D01*
X24227323Y-27532000D01*
X24208070Y-27311932D01*
X24150894Y-27098550D01*
X24057534Y-26898339D01*
X23930826Y-26717380D01*
X23774620Y-26561174D01*
X23774616Y-26561171D01*
X23774615Y-26561170D01*
X23593666Y-26434468D01*
X23593658Y-26434464D01*
X23464811Y-26374382D01*
X23412371Y-26328210D01*
X23393219Y-26261017D01*
X23413435Y-26194135D01*
X23464811Y-26149618D01*
X23470802Y-26146824D01*
X23593662Y-26089534D01*
X23774620Y-25962826D01*
X23930826Y-25806620D01*
X24057534Y-25625662D01*
X24150894Y-25425450D01*
X24208070Y-25212068D01*
X24227323Y-24992002D01*
X31852677Y-24992002D01*
X31871929Y-25212062D01*
X31871930Y-25212070D01*
X31929104Y-25425445D01*
X31929105Y-25425447D01*
X31929106Y-25425450D01*
X31989690Y-25555373D01*
X32022466Y-25625662D01*
X32022468Y-25625666D01*
X32149170Y-25806615D01*
X32149175Y-25806621D01*
X32305378Y-25962824D01*
X32305384Y-25962829D01*
X32486333Y-26089531D01*
X32486335Y-26089532D01*
X32486338Y-26089534D01*
X32686550Y-26182894D01*
X32899932Y-26240070D01*
X33057123Y-26253822D01*
X33119998Y-26259323D01*
X33120000Y-26259323D01*
X33120002Y-26259323D01*
X33175017Y-26254509D01*
X33340068Y-26240070D01*
X33553450Y-26182894D01*
X33753662Y-26089534D01*
X33934620Y-25962826D01*
X34090826Y-25806620D01*
X34217534Y-25625662D01*
X34310894Y-25425450D01*
X34368070Y-25212068D01*
X34387323Y-24992000D01*
X34384499Y-24959726D01*
X34378200Y-24887722D01*
X34368070Y-24771932D01*
X34310894Y-24558550D01*
X34217534Y-24358339D01*
X34136941Y-24243240D01*
X34090827Y-24177381D01*
X34030023Y-24116577D01*
X33934620Y-24021174D01*
X33934616Y-24021171D01*
X33934615Y-24021170D01*
X33753666Y-23894468D01*
X33753658Y-23894464D01*
X33624811Y-23834382D01*
X33572371Y-23788210D01*
X33553219Y-23721017D01*
X33573435Y-23654135D01*
X33624811Y-23609618D01*
X33630802Y-23606824D01*
X33753662Y-23549534D01*
X33934620Y-23422826D01*
X34090826Y-23266620D01*
X34217534Y-23085662D01*
X34310894Y-22885450D01*
X34368070Y-22672068D01*
X34387323Y-22452000D01*
X34368070Y-22231932D01*
X34310894Y-22018550D01*
X34217534Y-21818339D01*
X34139445Y-21706815D01*
X34090827Y-21637381D01*
X34021294Y-21567848D01*
X33934620Y-21481174D01*
X33934616Y-21481171D01*
X33934615Y-21481170D01*
X33753666Y-21354468D01*
X33753658Y-21354464D01*
X33624811Y-21294382D01*
X33572371Y-21248210D01*
X33553219Y-21181017D01*
X33573435Y-21114135D01*
X33624811Y-21069618D01*
X33630802Y-21066824D01*
X33753662Y-21009534D01*
X33934620Y-20882826D01*
X34090826Y-20726620D01*
X34217534Y-20545662D01*
X34310894Y-20345450D01*
X34368070Y-20132068D01*
X34383055Y-19960787D01*
X34387323Y-19912002D01*
X34387323Y-19911997D01*
X34372823Y-19746259D01*
X34368070Y-19691932D01*
X34310894Y-19478550D01*
X34217534Y-19278339D01*
X34146925Y-19177498D01*
X34090827Y-19097381D01*
X34019230Y-19025784D01*
X33934620Y-18941174D01*
X33934616Y-18941171D01*
X33934615Y-18941170D01*
X33753666Y-18814468D01*
X33753658Y-18814464D01*
X33624811Y-18754382D01*
X33572371Y-18708210D01*
X33553219Y-18641017D01*
X33573435Y-18574135D01*
X33624811Y-18529618D01*
X33630802Y-18526824D01*
X33753662Y-18469534D01*
X33934620Y-18342826D01*
X34090826Y-18186620D01*
X34217534Y-18005662D01*
X34310894Y-17805450D01*
X34368070Y-17592068D01*
X34387323Y-17372000D01*
X34384532Y-17340102D01*
X34373748Y-17216838D01*
X34368070Y-17151932D01*
X34310894Y-16938550D01*
X34217534Y-16738339D01*
X34090826Y-16557380D01*
X33934620Y-16401174D01*
X33934616Y-16401171D01*
X33934615Y-16401170D01*
X33753666Y-16274468D01*
X33753658Y-16274464D01*
X33624811Y-16214382D01*
X33572371Y-16168210D01*
X33553219Y-16101017D01*
X33573435Y-16034135D01*
X33624811Y-15989618D01*
X33630802Y-15986824D01*
X33753662Y-15929534D01*
X33934620Y-15802826D01*
X34090826Y-15646620D01*
X34217534Y-15465662D01*
X34310894Y-15265450D01*
X34368070Y-15052068D01*
X34387323Y-14832000D01*
X34385871Y-14815407D01*
X34369549Y-14628841D01*
X34368070Y-14611932D01*
X34310894Y-14398550D01*
X34217534Y-14198339D01*
X34146925Y-14097498D01*
X34090827Y-14017381D01*
X34090823Y-14017377D01*
X33934620Y-13861174D01*
X33934616Y-13861171D01*
X33934615Y-13861170D01*
X33753666Y-13734468D01*
X33753662Y-13734466D01*
X33753658Y-13734464D01*
X33553450Y-13641106D01*
X33553447Y-13641105D01*
X33553445Y-13641104D01*
X33340070Y-13583930D01*
X33340062Y-13583929D01*
X33120002Y-13564677D01*
X33119998Y-13564677D01*
X32899937Y-13583929D01*
X32899929Y-13583930D01*
X32686554Y-13641104D01*
X32686548Y-13641107D01*
X32486340Y-13734465D01*
X32486338Y-13734466D01*
X32305377Y-13861175D01*
X32149175Y-14017377D01*
X32022466Y-14198338D01*
X32022465Y-14198340D01*
X31929107Y-14398548D01*
X31929104Y-14398554D01*
X31871930Y-14611929D01*
X31871929Y-14611937D01*
X31852677Y-14831997D01*
X31852677Y-14832002D01*
X31871929Y-15052062D01*
X31871930Y-15052070D01*
X31929104Y-15265445D01*
X31929105Y-15265447D01*
X31929106Y-15265450D01*
X31948182Y-15306358D01*
X32022466Y-15465662D01*
X32022468Y-15465666D01*
X32149170Y-15646615D01*
X32149175Y-15646621D01*
X32305378Y-15802824D01*
X32305384Y-15802829D01*
X32486333Y-15929531D01*
X32486335Y-15929532D01*
X32486338Y-15929534D01*
X32605748Y-15985215D01*
X32615189Y-15989618D01*
X32667628Y-16035790D01*
X32686780Y-16102984D01*
X32666564Y-16169865D01*
X32615189Y-16214382D01*
X32486340Y-16274465D01*
X32486338Y-16274466D01*
X32305377Y-16401175D01*
X32149175Y-16557377D01*
X32022466Y-16738338D01*
X32022465Y-16738340D01*
X31929107Y-16938548D01*
X31929104Y-16938554D01*
X31871930Y-17151929D01*
X31871929Y-17151937D01*
X31852677Y-17371997D01*
X31852677Y-17372002D01*
X31871929Y-17592062D01*
X31871930Y-17592070D01*
X31929104Y-17805445D01*
X31929105Y-17805447D01*
X31929106Y-17805450D01*
X32022348Y-18005408D01*
X32022466Y-18005662D01*
X32022468Y-18005666D01*
X32149170Y-18186615D01*
X32149175Y-18186621D01*
X32305378Y-18342824D01*
X32305384Y-18342829D01*
X32486333Y-18469531D01*
X32486335Y-18469532D01*
X32486338Y-18469534D01*
X32605748Y-18525215D01*
X32615189Y-18529618D01*
X32667628Y-18575790D01*
X32686780Y-18642984D01*
X32666564Y-18709865D01*
X32615189Y-18754382D01*
X32486340Y-18814465D01*
X32486338Y-18814466D01*
X32305377Y-18941175D01*
X32149175Y-19097377D01*
X32022466Y-19278338D01*
X32022465Y-19278340D01*
X31929107Y-19478548D01*
X31929104Y-19478554D01*
X31871930Y-19691929D01*
X31871929Y-19691937D01*
X31852677Y-19911997D01*
X31852677Y-19912002D01*
X31871929Y-20132062D01*
X31871930Y-20132070D01*
X31929104Y-20345445D01*
X31929105Y-20345447D01*
X31929106Y-20345450D01*
X31963469Y-20419142D01*
X32022466Y-20545662D01*
X32022468Y-20545666D01*
X32149170Y-20726615D01*
X32149175Y-20726621D01*
X32305378Y-20882824D01*
X32305384Y-20882829D01*
X32486333Y-21009531D01*
X32486335Y-21009532D01*
X32486338Y-21009534D01*
X32605748Y-21065215D01*
X32615189Y-21069618D01*
X32667628Y-21115790D01*
X32686780Y-21182984D01*
X32666564Y-21249865D01*
X32615189Y-21294382D01*
X32486340Y-21354465D01*
X32486338Y-21354466D01*
X32305377Y-21481175D01*
X32149175Y-21637377D01*
X32022466Y-21818338D01*
X32022465Y-21818340D01*
X31929107Y-22018548D01*
X31929104Y-22018554D01*
X31871930Y-22231929D01*
X31871929Y-22231937D01*
X31852677Y-22451997D01*
X31852677Y-22452002D01*
X31871929Y-22672062D01*
X31871930Y-22672070D01*
X31929104Y-22885445D01*
X31929105Y-22885447D01*
X31929106Y-22885450D01*
X31980889Y-22996500D01*
X32022466Y-23085662D01*
X32022468Y-23085666D01*
X32149170Y-23266615D01*
X32149175Y-23266621D01*
X32305378Y-23422824D01*
X32305384Y-23422829D01*
X32486333Y-23549531D01*
X32486335Y-23549532D01*
X32486338Y-23549534D01*
X32605748Y-23605215D01*
X32615189Y-23609618D01*
X32667628Y-23655790D01*
X32686780Y-23722984D01*
X32666564Y-23789865D01*
X32615189Y-23834382D01*
X32486340Y-23894465D01*
X32486338Y-23894466D01*
X32305377Y-24021175D01*
X32149175Y-24177377D01*
X32022466Y-24358338D01*
X32022465Y-24358340D01*
X31929107Y-24558548D01*
X31929104Y-24558554D01*
X31871930Y-24771929D01*
X31871929Y-24771937D01*
X31852677Y-24991997D01*
X31852677Y-24992002D01*
X24227323Y-24992002D01*
X24227323Y-24992000D01*
X24224499Y-24959726D01*
X24218200Y-24887722D01*
X24208070Y-24771932D01*
X24150894Y-24558550D01*
X24057534Y-24358339D01*
X23976941Y-24243240D01*
X23930827Y-24177381D01*
X23870023Y-24116577D01*
X23774620Y-24021174D01*
X23774616Y-24021171D01*
X23774615Y-24021170D01*
X23593666Y-23894468D01*
X23593658Y-23894464D01*
X23464811Y-23834382D01*
X23412371Y-23788210D01*
X23393219Y-23721017D01*
X23413435Y-23654135D01*
X23464811Y-23609618D01*
X23470802Y-23606824D01*
X23593662Y-23549534D01*
X23774620Y-23422826D01*
X23930826Y-23266620D01*
X24057534Y-23085662D01*
X24150894Y-22885450D01*
X24208070Y-22672068D01*
X24227323Y-22452000D01*
X24208070Y-22231932D01*
X24150894Y-22018550D01*
X24057534Y-21818339D01*
X23979445Y-21706815D01*
X23930827Y-21637381D01*
X23861294Y-21567848D01*
X23774620Y-21481174D01*
X23774616Y-21481171D01*
X23774615Y-21481170D01*
X23593666Y-21354468D01*
X23593658Y-21354464D01*
X23464811Y-21294382D01*
X23412371Y-21248210D01*
X23393219Y-21181017D01*
X23413435Y-21114135D01*
X23464811Y-21069618D01*
X23470802Y-21066824D01*
X23593662Y-21009534D01*
X23774620Y-20882826D01*
X23930826Y-20726620D01*
X24057534Y-20545662D01*
X24150894Y-20345450D01*
X24208070Y-20132068D01*
X24223055Y-19960787D01*
X24227323Y-19912002D01*
X24227323Y-19911997D01*
X24212823Y-19746259D01*
X24208070Y-19691932D01*
X24150894Y-19478550D01*
X24057534Y-19278339D01*
X23986925Y-19177498D01*
X23930827Y-19097381D01*
X23859230Y-19025784D01*
X23774620Y-18941174D01*
X23774616Y-18941171D01*
X23774615Y-18941170D01*
X23593666Y-18814468D01*
X23593658Y-18814464D01*
X23464219Y-18754106D01*
X23411779Y-18707934D01*
X23392627Y-18640741D01*
X23412843Y-18573859D01*
X23464219Y-18529342D01*
X23593408Y-18469100D01*
X23593420Y-18469093D01*
X23658186Y-18423742D01*
X23658187Y-18423740D01*
X22987448Y-17753000D01*
X22991569Y-17753000D01*
X23085421Y-17737339D01*
X23197251Y-17676820D01*
X23283371Y-17583269D01*
X23334448Y-17466823D01*
X23340105Y-17398552D01*
X24011740Y-18070187D01*
X24011742Y-18070186D01*
X24057093Y-18005420D01*
X24057100Y-18005408D01*
X24150419Y-17805284D01*
X24150424Y-17805270D01*
X24207573Y-17591986D01*
X24207575Y-17591976D01*
X24226821Y-17372000D01*
X24226821Y-17371999D01*
X24207575Y-17152023D01*
X24207573Y-17152013D01*
X24150424Y-16938729D01*
X24150420Y-16938720D01*
X24057098Y-16738590D01*
X24011740Y-16673811D01*
X23344903Y-17340648D01*
X23344949Y-17340102D01*
X23313734Y-17216838D01*
X23244187Y-17110388D01*
X23143843Y-17032287D01*
X23023578Y-16991000D01*
X22987447Y-16991000D01*
X23658187Y-16320258D01*
X23593409Y-16274900D01*
X23593407Y-16274899D01*
X23464219Y-16214658D01*
X23411779Y-16168486D01*
X23392627Y-16101293D01*
X23412843Y-16034411D01*
X23464219Y-15989894D01*
X23464811Y-15989618D01*
X23593662Y-15929534D01*
X23774620Y-15802826D01*
X23930826Y-15646620D01*
X24057534Y-15465662D01*
X24150894Y-15265450D01*
X24208070Y-15052068D01*
X24227323Y-14832000D01*
X24225871Y-14815407D01*
X24209549Y-14628841D01*
X24208070Y-14611932D01*
X24150894Y-14398550D01*
X24057534Y-14198339D01*
X23986925Y-14097498D01*
X23930827Y-14017381D01*
X23930823Y-14017377D01*
X23774620Y-13861174D01*
X23774616Y-13861171D01*
X23774615Y-13861170D01*
X23593666Y-13734468D01*
X23593658Y-13734464D01*
X23464811Y-13674382D01*
X23412371Y-13628210D01*
X23393219Y-13561017D01*
X23413435Y-13494135D01*
X23464811Y-13449618D01*
X23470802Y-13446824D01*
X23593662Y-13389534D01*
X23774620Y-13262826D01*
X23930826Y-13106620D01*
X24057534Y-12925662D01*
X24150894Y-12725450D01*
X24208070Y-12512068D01*
X24227323Y-12292000D01*
X24208070Y-12071932D01*
X24150894Y-11858550D01*
X24057534Y-11658339D01*
X23986925Y-11557498D01*
X23930827Y-11477381D01*
X23930823Y-11477377D01*
X23774620Y-11321174D01*
X23774616Y-11321171D01*
X23774615Y-11321170D01*
X23593666Y-11194468D01*
X23593662Y-11194466D01*
X23593660Y-11194465D01*
X23393450Y-11101106D01*
X23393447Y-11101105D01*
X23393445Y-11101104D01*
X23180070Y-11043930D01*
X23180062Y-11043929D01*
X22960002Y-11024677D01*
X22959998Y-11024677D01*
X22739937Y-11043929D01*
X22739929Y-11043930D01*
X22526554Y-11101104D01*
X22526548Y-11101107D01*
X22326340Y-11194465D01*
X22326338Y-11194466D01*
X22145377Y-11321175D01*
X21989175Y-11477377D01*
X21933075Y-11557498D01*
X21878499Y-11601123D01*
X21809000Y-11608317D01*
X21746645Y-11576794D01*
X21711231Y-11516565D01*
X21707500Y-11486375D01*
X21707500Y-10350687D01*
X21727185Y-10283648D01*
X21739350Y-10267715D01*
X21757891Y-10247122D01*
X21814533Y-10184216D01*
X21909179Y-10020284D01*
X21967674Y-9840256D01*
X21987460Y-9652000D01*
X21967674Y-9463744D01*
X21909179Y-9283716D01*
X21814533Y-9119784D01*
X21687871Y-8979112D01*
X21687870Y-8979111D01*
X21534734Y-8867851D01*
X21534729Y-8867848D01*
X21361807Y-8790857D01*
X21361802Y-8790855D01*
X21216001Y-8759865D01*
X21176646Y-8751500D01*
X20987354Y-8751500D01*
X20954897Y-8758398D01*
X20802197Y-8790855D01*
X20802192Y-8790857D01*
X20629270Y-8867848D01*
X20629265Y-8867851D01*
X20476129Y-8979111D01*
X20349466Y-9119785D01*
X20254821Y-9283715D01*
X20254818Y-9283722D01*
X20196327Y-9463740D01*
X20196326Y-9463744D01*
X20176540Y-9652000D01*
X20196326Y-9840256D01*
X20196327Y-9840259D01*
X20254818Y-10020277D01*
X20254821Y-10020284D01*
X20349467Y-10184216D01*
X20392772Y-10232310D01*
X20424650Y-10267715D01*
X20454880Y-10330706D01*
X20456500Y-10350687D01*
X20456500Y-19418241D01*
X20436815Y-19485280D01*
X20420181Y-19505922D01*
X18458095Y-21468007D01*
X18396772Y-21501492D01*
X18327080Y-21496508D01*
X18319976Y-21493604D01*
X18313808Y-21490857D01*
X18313802Y-21490855D01*
X18168001Y-21459865D01*
X18128646Y-21451500D01*
X17939354Y-21451500D01*
X17906897Y-21458398D01*
X17754197Y-21490855D01*
X17754192Y-21490857D01*
X17581270Y-21567848D01*
X17581265Y-21567851D01*
X17428130Y-21679110D01*
X17428126Y-21679114D01*
X17422400Y-21685474D01*
X17362913Y-21722121D01*
X17330252Y-21726500D01*
X9111675Y-21726500D01*
X9044636Y-21706815D01*
X9023994Y-21690181D01*
X2701494Y-15367681D01*
X2668009Y-15306358D01*
X2672993Y-15236666D01*
X2714865Y-15180733D01*
X2780329Y-15156316D01*
X2789175Y-15156000D01*
X19782000Y-15156000D01*
X19782000Y-9156000D01*
X1782000Y-9156000D01*
X1776861Y-9156000D01*
X1726858Y-9183304D01*
X1657166Y-9178320D01*
X1601233Y-9136448D01*
X1576816Y-9070984D01*
X1576500Y-9062138D01*
X1576500Y-6901276D01*
X1639962Y-6949201D01*
X1747840Y-6979895D01*
X1859521Y-6969546D01*
X1959922Y-6919552D01*
X2026000Y-6847069D01*
X2026000Y-7649366D01*
X2027944Y-7649069D01*
X2027945Y-7649069D01*
X2218660Y-7578436D01*
X2218664Y-7578434D01*
X2391267Y-7470850D01*
X2538668Y-7330735D01*
X2538669Y-7330733D01*
X2654856Y-7163804D01*
X2735059Y-6976907D01*
X2776000Y-6777690D01*
X2776000Y-6226384D01*
X2795685Y-6159345D01*
X2848489Y-6113590D01*
X2917647Y-6103646D01*
X2947454Y-6111823D01*
X3055764Y-6156687D01*
X3168280Y-6171500D01*
X3168287Y-6171500D01*
X3243713Y-6171500D01*
X3243720Y-6171500D01*
X3356236Y-6156687D01*
X3496233Y-6098698D01*
X3616451Y-6006451D01*
X3708698Y-5886233D01*
X3766687Y-5746236D01*
X3786466Y-5596000D01*
X3766687Y-5445764D01*
X3708698Y-5305767D01*
X3616451Y-5185549D01*
X3496233Y-5093302D01*
X3496229Y-5093300D01*
X3432801Y-5067027D01*
X3356236Y-5035313D01*
X3342171Y-5033461D01*
X3243727Y-5020500D01*
X3243720Y-5020500D01*
X3168280Y-5020500D01*
X3168272Y-5020500D01*
X3055764Y-5035313D01*
X3055763Y-5035313D01*
X2915769Y-5093300D01*
X2893821Y-5110142D01*
X2844743Y-5147800D01*
X2779575Y-5172994D01*
X2711131Y-5158956D01*
X2661141Y-5110142D01*
X2660839Y-5109602D01*
X2600996Y-5001787D01*
X2508697Y-4894270D01*
X2479966Y-4830581D01*
X2490228Y-4761469D01*
X2536226Y-4708876D01*
X2602784Y-4689500D01*
X4630252Y-4689500D01*
X4697291Y-4709185D01*
X4722400Y-4730526D01*
X4728126Y-4736885D01*
X4728130Y-4736889D01*
X4881265Y-4848148D01*
X4881270Y-4848151D01*
X5054192Y-4925142D01*
X5054197Y-4925144D01*
X5239354Y-4964500D01*
X5239355Y-4964500D01*
X5428644Y-4964500D01*
X5428646Y-4964500D01*
X5613803Y-4925144D01*
X5786730Y-4848151D01*
X5939871Y-4736888D01*
X6066533Y-4596216D01*
X6161179Y-4432284D01*
X6199475Y-4314420D01*
X6238912Y-4256746D01*
X6303271Y-4229547D01*
X6372117Y-4241461D01*
X6423593Y-4288705D01*
X6440726Y-4339775D01*
X6460326Y-4526256D01*
X6460327Y-4526259D01*
X6518818Y-4706277D01*
X6518821Y-4706284D01*
X6613467Y-4870216D01*
X6704773Y-4971621D01*
X6740129Y-5010888D01*
X6893265Y-5122148D01*
X6893270Y-5122151D01*
X7066192Y-5199142D01*
X7066197Y-5199144D01*
X7251354Y-5238500D01*
X7251355Y-5238500D01*
X7440644Y-5238500D01*
X7440646Y-5238500D01*
X7625803Y-5199144D01*
X7798730Y-5122151D01*
X7951871Y-5010888D01*
X7954788Y-5007647D01*
X7957600Y-5004526D01*
X8017087Y-4967879D01*
X8049748Y-4963500D01*
X8499637Y-4963500D01*
X8566676Y-4983185D01*
X8612431Y-5035989D01*
X8622375Y-5105147D01*
X8593350Y-5168703D01*
X8576821Y-5184276D01*
X8575553Y-5185544D01*
X8575549Y-5185548D01*
X8575549Y-5185549D01*
X8485580Y-5302799D01*
X8483300Y-5305770D01*
X8425313Y-5445763D01*
X8425312Y-5445765D01*
X8405534Y-5595999D01*
X8405534Y-5596000D01*
X8425312Y-5746234D01*
X8425313Y-5746236D01*
X8476925Y-5870839D01*
X8483302Y-5886233D01*
X8575549Y-6006451D01*
X8695767Y-6098698D01*
X8835764Y-6156687D01*
X8948280Y-6171500D01*
X8948287Y-6171500D01*
X9023713Y-6171500D01*
X9023720Y-6171500D01*
X9136236Y-6156687D01*
X9244547Y-6111823D01*
X9314017Y-6104354D01*
X9376496Y-6135629D01*
X9412148Y-6195718D01*
X9416000Y-6226384D01*
X9416000Y-6726713D01*
X9431418Y-6878338D01*
X9492299Y-7072381D01*
X9492304Y-7072391D01*
X9591005Y-7250215D01*
X9591005Y-7250216D01*
X9723478Y-7404530D01*
X9723479Y-7404531D01*
X9884304Y-7529018D01*
X10066907Y-7618589D01*
X10166000Y-7644244D01*
X10166000Y-6842110D01*
X10190457Y-6881610D01*
X10279962Y-6949201D01*
X10387840Y-6979895D01*
X10499521Y-6969546D01*
X10599922Y-6919552D01*
X10666000Y-6847069D01*
X10666000Y-7649366D01*
X10667944Y-7649069D01*
X10667945Y-7649069D01*
X10858660Y-7578436D01*
X10858664Y-7578434D01*
X11031267Y-7470850D01*
X11178668Y-7330735D01*
X11178669Y-7330733D01*
X11294856Y-7163804D01*
X11375059Y-6976907D01*
X11416000Y-6777690D01*
X11416000Y-6376000D01*
X10716000Y-6376000D01*
X10716000Y-5876000D01*
X11416000Y-5876000D01*
X11416000Y-5525286D01*
X11400581Y-5373661D01*
X11339700Y-5179618D01*
X11339695Y-5179608D01*
X11321973Y-5147678D01*
X11306650Y-5079509D01*
X11330614Y-5013877D01*
X11386256Y-4971621D01*
X11430392Y-4963500D01*
X15649476Y-4963500D01*
X15665096Y-4965224D01*
X15665123Y-4964939D01*
X15672879Y-4965671D01*
X15672886Y-4965673D01*
X15742033Y-4963500D01*
X15771569Y-4963500D01*
X15778447Y-4962630D01*
X15784260Y-4962172D01*
X15830846Y-4960709D01*
X15850088Y-4955117D01*
X15869131Y-4951174D01*
X15889011Y-4948664D01*
X15932341Y-4931507D01*
X15937865Y-4929617D01*
X15953268Y-4925142D01*
X15982609Y-4916618D01*
X15999848Y-4906422D01*
X16017322Y-4897862D01*
X16035946Y-4890488D01*
X16035946Y-4890487D01*
X16035951Y-4890486D01*
X16073668Y-4863082D01*
X16078524Y-4859892D01*
X16118639Y-4836170D01*
X16132808Y-4821999D01*
X16147598Y-4809368D01*
X16163806Y-4797594D01*
X16193518Y-4761676D01*
X16197431Y-4757376D01*
X16382807Y-4572000D01*
X29890551Y-4572000D01*
X29910317Y-4823151D01*
X29969126Y-5068110D01*
X30065533Y-5300859D01*
X30197160Y-5515653D01*
X30197161Y-5515656D01*
X30197164Y-5515659D01*
X30360776Y-5707224D01*
X30509066Y-5833875D01*
X30552343Y-5870838D01*
X30552346Y-5870839D01*
X30767140Y-6002466D01*
X30999467Y-6098698D01*
X30999889Y-6098873D01*
X31244852Y-6157683D01*
X31400950Y-6169968D01*
X31433116Y-6172500D01*
X31433118Y-6172500D01*
X31558884Y-6172500D01*
X31588518Y-6170167D01*
X31747148Y-6157683D01*
X31992111Y-6098873D01*
X32224859Y-6002466D01*
X32439659Y-5870836D01*
X32631224Y-5707224D01*
X32794836Y-5515659D01*
X32926466Y-5300859D01*
X33022873Y-5068111D01*
X33081683Y-4823148D01*
X33101449Y-4572000D01*
X33081683Y-4320852D01*
X33022873Y-4075889D01*
X32966948Y-3940874D01*
X32926466Y-3843140D01*
X32794839Y-3628346D01*
X32794838Y-3628343D01*
X32753733Y-3580216D01*
X32631224Y-3436776D01*
X32482485Y-3309741D01*
X32439656Y-3273161D01*
X32439653Y-3273160D01*
X32224859Y-3141533D01*
X31992110Y-3045126D01*
X31747150Y-2986317D01*
X31558884Y-2971500D01*
X31558882Y-2971500D01*
X31433118Y-2971500D01*
X31433116Y-2971500D01*
X31244849Y-2986317D01*
X30999889Y-3045126D01*
X30767140Y-3141533D01*
X30552346Y-3273160D01*
X30552343Y-3273161D01*
X30360776Y-3436776D01*
X30197161Y-3628343D01*
X30197160Y-3628346D01*
X30065533Y-3843140D01*
X29969126Y-4075889D01*
X29910317Y-4320848D01*
X29890551Y-4572000D01*
X16382807Y-4572000D01*
X17786272Y-3168538D01*
X17847595Y-3135053D01*
X17873953Y-3132219D01*
X17933144Y-3132219D01*
X17933146Y-3132219D01*
X18118303Y-3092863D01*
X18291230Y-3015870D01*
X18444371Y-2904607D01*
X18571033Y-2763935D01*
X18665679Y-2600003D01*
X18724174Y-2419975D01*
X18743960Y-2231719D01*
X18724174Y-2043463D01*
X18665679Y-1863435D01*
X18571033Y-1699503D01*
X18444371Y-1558831D01*
X18437851Y-1554094D01*
X18291234Y-1447570D01*
X18291229Y-1447567D01*
X18118307Y-1370576D01*
X18118302Y-1370574D01*
X17960795Y-1337096D01*
X17933146Y-1331219D01*
X17743854Y-1331219D01*
X17716205Y-1337096D01*
X17558697Y-1370574D01*
X17558692Y-1370576D01*
X17385770Y-1447567D01*
X17385765Y-1447570D01*
X17232629Y-1558830D01*
X17105966Y-1699504D01*
X17011321Y-1863434D01*
X17011318Y-1863441D01*
X16952827Y-2043459D01*
X16952826Y-2043463D01*
X16947121Y-2097744D01*
X16935179Y-2211368D01*
X16908594Y-2275982D01*
X16899539Y-2286087D01*
X16860699Y-2324927D01*
X16799376Y-2358412D01*
X16729684Y-2353428D01*
X16673751Y-2311556D01*
X16649698Y-2250210D01*
X16633674Y-2097744D01*
X16575179Y-1917716D01*
X16480533Y-1753784D01*
X16405350Y-1670284D01*
X16375120Y-1607292D01*
X16373500Y-1587312D01*
X16373500Y-1352737D01*
X16375224Y-1337123D01*
X16374938Y-1337096D01*
X16375672Y-1329333D01*
X16373500Y-1260202D01*
X16373500Y-1230651D01*
X16373500Y-1230650D01*
X16372629Y-1223759D01*
X16372172Y-1217945D01*
X16371954Y-1211016D01*
X16370709Y-1171372D01*
X16365120Y-1152137D01*
X16361174Y-1133084D01*
X16358664Y-1113208D01*
X16341501Y-1069859D01*
X16339614Y-1064346D01*
X16331932Y-1037906D01*
X16326617Y-1019610D01*
X16316421Y-1002369D01*
X16307860Y-984893D01*
X16300486Y-966269D01*
X16300486Y-966267D01*
X16290474Y-952488D01*
X16273083Y-928550D01*
X16269900Y-923705D01*
X16246170Y-883579D01*
X16246165Y-883573D01*
X16232005Y-869413D01*
X16219370Y-854620D01*
X16207593Y-838412D01*
X16171693Y-808713D01*
X16167381Y-804790D01*
X15828272Y-465681D01*
X15794787Y-404358D01*
X15799771Y-334666D01*
X15841643Y-278733D01*
X15907107Y-254316D01*
X15915953Y-254000D01*
X34746638Y-254000D01*
X34813677Y-273685D01*
G37*
%TD.AperFunction*%
%TA.AperFunction,Conductor*%
G36*
X22575051Y-17403898D02*
G01*
X22606266Y-17527162D01*
X22675813Y-17633612D01*
X22776157Y-17711713D01*
X22896422Y-17753000D01*
X22932553Y-17753000D01*
X22261811Y-18423741D01*
X22326582Y-18469094D01*
X22326588Y-18469098D01*
X22455781Y-18529342D01*
X22508220Y-18575514D01*
X22527372Y-18642708D01*
X22507156Y-18709589D01*
X22455781Y-18754106D01*
X22326340Y-18814465D01*
X22326338Y-18814466D01*
X22145377Y-18941175D01*
X21989175Y-19097377D01*
X21933075Y-19177498D01*
X21878499Y-19221123D01*
X21809000Y-19228317D01*
X21746645Y-19196794D01*
X21711231Y-19136565D01*
X21707500Y-19106375D01*
X21707500Y-18176752D01*
X21727185Y-18109713D01*
X21779989Y-18063958D01*
X21849147Y-18054014D01*
X21878946Y-18067623D01*
X21908258Y-18070187D01*
X22575096Y-17403349D01*
X22575051Y-17403898D01*
G37*
%TD.AperFunction*%
%TA.AperFunction,Conductor*%
G36*
X21912703Y-15543912D02*
G01*
X21933074Y-15566501D01*
X21946605Y-15585825D01*
X21989170Y-15646615D01*
X21989175Y-15646621D01*
X22145378Y-15802824D01*
X22145384Y-15802829D01*
X22326333Y-15929531D01*
X22326335Y-15929532D01*
X22326338Y-15929534D01*
X22455189Y-15989618D01*
X22455781Y-15989894D01*
X22508220Y-16036066D01*
X22527372Y-16103260D01*
X22507156Y-16170141D01*
X22455781Y-16214658D01*
X22326586Y-16274903D01*
X22261812Y-16320257D01*
X22261811Y-16320258D01*
X22932554Y-16991000D01*
X22928431Y-16991000D01*
X22834579Y-17006661D01*
X22722749Y-17067180D01*
X22636629Y-17160731D01*
X22585552Y-17277177D01*
X22579894Y-17345447D01*
X21908258Y-16673811D01*
X21886334Y-16675730D01*
X21878497Y-16681995D01*
X21808999Y-16689187D01*
X21746644Y-16657664D01*
X21711231Y-16597434D01*
X21707500Y-16567246D01*
X21707500Y-15637625D01*
X21727185Y-15570586D01*
X21779989Y-15524831D01*
X21849147Y-15514887D01*
X21912703Y-15543912D01*
G37*
%TD.AperFunction*%
%TA.AperFunction,Conductor*%
G36*
X4217085Y-273685D02*
G01*
X4262840Y-326489D01*
X4272784Y-395647D01*
X4243759Y-459203D01*
X4237727Y-465681D01*
X3934208Y-769199D01*
X3921951Y-779020D01*
X3922134Y-779241D01*
X3916123Y-784213D01*
X3868772Y-834636D01*
X3847889Y-855519D01*
X3847877Y-855532D01*
X3843621Y-861017D01*
X3839837Y-865447D01*
X3807937Y-899418D01*
X3807936Y-899420D01*
X3798284Y-916976D01*
X3787610Y-933226D01*
X3775329Y-949061D01*
X3775324Y-949068D01*
X3756815Y-991838D01*
X3754245Y-997084D01*
X3731803Y-1037906D01*
X3726822Y-1057307D01*
X3720521Y-1075710D01*
X3712562Y-1094102D01*
X3712561Y-1094105D01*
X3705271Y-1140127D01*
X3704087Y-1145846D01*
X3692501Y-1190972D01*
X3692500Y-1190982D01*
X3692500Y-1211016D01*
X3690973Y-1230415D01*
X3687840Y-1250194D01*
X3687840Y-1250195D01*
X3692225Y-1296583D01*
X3692500Y-1302421D01*
X3692500Y-1333312D01*
X3672815Y-1400351D01*
X3660650Y-1416284D01*
X3585466Y-1499784D01*
X3490821Y-1663715D01*
X3490818Y-1663722D01*
X3432327Y-1843740D01*
X3432326Y-1843744D01*
X3424551Y-1917722D01*
X3412540Y-2032000D01*
X3432326Y-2220257D01*
X3437423Y-2235944D01*
X3445299Y-2260182D01*
X3447294Y-2330022D01*
X3411214Y-2389855D01*
X3348513Y-2420684D01*
X3327368Y-2422500D01*
X2900000Y-2422500D01*
X2832961Y-2402815D01*
X2787206Y-2350011D01*
X2776000Y-2298500D01*
X2776000Y-2196000D01*
X2076000Y-2196000D01*
X2076000Y-1696000D01*
X2776000Y-1696000D01*
X2776000Y-1595286D01*
X2760581Y-1443661D01*
X2699700Y-1249618D01*
X2699695Y-1249608D01*
X2600994Y-1071784D01*
X2600994Y-1071783D01*
X2468521Y-917469D01*
X2468520Y-917468D01*
X2307695Y-792981D01*
X2125093Y-703411D01*
X2026000Y-677753D01*
X2026000Y-1479889D01*
X2001543Y-1440390D01*
X1912038Y-1372799D01*
X1804160Y-1342105D01*
X1692479Y-1352454D01*
X1592078Y-1402448D01*
X1526000Y-1474930D01*
X1526000Y-672633D01*
X1524053Y-672931D01*
X1524047Y-672933D01*
X1333342Y-743562D01*
X1333335Y-743565D01*
X1160732Y-851149D01*
X1013331Y-991264D01*
X1013330Y-991266D01*
X897143Y-1158195D01*
X816940Y-1345092D01*
X776000Y-1544309D01*
X776000Y-1696000D01*
X1476000Y-1696000D01*
X1476000Y-2196000D01*
X776000Y-2196000D01*
X776000Y-2296713D01*
X791418Y-2448338D01*
X852299Y-2642381D01*
X852304Y-2642391D01*
X951003Y-2820212D01*
X1072094Y-2961268D01*
X1100825Y-3024957D01*
X1090563Y-3094069D01*
X1065688Y-3129719D01*
X465681Y-3729727D01*
X404358Y-3763212D01*
X334667Y-3758228D01*
X278733Y-3716357D01*
X254316Y-3650892D01*
X254000Y-3642046D01*
X254000Y-813362D01*
X273685Y-746323D01*
X290319Y-725681D01*
X725681Y-290319D01*
X787004Y-256834D01*
X813362Y-254000D01*
X4150046Y-254000D01*
X4217085Y-273685D01*
G37*
%TD.AperFunction*%
%TA.AperFunction,Conductor*%
G36*
X9363190Y-1407185D02*
G01*
X9408945Y-1459989D01*
X9418889Y-1529147D01*
X9417613Y-1536462D01*
X9416000Y-1544310D01*
X9416000Y-1696000D01*
X10116000Y-1696000D01*
X10116000Y-2196000D01*
X9416000Y-2196000D01*
X9416000Y-2296713D01*
X9431418Y-2448338D01*
X9492299Y-2642381D01*
X9492304Y-2642391D01*
X9591005Y-2820215D01*
X9591005Y-2820216D01*
X9723478Y-2974530D01*
X9723479Y-2974531D01*
X9884304Y-3099018D01*
X10066907Y-3188589D01*
X10166000Y-3214244D01*
X10166000Y-2412110D01*
X10190457Y-2451610D01*
X10279962Y-2519201D01*
X10387840Y-2549895D01*
X10499521Y-2539546D01*
X10599922Y-2489552D01*
X10666000Y-2417069D01*
X10666000Y-3219365D01*
X10667944Y-3219069D01*
X10667945Y-3219069D01*
X10858660Y-3148436D01*
X10858664Y-3148434D01*
X11031267Y-3040850D01*
X11178668Y-2900735D01*
X11178669Y-2900733D01*
X11294856Y-2733804D01*
X11375059Y-2546907D01*
X11416000Y-2347690D01*
X11416000Y-2196000D01*
X10716000Y-2196000D01*
X10716000Y-1696000D01*
X11416000Y-1696000D01*
X11416000Y-1595288D01*
X11408755Y-1524046D01*
X11421556Y-1455359D01*
X11469460Y-1404496D01*
X11532119Y-1387500D01*
X14929548Y-1387500D01*
X14996587Y-1407185D01*
X15017229Y-1423819D01*
X15086181Y-1492771D01*
X15119666Y-1554094D01*
X15122500Y-1580452D01*
X15122500Y-1587312D01*
X15102815Y-1654351D01*
X15090650Y-1670284D01*
X15015466Y-1753784D01*
X14920821Y-1917715D01*
X14920818Y-1917722D01*
X14879964Y-2043459D01*
X14862326Y-2097744D01*
X14842540Y-2286000D01*
X14862326Y-2474256D01*
X14862327Y-2474259D01*
X14920818Y-2654277D01*
X14920821Y-2654284D01*
X15015467Y-2818216D01*
X15089766Y-2900733D01*
X15142129Y-2958888D01*
X15295265Y-3070148D01*
X15295270Y-3070151D01*
X15468192Y-3147142D01*
X15468197Y-3147144D01*
X15653354Y-3186500D01*
X15653355Y-3186500D01*
X15699765Y-3186500D01*
X15766804Y-3206185D01*
X15812559Y-3258989D01*
X15822503Y-3328147D01*
X15793478Y-3391703D01*
X15787446Y-3398181D01*
X15509447Y-3676181D01*
X15448124Y-3709666D01*
X15421766Y-3712500D01*
X8049748Y-3712500D01*
X7982709Y-3692815D01*
X7957600Y-3671474D01*
X7951873Y-3665114D01*
X7951869Y-3665110D01*
X7798734Y-3553851D01*
X7798729Y-3553848D01*
X7625807Y-3476857D01*
X7625802Y-3476855D01*
X7480001Y-3445865D01*
X7440646Y-3437500D01*
X7251354Y-3437500D01*
X7251352Y-3437500D01*
X7101507Y-3469350D01*
X7031840Y-3464034D01*
X6976107Y-3421896D01*
X6952002Y-3356316D01*
X6957795Y-3309746D01*
X6981674Y-3236256D01*
X7001460Y-3048000D01*
X6981674Y-2859744D01*
X6923179Y-2679716D01*
X6828533Y-2515784D01*
X6701871Y-2375112D01*
X6701870Y-2375111D01*
X6548734Y-2263851D01*
X6548729Y-2263848D01*
X6375807Y-2186857D01*
X6375802Y-2186855D01*
X6230001Y-2155865D01*
X6190646Y-2147500D01*
X6001354Y-2147500D01*
X5968897Y-2154398D01*
X5816197Y-2186855D01*
X5816192Y-2186857D01*
X5643270Y-2263848D01*
X5643265Y-2263851D01*
X5490130Y-2375110D01*
X5490126Y-2375114D01*
X5484400Y-2381474D01*
X5424913Y-2418121D01*
X5392252Y-2422500D01*
X5308632Y-2422500D01*
X5241593Y-2402815D01*
X5195838Y-2350011D01*
X5185894Y-2280853D01*
X5190699Y-2260186D01*
X5203674Y-2220256D01*
X5223460Y-2032000D01*
X5203674Y-1843744D01*
X5145179Y-1663716D01*
X5093093Y-1573500D01*
X5076620Y-1505599D01*
X5099473Y-1439573D01*
X5154394Y-1396382D01*
X5200480Y-1387500D01*
X9296151Y-1387500D01*
X9363190Y-1407185D01*
G37*
%TD.AperFunction*%
%TD*%
M02*
