M48
; DRILL file {KiCad 7.0.8} date Sun Nov 10 19:19:34 2024
; FORMAT={-:-/ absolute / inch / decimal}
; #@! TF.CreationDate,2024-11-10T19:19:34+09:00
; #@! TF.GenerationSoftware,Kicad,Pcbnew,7.0.8
; #@! TF.FileFunction,Plated,1,2,PTH
FMAT,2
INCH
; #@! TA.AperFunction,Plated,PTH,ViaDrill
T1C0.0157
; #@! TA.AperFunction,Plated,PTH,ComponentDrill
T2C0.0236
; #@! TA.AperFunction,Plated,PTH,ComponentDrill
T3C0.0300
%
G90
G05
T1
X0.05Y-1.25
X0.05Y-1.4
X0.05Y-1.55
X0.14Y-0.77
X0.14Y-0.9943
X0.17Y-0.08
X0.21Y-0.16
X0.21Y-1.2
X0.24Y-0.12
X0.2892Y-0.1708
X0.3Y-0.65
X0.3Y-1.4
X0.3Y-1.55
X0.4Y-0.65
X0.4Y-0.75
X0.42Y-1.11
X0.5Y-0.65
X0.5Y-0.75
X0.5Y-1.4
X0.5Y-1.55
X0.6Y-0.65
X0.6Y-0.75
X0.62Y-0.09
X0.64Y-1.11
X0.7Y-0.65
X0.7Y-1.4
X0.7Y-1.55
X0.7023Y-0.0879
X0.71Y-0.88
X0.71Y-0.93
X0.83Y-0.38
X0.95Y-1.25
X0.95Y-1.4
X0.95Y-1.55
X0.96Y-0.2
X0.98Y-0.68
X1.15Y-0.05
X1.15Y-0.35
X1.15Y-0.5
X1.15Y-0.65
X1.15Y-0.8
X1.15Y-0.95
X1.15Y-1.1
X1.15Y-1.25
X1.3Y-0.35
X1.3Y-0.5
X1.3Y-1.1
X1.3Y-1.25
X1.35Y-0.05
T3
X0.9039Y-0.4839
X0.9039Y-0.5839
X0.9039Y-0.6839
X0.9039Y-0.7839
X0.9039Y-0.8839
X0.9039Y-0.9839
X0.9039Y-1.0839
X1.3039Y-0.5839
X1.3039Y-0.6839
X1.3039Y-0.7839
X1.3039Y-0.8839
X1.3039Y-0.9839
T2
G00X0.0699Y-0.0884
M15
G01X0.0699Y-0.0648
M16
G05
G00X0.0699Y-0.2628
M15
G01X0.0699Y-0.2195
M16
G05
G00X0.4101Y-0.0884
M15
G01X0.4101Y-0.0648
M16
G05
G00X0.4101Y-0.2628
M15
G01X0.4101Y-0.2195
M16
G05
T0
M30
